{
.appVersion = "1192";
DisplayStrings = (
nn,
oo
);
copyright = "Copyright (c) 2003 by Bitstream, Inc. All Rights Reserved.\012Copyright (c) 2006 by Tavmjong Bah. All Rights Reserved.\012DejaVu changes are in public domain\012";
customParameters = (
{
name = licenseURL;
value = "http://dejavu.sourceforge.net/wiki/index.php/License";
},
{
name = license;

glyphs = (
{
export = 0;
glyphname = A;
layers = (
{
layerId = "79F6B4AB-4C44-4F2D-9893-C213A8C041F5";
paths = (
{
closed = 1;
nodes = (
"101 0 LINE",
"160 187 LINE",
"456 187 LINE",
"516 0 LINE",
"608 0 LINE",
"358 729 LINE",
"257 729 LINE",
"7 0 LINE"
);
},
{
closed = 1;
nodes = (
"308 632 LINE",
"429 269 LINE",
"187 269 LINE"
);
}
);
width = 615;
},
{
layerId = "EB88A49E-561A-4405-9552-C71224CBA53C";
paths = (
{
closed = 1;
nodes = (
"112 0 LINE",
"178 187 LINE",
"507 187 LINE",
"573 0 LINE",
"676 0 LINE",
"398 729 LINE",
"286 729 LINE",
"8 0 LINE"
);
},
{
closed = 1;
nodes = (
"342 632 LINE",
"476 269 LINE",
"208 269 LINE"
);
}
);
width = 684;
},
{
layerId = "5297CC84-2E5E-44C2-8BD8-B52BBF62A592";
paths = (
{
closed = 1;
nodes = (
"194 0 LINE",
"240 133 LINE",
"534 133 LINE",
"580 0 LINE",
"769 0 LINE",
"499 729 LINE",
"275 729 LINE",
"5 0 LINE"
);
},
{
closed = 1;
nodes = (
"387 558 LINE",
"487 268 LINE",
"287 268 LINE"
);
}
);
width = 774;
},
{
layerId = "5FB0259D-C3EC-4F0F-ABB4-6EFEC5FB1D78";
paths = (
{
closed = 1;
nodes = (
"174 0 LINE",
"216 133 LINE",
"481 133 LINE",
"522 0 LINE",
"692 0 LINE",
"449 729 LINE",
"248 729 LINE",
"4 0 LINE"
);
},
{
closed = 1;
nodes = (
"349 558 LINE",
"438 268 LINE",
"258 268 LINE"
);
}
);
width = 696;
},
{
layerId = "79D829DC-9C66-44C2-8B43-D291CF08F0E9";
paths = (
{
closed = 1;
nodes = (
"51 0 LINE",
"154 187 LINE",
"482 187 LINE",
"512 0 LINE",
"615 0 LINE",
"480 729 LINE",
"368 729 LINE",
"-53 0 LINE"
);
},
{
closed = 1;
nodes = (
"404 632 LINE",
"467 269 LINE",
"199 269 LINE"
);
}
);
width = 684;
},
{
layerId = "217D6A7E-4635-413B-8BF5-4A1DD3DA67ED";
paths = (
{
closed = 1;
nodes = (
"46 0 LINE",
"139 187 LINE",
"434 187 LINE",
"461 0 LINE",
"554 0 LINE",
"433 729 LINE",
"332 729 LINE",
"-47 0 LINE"
);
},
{
closed = 1;
nodes = (
"364 632 LINE",
"420 269 LINE",
"180 269 LINE"
);
}
);
width = 615;
},
{
layerId = "BED8EE44-B183-4D86-965C-1BADD1250A61";
paths = (
{
closed = 1;
nodes = (
"116 0 LINE",
"181 133 LINE",
"442 133 LINE",
"461 0 LINE",
"623 0 LINE",
"506 729 LINE",
"313 729 LINE",
"-58 0 LINE"
);
},
{
closed = 1;
nodes = (
"381 546 LINE",
"420 265 LINE",
"245 265 LINE"
);
}
);
width = 696;
},
{
layerId = "99D829B7-D749-4014-BBE4-6F1A75B6E575";
paths = (
{
closed = 1;
nodes = (
"82 0 LINE",
"168 229 LINE",
"508 229 LINE",
"595 0 LINE",
"651 0 LINE",
"372 729 LINE",
"308 729 LINE",
"30 0 LINE"
);
},
{
closed = 1;
nodes = (
"339 680 LINE",
"493 270 LINE",
"183 270 LINE"
);
}
);
width = 684;
},
{
layerId = "D5B43B4B-63DF-4B35-BEE3-B41B34784265";
paths = (
{
closed = 1;
nodes = (
"128 0 LINE",
"200 133 LINE",
"491 133 LINE",
"512 0 LINE",
"691 0 LINE",
"562 729 LINE",
"347 729 LINE",
"-65 0 LINE"
);
},
{
closed = 1;
nodes = (
"423 546 LINE",
"467 265 LINE",
"271 265 LINE"
);
}
);
width = 774;
}
);
leftKerningGroup = A;
note = A;
rightKerningGroup = A;
unicode = 0041;
},
{
export = 0;
glyphname = B;
layers = (
{
layerId = "79F6B4AB-4C44-4F2D-9893-C213A8C041F5";
paths = (
{
closed = 1;
nodes = (
"324 0 LINE SMOOTH",
"471 0 OFFCURVE",
"554 73 OFFCURVE",
"554 204 CURVE SMOOTH",
"554 303 OFFCURVE",
"503 372 OFFCURVE",
"416 393 CURVE",
"488 406 OFFCURVE",
"526 460 OFFCURVE",
"526 549 CURVE SMOOTH",
"526 664 OFFCURVE",
"451 729 OFFCURVE",
"315 729 CURVE SMOOTH",
"88 729 LINE",
"88 0 LINE"
);
},
{
closed = 1;
nodes = (
"177 348 LINE",
"319 348 LINE SMOOTH",
"415 348 OFFCURVE",
"460 306 OFFCURVE",
"460 215 CURVE SMOOTH",
"460 124 OFFCURVE",
"415 81 OFFCURVE",
"319 81 CURVE SMOOTH",
"177 81 LINE"
);
},
{
closed = 1;
nodes = (
"177 648 LINE",
"309 648 LINE SMOOTH",
"396 648 OFFCURVE",
"438 611 OFFCURVE",
"438 538 CURVE SMOOTH",
"438 463 OFFCURVE",
"396 428 OFFCURVE",
"309 428 CURVE SMOOTH",
"177 428 LINE"
);
}
);
width = 617;
},
{
layerId = "EB88A49E-561A-4405-9552-C71224CBA53C";
paths = (
{
closed = 1;
nodes = (
"360 0 LINE SMOOTH",
"523 0 OFFCURVE",
"615 73 OFFCURVE",
"615 204 CURVE SMOOTH",
"615 303 OFFCURVE",
"559 372 OFFCURVE",
"462 393 CURVE",
"542 406 OFFCURVE",
"585 460 OFFCURVE",
"585 549 CURVE SMOOTH",
"585 664 OFFCURVE",
"501 729 OFFCURVE",
"350 729 CURVE SMOOTH",
"98 729 LINE",
"98 0 LINE"
);
},
{
closed = 1;
nodes = (
"197 348 LINE",
"355 348 LINE SMOOTH",
"462 348 OFFCURVE",
"511 306 OFFCURVE",
"511 215 CURVE SMOOTH",
"511 124 OFFCURVE",
"462 81 OFFCURVE",
"355 81 CURVE SMOOTH",
"197 81 LINE"
);
},
{
closed = 1;
nodes = (
"197 648 LINE",
"343 648 LINE SMOOTH",
"439 648 OFFCURVE",
"486 611 OFFCURVE",
"486 538 CURVE SMOOTH",
"486 463 OFFCURVE",
"439 428 OFFCURVE",
"343 428 CURVE SMOOTH",
"197 428 LINE"
);
}
);
width = 686;
},
{
layerId = "5297CC84-2E5E-44C2-8BD8-B52BBF62A592";
paths = (
{
closed = 1;
nodes = (
"404 0 LINE SMOOTH",
"597 0 OFFCURVE",
"692 69 OFFCURVE",
"692 209 CURVE SMOOTH",
"692 301 OFFCURVE",
"645 367 OFFCURVE",
"565 390 CURVE",
"628 414 OFFCURVE",
"662 465 OFFCURVE",
"662 536 CURVE SMOOTH",
"662 671 OFFCURVE",
"577 729 OFFCURVE",
"374 729 CURVE SMOOTH",
"92 729 LINE",
"92 0 LINE"
);
},
{
closed = 1;
nodes = (
"280 319 LINE",
"390 319 LINE SMOOTH",
"466 319 OFFCURVE",
"504 287 OFFCURVE",
"504 224 CURVE SMOOTH",
"504 160 OFFCURVE",
"466 128 OFFCURVE",
"390 128 CURVE SMOOTH",
"280 128 LINE"
);
},
{
closed = 1;
nodes = (
"280 601 LINE",
"384 601 LINE SMOOTH",
"443 601 OFFCURVE",
"474 575 OFFCURVE",
"474 524 CURVE SMOOTH",
"474 473 OFFCURVE",
"443 447 OFFCURVE",
"384 447 CURVE SMOOTH",
"280 447 LINE"
);
}
);
width = 762;
},
{
layerId = "5FB0259D-C3EC-4F0F-ABB4-6EFEC5FB1D78";
paths = (
{
closed = 1;
nodes = (
"363 0 LINE SMOOTH",
"538 0 OFFCURVE",
"623 69 OFFCURVE",
"623 209 CURVE SMOOTH",
"623 301 OFFCURVE",
"581 367 OFFCURVE",
"508 390 CURVE",
"565 414 OFFCURVE",
"596 465 OFFCURVE",
"596 536 CURVE SMOOTH",
"596 671 OFFCURVE",
"519 729 OFFCURVE",
"336 729 CURVE SMOOTH",
"83 729 LINE",
"83 0 LINE"
);
},
{
closed = 1;
nodes = (
"252 319 LINE",
"351 319 LINE SMOOTH",
"419 319 OFFCURVE",
"454 287 OFFCURVE",
"454 224 CURVE SMOOTH",
"454 160 OFFCURVE",
"419 128 OFFCURVE",
"351 128 CURVE SMOOTH",
"252 128 LINE"
);
},
{
closed = 1;
nodes = (
"252 601 LINE",
"345 601 LINE SMOOTH",
"398 601 OFFCURVE",
"427 575 OFFCURVE",
"427 524 CURVE SMOOTH",
"427 473 OFFCURVE",
"398 447 OFFCURVE",
"345 447 CURVE SMOOTH",
"252 447 LINE"
);
}
);
width = 686;
},
{
layerId = "79D829DC-9C66-44C2-8B43-D291CF08F0E9";
paths = (
{
closed = 1;
nodes = (
"284 0 LINE SMOOTH",
"472 0 OFFCURVE",
"588 91 OFFCURVE",
"588 238 CURVE SMOOTH",
"588 323 OFFCURVE",
"547 374 OFFCURVE",
"467 393 CURVE",
"562 408 OFFCURVE",
"625 483 OFFCURVE",
"625 576 CURVE SMOOTH",
"625 679 OFFCURVE",
"557 729 OFFCURVE",
"421 729 CURVE SMOOTH",
"169 729 LINE",
"27 0 LINE"
);
},
{
closed = 1;
nodes = (
"193 348 LINE",
"351 348 LINE SMOOTH",
"446 348 OFFCURVE",
"486 314 OFFCURVE",
"486 238 CURVE SMOOTH",
"486 138 OFFCURVE",
"419 81 OFFCURVE",
"300 81 CURVE SMOOTH",
"141 81 LINE"
);
},
{
closed = 1;
nodes = (
"251 648 LINE",
"397 648 LINE SMOOTH",
"484 648 OFFCURVE",
"522 620 OFFCURVE",
"522 557 CURVE SMOOTH",
"522 477 OFFCURVE",
"460 428 OFFCURVE",
"355 428 CURVE SMOOTH",
"208 428 LINE"
);
}
);
width = 686;
},
{
layerId = "217D6A7E-4635-413B-8BF5-4A1DD3DA67ED";
paths = (
{
closed = 1;
nodes = (
"256 0 LINE SMOOTH",
"425 0 OFFCURVE",
"529 91 OFFCURVE",
"529 238 CURVE SMOOTH",
"529 323 OFFCURVE",
"493 374 OFFCURVE",
"420 393 CURVE",
"505 408 OFFCURVE",
"563 483 OFFCURVE",
"563 576 CURVE SMOOTH",
"563 679 OFFCURVE",
"502 729 OFFCURVE",
"379 729 CURVE SMOOTH",
"152 729 LINE",
"24 0 LINE"
);
},
{
closed = 1;
nodes = (
"174 348 LINE",
"316 348 LINE SMOOTH",
"401 348 OFFCURVE",
"438 314 OFFCURVE",
"438 238 CURVE SMOOTH",
"438 138 OFFCURVE",
"377 81 OFFCURVE",
"270 81 CURVE SMOOTH",
"127 81 LINE"
);
},
{
closed = 1;
nodes = (
"226 648 LINE",
"357 648 LINE SMOOTH",
"436 648 OFFCURVE",
"470 620 OFFCURVE",
"470 557 CURVE SMOOTH",
"470 477 OFFCURVE",
"414 428 OFFCURVE",
"319 428 CURVE SMOOTH",
"187 428 LINE"
);
}
);
width = 617;
},
{
layerId = "BED8EE44-B183-4D86-965C-1BADD1250A61";
paths = (
{
closed = 1;
nodes = (
"300 0 LINE SMOOTH",
"489 0 OFFCURVE",
"600 93 OFFCURVE",
"600 250 CURVE SMOOTH",
"600 322 OFFCURVE",
"567 371 OFFCURVE",
"510 390 CURVE",
"581 410 OFFCURVE",
"629 484 OFFCURVE",
"629 573 CURVE SMOOTH",
"629 680 OFFCURVE",
"556 729 OFFCURVE",
"400 729 CURVE SMOOTH",
"147 729 LINE",
"19 0 LINE"
);
},
{
closed = 1;
nodes = (
"243 319 LINE",
"343 319 LINE SMOOTH",
"402 319 OFFCURVE",
"430 296 OFFCURVE",
"430 247 CURVE SMOOTH",
"430 170 OFFCURVE",
"387 128 OFFCURVE",
"310 128 CURVE SMOOTH",
"209 128 LINE"
);
},
{
closed = 1;
nodes = (
"292 601 LINE",
"387 601 LINE SMOOTH",
"431 601 OFFCURVE",
"456 581 OFFCURVE",
"456 542 CURVE SMOOTH",
"456 483 OFFCURVE",
"420 447 OFFCURVE",
"360 447 CURVE SMOOTH",
"266 447 LINE"
);
}
);
width = 686;
},
{
layerId = "99D829B7-D749-4014-BBE4-6F1A75B6E575";
paths = (
{
closed = 1;
nodes = (
"360 0 LINE SMOOTH",
"505 0 OFFCURVE",
"587 73 OFFCURVE",
"587 204 CURVE SMOOTH",
"587 253 OFFCURVE",
"575 295 OFFCURVE",
"551 328 CURVE SMOOTH",
"530 358 OFFCURVE",
"499 378 OFFCURVE",
"457 389 CURVE",
"486 398 OFFCURVE",
"510 416 OFFCURVE",
"531 442 CURVE SMOOTH",
"550 466 OFFCURVE",
"559 502 OFFCURVE",
"559 549 CURVE SMOOTH",
"559 664 OFFCURVE",
"483 729 OFFCURVE",
"350 729 CURVE SMOOTH",
"123 729 LINE",
"123 0 LINE"
);
},
{
closed = 1;
nodes = (
"172 363 LINE",
"355 363 LINE SMOOTH",
"417 363 OFFCURVE",
"463 350 OFFCURVE",
"493 324 CURVE SMOOTH",
"523 298 OFFCURVE",
"538 257 OFFCURVE",
"538 202 CURVE SMOOTH",
"538 147 OFFCURVE",
"523 106 OFFCURVE",
"493 80 CURVE SMOOTH",
"463 53 OFFCURVE",
"417 40 OFFCURVE",
"355 40 CURVE SMOOTH",
"172 40 LINE"
);
},
{
closed = 1;
nodes = (
"172 689 LINE",
"343 689 LINE SMOOTH",
"399 689 OFFCURVE",
"441 677 OFFCURVE",
"468 653 CURVE SMOOTH",
"495 630 OFFCURVE",
"509 595 OFFCURVE",
"509 547 CURVE SMOOTH",
"509 450 OFFCURVE",
"455 403 OFFCURVE",
"343 403 CURVE SMOOTH",
"172 403 LINE"
);
}
);
width = 655;
},
{
layerId = "D5B43B4B-63DF-4B35-BEE3-B41B34784265";
paths = (
{
closed = 1;
nodes = (
"333 0 LINE SMOOTH",
"545 0 OFFCURVE",
"667 93 OFFCURVE",
"667 250 CURVE SMOOTH",
"667 322 OFFCURVE",
"631 371 OFFCURVE",
"567 390 CURVE",
"646 410 OFFCURVE",
"699 484 OFFCURVE",
"699 573 CURVE SMOOTH",
"699 680 OFFCURVE",
"618 729 OFFCURVE",
"445 729 CURVE SMOOTH",
"163 729 LINE",
"21 0 LINE"
);
},
{
closed = 1;
nodes = (
"270 319 LINE",
"381 319 LINE SMOOTH",
"446 319 OFFCURVE",
"478 296 OFFCURVE",
"478 247 CURVE SMOOTH",
"478 170 OFFCURVE",
"431 128 OFFCURVE",
"344 128 CURVE SMOOTH",
"233 128 LINE"
);
},
{
closed = 1;
nodes = (
"325 601 LINE",
"430 601 LINE SMOOTH",
"479 601 OFFCURVE",
"507 581 OFFCURVE",
"507 542 CURVE SMOOTH",
"507 483 OFFCURVE",
"467 447 OFFCURVE",
"400 447 CURVE SMOOTH",
"295 447 LINE"
);
}
);
width = 762;
}
);
leftKerningGroup = B;
note = B;
rightKerningGroup = B;
unicode = 0042;
},
{
export = 0;
glyphname = C;
layers = (
{
layerId = "79F6B4AB-4C44-4F2D-9893-C213A8C041F5";
paths = (
{
closed = 1;
nodes = (
"448 -14 OFFCURVE",
"517 9 OFFCURVE",
"580 56 CURVE",
"580 159 LINE",
"520 98 OFFCURVE",
"452 67 OFFCURVE",
"376 67 CURVE SMOOTH",
"227 67 OFFCURVE",
"144 172 OFFCURVE",
"144 364 CURVE SMOOTH",
"144 556 OFFCURVE",
"227 661 OFFCURVE",
"376 661 CURVE SMOOTH",
"452 661 OFFCURVE",
"520 630 OFFCURVE",
"580 569 CURVE",
"580 673 LINE",
"519 720 OFFCURVE",
"450 742 OFFCURVE",
"371 742 CURVE SMOOTH",
"172 742 OFFCURVE",
"51 599 OFFCURVE",
"51 364 CURVE SMOOTH",
"51 129 OFFCURVE",
"172 -14 OFFCURVE",
"371 -14 CURVE SMOOTH"
);
}
);
width = 628;
},
{
layerId = "EB88A49E-561A-4405-9552-C71224CBA53C";
paths = (
{
closed = 1;
nodes = (
"499 -14 OFFCURVE",
"575 9 OFFCURVE",
"644 56 CURVE",
"644 159 LINE",
"577 98 OFFCURVE",
"502 67 OFFCURVE",
"418 67 CURVE SMOOTH",
"251 67 OFFCURVE",
"160 172 OFFCURVE",
"160 364 CURVE SMOOTH",
"160 556 OFFCURVE",
"251 661 OFFCURVE",
"418 661 CURVE SMOOTH",
"502 661 OFFCURVE",
"577 630 OFFCURVE",
"644 569 CURVE",
"644 673 LINE",
"576 720 OFFCURVE",
"500 742 OFFCURVE",
"412 742 CURVE SMOOTH",
"192 742 OFFCURVE",
"56 599 OFFCURVE",
"56 364 CURVE SMOOTH",
"56 129 OFFCURVE",
"192 -14 OFFCURVE",
"412 -14 CURVE SMOOTH"
);
}
);
width = 698;
},
{
layerId = "5297CC84-2E5E-44C2-8BD8-B52BBF62A592";
paths = (
{
closed = 1;
nodes = (
"526 -14 OFFCURVE",
"601 4 OFFCURVE",
"670 40 CURVE",
"670 191 LINE",
"601 143 OFFCURVE",
"535 122 OFFCURVE",
"460 122 CURVE SMOOTH",
"325 122 OFFCURVE",
"244 213 OFFCURVE",
"244 364 CURVE SMOOTH",
"244 515 OFFCURVE",
"325 606 OFFCURVE",
"460 606 CURVE SMOOTH",
"535 606 OFFCURVE",
"601 585 OFFCURVE",
"670 537 CURVE",
"670 688 LINE",
"601 724 OFFCURVE",
"526 742 OFFCURVE",
"445 742 CURVE SMOOTH",
"202 742 OFFCURVE",
"50 597 OFFCURVE",
"50 364 CURVE SMOOTH",
"50 131 OFFCURVE",
"202 -14 OFFCURVE",
"445 -14 CURVE SMOOTH"
);
}
);
width = 734;
},
{
layerId = "5FB0259D-C3EC-4F0F-ABB4-6EFEC5FB1D78";
paths = (
{
closed = 1;
nodes = (
"473 -14 OFFCURVE",
"540 4 OFFCURVE",
"603 40 CURVE",
"603 191 LINE",
"540 143 OFFCURVE",
"481 122 OFFCURVE",
"414 122 CURVE SMOOTH",
"293 122 OFFCURVE",
"220 213 OFFCURVE",
"220 364 CURVE SMOOTH",
"220 515 OFFCURVE",
"293 606 OFFCURVE",
"414 606 CURVE SMOOTH",
"481 606 OFFCURVE",
"540 585 OFFCURVE",
"603 537 CURVE",
"603 688 LINE",
"540 724 OFFCURVE",
"473 742 OFFCURVE",
"400 742 CURVE SMOOTH",
"181 742 OFFCURVE",
"45 597 OFFCURVE",
"45 364 CURVE SMOOTH",
"45 131 OFFCURVE",
"181 -14 OFFCURVE",
"400 -14 CURVE SMOOTH"
);
}
);
width = 660;
},
{
layerId = "79D829DC-9C66-44C2-8B43-D291CF08F0E9";
paths = (
{
closed = 1;
nodes = (
"419 -14 OFFCURVE",
"499 3 OFFCURVE",
"576 36 CURVE",
"599 153 LINE",
"520 94 OFFCURVE",
"438 66 OFFCURVE",
"347 66 CURVE SMOOTH",
"216 66 OFFCURVE",
"146 137 OFFCURVE",
"146 270 CURVE SMOOTH",
"146 350 OFFCURVE",
"167 429 OFFCURVE",
"206 500 CURVE SMOOTH",
"267 609 OFFCURVE",
"350 662 OFFCURVE",
"462 662 CURVE SMOOTH",
"543 662 OFFCURVE",
"612 632 OFFCURVE",
"675 569 CURVE",
"695 673 LINE",
"630 720 OFFCURVE",
"556 742 OFFCURVE",
"472 742 CURVE SMOOTH",
"337 742 OFFCURVE",
"238 697 OFFCURVE",
"158 598 CURVE SMOOTH",
"83 506 OFFCURVE",
"42 390 OFFCURVE",
"42 274 CURVE SMOOTH",
"42 93 OFFCURVE",
"153 -14 OFFCURVE",
"340 -14 CURVE SMOOTH"
);
}
);
width = 698;
},
{
layerId = "217D6A7E-4635-413B-8BF5-4A1DD3DA67ED";
paths = (
{
closed = 1;
nodes = (
"377 -14 OFFCURVE",
"448 3 OFFCURVE",
"519 36 CURVE",
"539 153 LINE",
"468 94 OFFCURVE",
"394 66 OFFCURVE",
"313 66 CURVE SMOOTH",
"194 66 OFFCURVE",
"131 137 OFFCURVE",
"131 270 CURVE SMOOTH",
"131 350 OFFCURVE",
"150 429 OFFCURVE",
"186 500 CURVE SMOOTH",
"241 609 OFFCURVE",
"316 662 OFFCURVE",
"416 662 CURVE SMOOTH",
"489 662 OFFCURVE",
"551 632 OFFCURVE",
"607 569 CURVE",
"625 673 LINE",
"568 720 OFFCURVE",
"500 742 OFFCURVE",
"425 742 CURVE SMOOTH",
"302 742 OFFCURVE",
"214 697 OFFCURVE",
"143 598 CURVE SMOOTH",
"75 506 OFFCURVE",
"38 390 OFFCURVE",
"38 274 CURVE SMOOTH",
"38 93 OFFCURVE",
"138 -14 OFFCURVE",
"306 -14 CURVE SMOOTH"
);
}
);
width = 628;
},
{
layerId = "BED8EE44-B183-4D86-965C-1BADD1250A61";
paths = (
{
closed = 1;
nodes = (
"390 -14 OFFCURVE",
"465 2 OFFCURVE",
"545 34 CURVE",
"574 196 LINE",
"491 145 OFFCURVE",
"428 122 OFFCURVE",
"368 122 CURVE SMOOTH",
"269 122 OFFCURVE",
"209 190 OFFCURVE",
"209 302 CURVE SMOOTH",
"209 475 OFFCURVE",
"313 606 OFFCURVE",
"448 606 CURVE SMOOTH",
"513 606 OFFCURVE",
"568 585 OFFCURVE",
"625 537 CURVE",
"652 688 LINE",
"581 724 OFFCURVE",
"513 742 OFFCURVE",
"445 742 CURVE SMOOTH",
"320 742 OFFCURVE",
"208 686 OFFCURVE",
"131 586 CURVE SMOOTH",
"67 501 OFFCURVE",
"33 396 OFFCURVE",
"33 280 CURVE SMOOTH",
"33 103 OFFCURVE",
"147 -14 OFFCURVE",
"323 -14 CURVE SMOOTH"
);
}
);
width = 660;
},
{
layerId = "99D829B7-D749-4014-BBE4-6F1A75B6E575";
paths = (
{
closed = 1;
nodes = (
"455 -14 OFFCURVE",
"496 -8 OFFCURVE",
"534 3 CURVE SMOOTH",
"573 15 OFFCURVE",
"609 33 OFFCURVE",
"644 56 CURVE",
"644 115 LINE",
"611 85 OFFCURVE",
"575 62 OFFCURVE",
"538 47 CURVE SMOOTH",
"500 32 OFFCURVE",
"460 24 OFFCURVE",
"418 24 CURVE SMOOTH",
"326 24 OFFCURVE",
"256 53 OFFCURVE",
"208 112 CURVE SMOOTH",
"159 170 OFFCURVE",
"134 254 OFFCURVE",
"134 364 CURVE SMOOTH",
"134 473 OFFCURVE",
"159 557 OFFCURVE",
"208 615 CURVE SMOOTH",
"256 673 OFFCURVE",
"326 702 OFFCURVE",
"418 702 CURVE SMOOTH",
"460 702 OFFCURVE",
"500 695 OFFCURVE",
"538 680 CURVE SMOOTH",
"575 665 OFFCURVE",
"611 643 OFFCURVE",
"644 612 CURVE",
"644 668 LINE",
"610 693 OFFCURVE",
"574 712 OFFCURVE",
"535 724 CURVE SMOOTH",
"497 736 OFFCURVE",
"456 742 OFFCURVE",
"412 742 CURVE SMOOTH",
"310 742 OFFCURVE",
"230 708 OFFCURVE",
"171 641 CURVE SMOOTH",
"112 574 OFFCURVE",
"83 481 OFFCURVE",
"83 364 CURVE SMOOTH",
"83 247 OFFCURVE",
"112 154 OFFCURVE",
"171 87 CURVE SMOOTH",
"230 20 OFFCURVE",
"310 -14 OFFCURVE",
"412 -14 CURVE SMOOTH"
);
}
);
width = 698;
},
{
layerId = "D5B43B4B-63DF-4B35-BEE3-B41B34784265";
paths = (
{
closed = 1;
nodes = (
"434 -14 OFFCURVE",
"517 2 OFFCURVE",
"606 34 CURVE",
"638 196 LINE",
"546 145 OFFCURVE",
"474 122 OFFCURVE",
"409 122 CURVE SMOOTH",
"300 122 OFFCURVE",
"233 190 OFFCURVE",
"233 302 CURVE SMOOTH",
"233 475 OFFCURVE",
"347 606 OFFCURVE",
"498 606 CURVE SMOOTH",
"570 606 OFFCURVE",
"631 585 OFFCURVE",
"694 537 CURVE",
"724 688 LINE",
"645 724 OFFCURVE",
"570 742 OFFCURVE",
"494 742 CURVE SMOOTH",
"355 742 OFFCURVE",
"231 686 OFFCURVE",
"146 586 CURVE SMOOTH",
"74 501 OFFCURVE",
"36 396 OFFCURVE",
"36 280 CURVE SMOOTH",
"36 103 OFFCURVE",
"163 -14 OFFCURVE",
"359 -14 CURVE SMOOTH"
);
}
);
width = 734;
}
);
leftKerningGroup = C;
note = C;
rightKerningGroup = C;
unicode = 0043;
},
{
export = 0;
glyphname = D;
layers = (
{
layerId = "79F6B4AB-4C44-4F2D-9893-C213A8C041F5";
paths = (
{
closed = 1;
nodes = (
"271 0 LINE SMOOTH",
"523 0 OFFCURVE",
"640 114 OFFCURVE",
"640 365 CURVE SMOOTH",
"640 616 OFFCURVE",
"524 729 OFFCURVE",
"271 729 CURVE SMOOTH",
"88 729 LINE",
"88 0 LINE"
);
},
{
closed = 1;
nodes = (
"177 648 LINE",
"284 648 LINE SMOOTH",
"465 648 OFFCURVE",
"546 561 OFFCURVE",
"546 365 CURVE SMOOTH",
"546 169 OFFCURVE",
"465 81 OFFCURVE",
"284 81 CURVE SMOOTH",
"177 81 LINE"
);
}
);
width = 693;
},
{
layerId = "EB88A49E-561A-4405-9552-C71224CBA53C";
paths = (
{
closed = 1;
nodes = (
"301 0 LINE SMOOTH",
"582 0 OFFCURVE",
"711 114 OFFCURVE",
"711 365 CURVE SMOOTH",
"711 616 OFFCURVE",
"584 729 OFFCURVE",
"301 729 CURVE SMOOTH",
"98 729 LINE",
"98 0 LINE"
);
},
{
closed = 1;
nodes = (
"197 648 LINE",
"316 648 LINE SMOOTH",
"517 648 OFFCURVE",
"607 561 OFFCURVE",
"607 365 CURVE SMOOTH",
"607 169 OFFCURVE",
"517 81 OFFCURVE",
"316 81 CURVE SMOOTH",
"197 81 LINE"
);
}
);
width = 770;
},
{
layerId = "5297CC84-2E5E-44C2-8BD8-B52BBF62A592";
paths = (
{
closed = 1;
nodes = (
"290 0 LINE SMOOTH",
"509 0 OFFCURVE",
"598 28 OFFCURVE",
"677 104 CURVE SMOOTH",
"745 169 OFFCURVE",
"778 256 OFFCURVE",
"778 365 CURVE SMOOTH",
"778 474 OFFCURVE",
"745 560 OFFCURVE",
"677 625 CURVE SMOOTH",
"600 701 OFFCURVE",
"511 729 OFFCURVE",
"290 729 CURVE SMOOTH",
"92 729 LINE",
"92 0 LINE"
);
},
{
closed = 1;
nodes = (
"280 587 LINE",
"347 587 LINE SMOOTH",
"502 587 OFFCURVE",
"584 510 OFFCURVE",
"584 365 CURVE SMOOTH",
"584 220 OFFCURVE",
"500 142 OFFCURVE",
"347 142 CURVE SMOOTH",
"280 142 LINE"
);
}
);
width = 830;
},
{
layerId = "5FB0259D-C3EC-4F0F-ABB4-6EFEC5FB1D78";
paths = (
{
closed = 1;
nodes = (
"261 0 LINE SMOOTH",
"458 0 OFFCURVE",
"538 28 OFFCURVE",
"609 104 CURVE SMOOTH",
"670 169 OFFCURVE",
"700 256 OFFCURVE",
"700 365 CURVE SMOOTH",
"700 474 OFFCURVE",
"670 560 OFFCURVE",
"609 625 CURVE SMOOTH",
"540 701 OFFCURVE",
"461 729 OFFCURVE",
"261 729 CURVE SMOOTH",
"83 729 LINE",
"83 0 LINE"
);
},
{
closed = 1;
nodes = (
"252 587 LINE",
"313 587 LINE SMOOTH",
"452 587 OFFCURVE",
"525 510 OFFCURVE",
"525 365 CURVE SMOOTH",
"525 220 OFFCURVE",
"450 142 OFFCURVE",
"313 142 CURVE SMOOTH",
"252 142 LINE"
);
}
);
width = 747;
},
{
layerId = "79D829DC-9C66-44C2-8B43-D291CF08F0E9";
paths = (
{
closed = 1;
nodes = (
"240 0 LINE SMOOTH",
"403 0 OFFCURVE",
"522 40 OFFCURVE",
"599 120 CURVE SMOOTH",
"676 199 OFFCURVE",
"722 321 OFFCURVE",
"722 445 CURVE SMOOTH",
"722 633 OFFCURVE",
"606 729 OFFCURVE",
"381 729 CURVE SMOOTH",
"169 729 LINE",
"27 0 LINE"
);
},
{
closed = 1;
nodes = (
"252 648 LINE",
"376 648 LINE SMOOTH",
"543 648 OFFCURVE",
"618 585 OFFCURVE",
"618 445 CURVE SMOOTH",
"618 213 OFFCURVE",
"492 81 OFFCURVE",
"271 81 CURVE SMOOTH",
"142 81 LINE"
);
}
);
width = 770;
},
{
layerId = "217D6A7E-4635-413B-8BF5-4A1DD3DA67ED";
paths = (
{
closed = 1;
nodes = (
"216 0 LINE SMOOTH",
"363 0 OFFCURVE",
"470 40 OFFCURVE",
"539 120 CURVE SMOOTH",
"608 199 OFFCURVE",
"650 321 OFFCURVE",
"650 445 CURVE SMOOTH",
"650 633 OFFCURVE",
"546 729 OFFCURVE",
"343 729 CURVE SMOOTH",
"152 729 LINE",
"24 0 LINE"
);
},
{
closed = 1;
nodes = (
"227 648 LINE",
"338 648 LINE SMOOTH",
"489 648 OFFCURVE",
"556 585 OFFCURVE",
"556 445 CURVE SMOOTH",
"556 213 OFFCURVE",
"443 81 OFFCURVE",
"244 81 CURVE SMOOTH",
"128 81 LINE"
);
}
);
width = 693;
},
{
layerId = "BED8EE44-B183-4D86-965C-1BADD1250A61";
paths = (
{
closed = 1;
nodes = (
"197 0 LINE SMOOTH",
"409 0 OFFCURVE",
"491 27 OFFCURVE",
"568 98 CURVE SMOOTH",
"656 178 OFFCURVE",
"708 300 OFFCURVE",
"708 432 CURVE SMOOTH",
"708 527 OFFCURVE",
"679 603 OFFCURVE",
"622 656 CURVE SMOOTH",
"566 708 OFFCURVE",
"494 729 OFFCURVE",
"325 729 CURVE SMOOTH",
"147 729 LINE",
"19 0 LINE"
);
},
{
closed = 1;
nodes = (
"292 587 LINE",
"351 587 LINE SMOOTH",
"470 587 OFFCURVE",
"530 528 OFFCURVE",
"530 415 CURVE SMOOTH",
"530 248 OFFCURVE",
"431 142 OFFCURVE",
"274 142 CURVE SMOOTH",
"213 142 LINE"
);
}
);
width = 747;
},
{
layerId = "99D829B7-D749-4014-BBE4-6F1A75B6E575";
paths = (
{
closed = 1;
nodes = (
"301 0 LINE SMOOTH",
"565 0 OFFCURVE",
"687 114 OFFCURVE",
"687 365 CURVE SMOOTH",
"687 490 OFFCURVE",
"656 582 OFFCURVE",
"593 641 CURVE SMOOTH",
"531 700 OFFCURVE",
"434 729 OFFCURVE",
"301 729 CURVE SMOOTH",
"122 729 LINE",
"122 0 LINE"
);
},
{
closed = 1;
nodes = (
"171 688 LINE",
"316 688 LINE SMOOTH",
"426 688 OFFCURVE",
"507 662 OFFCURVE",
"558 610 CURVE SMOOTH",
"609 558 OFFCURVE",
"635 476 OFFCURVE",
"635 364 CURVE SMOOTH",
"635 252 OFFCURVE",
"609 170 OFFCURVE",
"558 118 CURVE SMOOTH",
"507 66 OFFCURVE",
"426 40 OFFCURVE",
"316 40 CURVE SMOOTH",
"171 40 LINE"
);
}
);
width = 770;
},
{
layerId = "D5B43B4B-63DF-4B35-BEE3-B41B34784265";
paths = (
{
closed = 1;
nodes = (
"219 0 LINE SMOOTH",
"455 0 OFFCURVE",
"544 27 OFFCURVE",
"631 98 CURVE SMOOTH",
"730 178 OFFCURVE",
"786 300 OFFCURVE",
"786 432 CURVE SMOOTH",
"786 527 OFFCURVE",
"754 603 OFFCURVE",
"691 656 CURVE SMOOTH",
"628 708 OFFCURVE",
"549 729 OFFCURVE",
"361 729 CURVE SMOOTH",
"163 729 LINE",
"21 0 LINE"
);
},
{
closed = 1;
nodes = (
"324 587 LINE",
"390 587 LINE SMOOTH",
"522 587 OFFCURVE",
"589 528 OFFCURVE",
"589 415 CURVE SMOOTH",
"589 248 OFFCURVE",
"480 142 OFFCURVE",
"304 142 CURVE SMOOTH",
"237 142 LINE"
);
}
);
width = 830;
}
);
leftKerningGroup = D;
note = D;
rightKerningGroup = D;
unicode = 0044;
},
{
export = 0;
glyphname = E;
layers = (
{
layerId = "79F6B4AB-4C44-4F2D-9893-C213A8C041F5";
paths = (
{
closed = 1;
nodes = (
"511 0 LINE",
"511 83 LINE",
"177 83 LINE",
"177 347 LINE",
"490 347 LINE",
"490 430 LINE",
"177 430 LINE",
"177 646 LINE",
"503 646 LINE",
"503 729 LINE",
"88 729 LINE",
"88 0 LINE"
);
}
);
width = 568;
},
{
layerId = "EB88A49E-561A-4405-9552-C71224CBA53C";
paths = (
{
closed = 1;
nodes = (
"568 0 LINE",
"568 83 LINE",
"197 83 LINE",
"197 347 LINE",
"544 347 LINE",
"544 430 LINE",
"197 430 LINE",
"197 646 LINE",
"559 646 LINE",
"559 729 LINE",
"98 729 LINE",
"98 0 LINE"
);
}
);
width = 632;
},
{
layerId = "5297CC84-2E5E-44C2-8BD8-B52BBF62A592";
paths = (
{
closed = 1;
nodes = (
"610 0 LINE",
"610 142 LINE",
"280 142 LINE",
"280 309 LINE",
"580 309 LINE",
"580 451 LINE",
"280 451 LINE",
"280 587 LINE",
"599 587 LINE",
"599 729 LINE",
"92 729 LINE",
"92 0 LINE"
);
}
);
width = 683;
},
{
layerId = "5FB0259D-C3EC-4F0F-ABB4-6EFEC5FB1D78";
paths = (
{
closed = 1;
nodes = (
"549 0 LINE",
"549 142 LINE",
"252 142 LINE",
"252 309 LINE",
"522 309 LINE",
"522 451 LINE",
"252 451 LINE",
"252 587 LINE",
"539 587 LINE",
"539 729 LINE",
"83 729 LINE",
"83 0 LINE"
);
}
);
width = 615;
},
{
layerId = "79D829DC-9C66-44C2-8B43-D291CF08F0E9";
paths = (
{
closed = 1;
nodes = (
"497 0 LINE",
"513 83 LINE",
"142 83 LINE",
"193 347 LINE",
"541 347 LINE",
"557 430 LINE",
"209 430 LINE",
"251 646 LINE",
"614 646 LINE",
"630 729 LINE",
"169 729 LINE",
"27 0 LINE"
);
}
);
width = 632;
},
{
layerId = "217D6A7E-4635-413B-8BF5-4A1DD3DA67ED";
paths = (
{
closed = 1;
nodes = (
"447 0 LINE",
"462 83 LINE",
"128 83 LINE",
"174 347 LINE",
"487 347 LINE",
"501 430 LINE",
"188 430 LINE",
"226 646 LINE",
"552 646 LINE",
"567 729 LINE",
"152 729 LINE",
"24 0 LINE"
);
}
);
width = 568;
},
{
layerId = "BED8EE44-B183-4D86-965C-1BADD1250A61";
paths = (
{
closed = 1;
nodes = (
"485 0 LINE",
"509 142 LINE",
"213 142 LINE",
"242 309 LINE",
"512 309 LINE",
"538 451 LINE",
"267 451 LINE",
"291 587 LINE",
"578 587 LINE",
"603 729 LINE",
"147 729 LINE",
"19 0 LINE"
);
}
);
width = 615;
},
{
layerId = "99D829B7-D749-4014-BBE4-6F1A75B6E575";
paths = (
{
closed = 1;
nodes = (
"542 0 LINE",
"542 40 LINE",
"171 40 LINE",
"171 369 LINE",
"519 369 LINE",
"519 409 LINE",
"171 409 LINE",
"171 688 LINE",
"534 688 LINE",
"534 729 LINE",
"122 729 LINE",
"122 0 LINE"
);
}
);
width = 632;
},
{
layerId = "D5B43B4B-63DF-4B35-BEE3-B41B34784265";
paths = (
{
closed = 1;
nodes = (
"539 0 LINE",
"566 142 LINE",
"237 142 LINE",
"269 309 LINE",
"569 309 LINE",
"597 451 LINE",
"297 451 LINE",
"323 587 LINE",
"642 587 LINE",
"670 729 LINE",
"163 729 LINE",
"21 0 LINE"
);
}
);
width = 683;
}
);
note = E;
unicode = 0045;
},
{
export = 0;
glyphname = F;
layers = (
{
layerId = "79F6B4AB-4C44-4F2D-9893-C213A8C041F5";
paths = (
{
closed = 1;
nodes = (
"177 0 LINE",
"177 348 LINE",
"438 348 LINE",
"438 431 LINE",
"177 431 LINE",
"177 646 LINE",
"465 646 LINE",
"465 729 LINE",
"88 729 LINE",
"88 0 LINE"
);
}
);
width = 518;
},
{
layerId = "EB88A49E-561A-4405-9552-C71224CBA53C";
paths = (
{
closed = 1;
nodes = (
"197 0 LINE",
"197 348 LINE",
"486 348 LINE",
"486 431 LINE",
"197 431 LINE",
"197 646 LINE",
"517 646 LINE",
"517 729 LINE",
"98 729 LINE",
"98 0 LINE"
);
}
);
width = 575;
},
{
layerId = "5297CC84-2E5E-44C2-8BD8-B52BBF62A592";
paths = (
{
closed = 1;
nodes = (
"280 0 LINE",
"280 309 LINE",
"580 309 LINE",
"580 451 LINE",
"280 451 LINE",
"280 587 LINE",
"599 587 LINE",
"599 729 LINE",
"92 729 LINE",
"92 0 LINE"
);
}
);
width = 683;
},
{
layerId = "5FB0259D-C3EC-4F0F-ABB4-6EFEC5FB1D78";
paths = (
{
closed = 1;
nodes = (
"252 0 LINE",
"252 309 LINE",
"522 309 LINE",
"522 451 LINE",
"252 451 LINE",
"252 587 LINE",
"539 587 LINE",
"539 729 LINE",
"83 729 LINE",
"83 0 LINE"
);
}
);
width = 615;
},
{
layerId = "79D829DC-9C66-44C2-8B43-D291CF08F0E9";
paths = (
{
closed = 1;
nodes = (
"125 0 LINE",
"193 348 LINE",
"482 348 LINE",
"498 431 LINE",
"209 431 LINE",
"251 646 LINE",
"571 646 LINE",
"587 729 LINE",
"169 729 LINE",
"27 0 LINE"
);
}
);
width = 575;
},
{
layerId = "217D6A7E-4635-413B-8BF5-4A1DD3DA67ED";
paths = (
{
closed = 1;
nodes = (
"112 0 LINE",
"174 348 LINE",
"434 348 LINE",
"448 431 LINE",
"188 431 LINE",
"226 646 LINE",
"514 646 LINE",
"528 729 LINE",
"152 729 LINE",
"24 0 LINE"
);
}
);
width = 518;
},
{
layerId = "BED8EE44-B183-4D86-965C-1BADD1250A61";
paths = (
{
closed = 1;
nodes = (
"188 0 LINE",
"242 309 LINE",
"512 309 LINE",
"538 451 LINE",
"267 451 LINE",
"291 587 LINE",
"578 587 LINE",
"603 729 LINE",
"147 729 LINE",
"19 0 LINE"
);
}
);
width = 615;
},
{
layerId = "99D829B7-D749-4014-BBE4-6F1A75B6E575";
paths = (
{
closed = 1;
nodes = (
"171 0 LINE",
"171 369 LINE",
"460 369 LINE",
"460 409 LINE",
"171 409 LINE",
"171 688 LINE",
"492 688 LINE",
"492 729 LINE",
"122 729 LINE",
"122 0 LINE"
);
}
);
width = 575;
},
{
layerId = "D5B43B4B-63DF-4B35-BEE3-B41B34784265";
paths = (
{
closed = 1;
nodes = (
"209 0 LINE",
"269 309 LINE",
"569 309 LINE",
"597 451 LINE",
"297 451 LINE",
"323 587 LINE",
"642 587 LINE",
"670 729 LINE",
"163 729 LINE",
"21 0 LINE"
);
}
);
width = 683;
}
);
leftKerningGroup = F;
note = F;
rightKerningGroup = F;
unicode = 0046;
},
{
export = 0;
glyphname = G;
layers = (
{
layerId = "79F6B4AB-4C44-4F2D-9893-C213A8C041F5";
paths = (
{
closed = 1;
nodes = (
"471 -14 OFFCURVE",
"555 13 OFFCURVE",
"624 68 CURVE",
"624 381 LINE",
"391 381 LINE",
"391 300 LINE",
"536 300 LINE",
"536 104 LINE",
"496 79 OFFCURVE",
"449 67 OFFCURVE",
"385 67 CURVE SMOOTH",
"225 67 OFFCURVE",
"144 167 OFFCURVE",
"144 364 CURVE SMOOTH",
"144 561 OFFCURVE",
"225 661 OFFCURVE",
"385 661 CURVE SMOOTH",
"466 661 OFFCURVE",
"541 629 OFFCURVE",
"606 568 CURVE",
"606 673 LINE",
"542 718 OFFCURVE",
"463 742 OFFCURVE",
"378 742 CURVE SMOOTH",
"173 742 OFFCURVE",
"51 601 OFFCURVE",
"51 364 CURVE SMOOTH",
"51 127 OFFCURVE",
"173 -14 OFFCURVE",
"378 -14 CURVE SMOOTH"
);
}
);
width = 697;
},
{
layerId = "EB88A49E-561A-4405-9552-C71224CBA53C";
paths = (
{
closed = 1;
nodes = (
"524 -14 OFFCURVE",
"617 13 OFFCURVE",
"693 68 CURVE",
"693 381 LINE",
"434 381 LINE",
"434 300 LINE",
"595 300 LINE",
"595 104 LINE",
"552 79 OFFCURVE",
"497 67 OFFCURVE",
"428 67 CURVE SMOOTH",
"249 67 OFFCURVE",
"160 167 OFFCURVE",
"160 364 CURVE SMOOTH",
"160 561 OFFCURVE",
"249 661 OFFCURVE",
"428 661 CURVE SMOOTH",
"519 661 OFFCURVE",
"601 629 OFFCURVE",
"674 568 CURVE",
"674 673 LINE",
"602 718 OFFCURVE",
"515 742 OFFCURVE",
"420 742 CURVE SMOOTH",
"192 742 OFFCURVE",
"56 601 OFFCURVE",
"56 364 CURVE SMOOTH",
"56 127 OFFCURVE",
"192 -14 OFFCURVE",
"420 -14 CURVE SMOOTH"
);
}
);
width = 775;
},
{
layerId = "5297CC84-2E5E-44C2-8BD8-B52BBF62A592";
paths = (
{
closed = 1;
nodes = (
"552 -14 OFFCURVE",
"654 9 OFFCURVE",
"747 54 CURVE",
"747 405 LINE",
"454 405 LINE",
"454 279 LINE",
"569 279 LINE",
"569 137 LINE",
"542 126 OFFCURVE",
"509 122 OFFCURVE",
"469 122 CURVE SMOOTH",
"325 122 OFFCURVE",
"244 209 OFFCURVE",
"244 364 CURVE SMOOTH",
"244 519 OFFCURVE",
"329 606 OFFCURVE",
"478 606 CURVE SMOOTH",
"559 606 OFFCURVE",
"639 584 OFFCURVE",
"720 537 CURVE",
"720 688 LINE",
"641 724 OFFCURVE",
"552 742 OFFCURVE",
"455 742 CURVE SMOOTH",
"204 742 OFFCURVE",
"50 599 OFFCURVE",
"50 364 CURVE SMOOTH",
"50 131 OFFCURVE",
"202 -14 OFFCURVE",
"445 -14 CURVE SMOOTH"
);
}
);
width = 821;
},
{
layerId = "5FB0259D-C3EC-4F0F-ABB4-6EFEC5FB1D78";
paths = (
{
closed = 1;
nodes = (
"497 -14 OFFCURVE",
"588 9 OFFCURVE",
"672 54 CURVE",
"672 405 LINE",
"409 405 LINE",
"409 279 LINE",
"512 279 LINE",
"512 137 LINE",
"488 126 OFFCURVE",
"458 122 OFFCURVE",
"422 122 CURVE SMOOTH",
"293 122 OFFCURVE",
"220 209 OFFCURVE",
"220 364 CURVE SMOOTH",
"220 519 OFFCURVE",
"295 606 OFFCURVE",
"430 606 CURVE SMOOTH",
"503 606 OFFCURVE",
"575 584 OFFCURVE",
"648 537 CURVE",
"648 688 LINE",
"577 724 OFFCURVE",
"497 742 OFFCURVE",
"410 742 CURVE SMOOTH",
"183 742 OFFCURVE",
"45 599 OFFCURVE",
"45 364 CURVE SMOOTH",
"45 131 OFFCURVE",
"181 -14 OFFCURVE",
"400 -14 CURVE SMOOTH"
);
}
);
width = 738;
},
{
layerId = "79D829DC-9C66-44C2-8B43-D291CF08F0E9";
paths = (
{
closed = 1;
nodes = (
"441 -14 OFFCURVE",
"546 12 OFFCURVE",
"633 60 CURVE",
"696 381 LINE",
"437 381 LINE",
"422 300 LINE",
"584 300 LINE",
"546 109 LINE",
"491 81 OFFCURVE",
"426 66 OFFCURVE",
"357 66 CURVE SMOOTH",
"218 66 OFFCURVE",
"149 135 OFFCURVE",
"149 271 CURVE SMOOTH",
"149 370 OFFCURVE",
"181 470 OFFCURVE",
"234 541 CURVE SMOOTH",
"295 624 OFFCURVE",
"372 662 OFFCURVE",
"476 662 CURVE SMOOTH",
"565 662 OFFCURVE",
"646 629 OFFCURVE",
"705 568 CURVE",
"725 673 LINE",
"649 720 OFFCURVE",
"565 742 OFFCURVE",
"474 742 CURVE SMOOTH",
"373 742 OFFCURVE",
"291 715 OFFCURVE",
"222 658 CURVE SMOOTH",
"111 567 OFFCURVE",
"45 425 OFFCURVE",
"45 274 CURVE SMOOTH",
"45 93 OFFCURVE",
"154 -14 OFFCURVE",
"337 -14 CURVE SMOOTH"
);
}
);
width = 775;
},
{
layerId = "217D6A7E-4635-413B-8BF5-4A1DD3DA67ED";
paths = (
{
closed = 1;
nodes = (
"396 -14 OFFCURVE",
"492 12 OFFCURVE",
"569 60 CURVE",
"626 381 LINE",
"394 381 LINE",
"380 300 LINE",
"525 300 LINE",
"491 109 LINE",
"443 81 OFFCURVE",
"384 66 OFFCURVE",
"321 66 CURVE SMOOTH",
"197 66 OFFCURVE",
"134 135 OFFCURVE",
"134 271 CURVE SMOOTH",
"134 370 OFFCURVE",
"163 470 OFFCURVE",
"210 541 CURVE SMOOTH",
"266 624 OFFCURVE",
"334 662 OFFCURVE",
"429 662 CURVE SMOOTH",
"509 662 OFFCURVE",
"582 629 OFFCURVE",
"635 568 CURVE",
"652 673 LINE",
"584 720 OFFCURVE",
"508 742 OFFCURVE",
"427 742 CURVE SMOOTH",
"335 742 OFFCURVE",
"263 715 OFFCURVE",
"200 658 CURVE SMOOTH",
"100 567 OFFCURVE",
"41 425 OFFCURVE",
"41 274 CURVE SMOOTH",
"41 93 OFFCURVE",
"139 -14 OFFCURVE",
"303 -14 CURVE SMOOTH"
);
}
);
width = 697;
},
{
layerId = "BED8EE44-B183-4D86-965C-1BADD1250A61";
paths = (
{
closed = 1;
nodes = (
"437 -14 OFFCURVE",
"528 9 OFFCURVE",
"613 54 CURVE",
"674 405 LINE",
"411 405 LINE",
"390 279 LINE",
"493 279 LINE",
"468 137 LINE",
"435 126 OFFCURVE",
"402 122 OFFCURVE",
"369 122 CURVE SMOOTH",
"268 122 OFFCURVE",
"210 190 OFFCURVE",
"210 306 CURVE SMOOTH",
"210 482 OFFCURVE",
"315 606 OFFCURVE",
"466 606 CURVE SMOOTH",
"535 606 OFFCURVE",
"603 584 OFFCURVE",
"674 537 CURVE",
"700 688 LINE",
"623 724 OFFCURVE",
"541 742 OFFCURVE",
"464 742 CURVE SMOOTH",
"323 742 OFFCURVE",
"213 691 OFFCURVE",
"132 587 CURVE SMOOTH",
"67 502 OFFCURVE",
"33 397 OFFCURVE",
"33 280 CURVE SMOOTH",
"33 99 OFFCURVE",
"145 -14 OFFCURVE",
"332 -14 CURVE SMOOTH"
);
}
);
width = 738;
},
{
layerId = "99D829B7-D749-4014-BBE4-6F1A75B6E575";
paths = (
{
closed = 1;
nodes = (
"467 -13 OFFCURVE",
"512 -9 OFFCURVE",
"554 0 CURVE SMOOTH",
"595 9 OFFCURVE",
"633 22 OFFCURVE",
"668 39 CURVE",
"668 357 LINE",
"434 357 LINE",
"434 317 LINE",
"620 317 LINE",
"620 62 LINE",
"595 50 OFFCURVE",
"567 41 OFFCURVE",
"536 35 CURVE SMOOTH",
"504 30 OFFCURVE",
"468 27 OFFCURVE",
"428 27 CURVE SMOOTH",
"330 27 OFFCURVE",
"257 55 OFFCURVE",
"208 112 CURVE SMOOTH",
"159 168 OFFCURVE",
"134 252 OFFCURVE",
"134 364 CURVE SMOOTH",
"134 474 OFFCURVE",
"159 557 OFFCURVE",
"208 612 CURVE SMOOTH",
"257 667 OFFCURVE",
"330 695 OFFCURVE",
"428 695 CURVE SMOOTH",
"469 695 OFFCURVE",
"508 691 OFFCURVE",
"545 682 CURVE SMOOTH",
"583 672 OFFCURVE",
"618 658 OFFCURVE",
"651 640 CURVE",
"651 688 LINE",
"618 706 OFFCURVE",
"582 720 OFFCURVE",
"543 729 CURVE SMOOTH",
"504 738 OFFCURVE",
"463 742 OFFCURVE",
"420 742 CURVE SMOOTH",
"315 742 OFFCURVE",
"232 709 OFFCURVE",
"173 643 CURVE SMOOTH",
"113 576 OFFCURVE",
"83 483 OFFCURVE",
"83 364 CURVE SMOOTH",
"83 245 OFFCURVE",
"113 153 OFFCURVE",
"173 86 CURVE SMOOTH",
"232 19 OFFCURVE",
"315 -14 OFFCURVE",
"420 -14 CURVE SMOOTH"
);
}
);
width = 775;
},
{
layerId = "D5B43B4B-63DF-4B35-BEE3-B41B34784265";
paths = (
{
closed = 1;
nodes = (
"486 -14 OFFCURVE",
"586 9 OFFCURVE",
"681 54 CURVE",
"749 405 LINE",
"457 405 LINE",
"433 279 LINE",
"548 279 LINE",
"520 137 LINE",
"483 126 OFFCURVE",
"447 122 OFFCURVE",
"410 122 CURVE SMOOTH",
"298 122 OFFCURVE",
"234 190 OFFCURVE",
"234 306 CURVE SMOOTH",
"234 482 OFFCURVE",
"350 606 OFFCURVE",
"518 606 CURVE SMOOTH",
"595 606 OFFCURVE",
"669 584 OFFCURVE",
"749 537 CURVE",
"778 688 LINE",
"691 724 OFFCURVE",
"603 742 OFFCURVE",
"515 742 CURVE SMOOTH",
"358 742 OFFCURVE",
"236 691 OFFCURVE",
"147 587 CURVE SMOOTH",
"74 502 OFFCURVE",
"36 397 OFFCURVE",
"36 280 CURVE SMOOTH",
"36 99 OFFCURVE",
"162 -14 OFFCURVE",
"369 -14 CURVE SMOOTH"
);
}
);
width = 821;
}
);
leftKerningGroup = G;
note = G;
rightKerningGroup = G;
unicode = 0047;
},
{
export = 0;
glyphname = H;
layers = (
{
layerId = "79F6B4AB-4C44-4F2D-9893-C213A8C041F5";
paths = (
{
closed = 1;
nodes = (
"177 0 LINE",
"177 347 LINE",
"500 347 LINE",
"500 0 LINE",
"588 0 LINE",
"588 729 LINE",
"500 729 LINE",
"500 430 LINE",
"177 430 LINE",
"177 729 LINE",
"88 729 LINE",
"88 0 LINE"
);
}
);
width = 677;
},
{
layerId = "EB88A49E-561A-4405-9552-C71224CBA53C";
paths = (
{
closed = 1;
nodes = (
"197 0 LINE",
"197 347 LINE",
"555 347 LINE",
"555 0 LINE",
"654 0 LINE",
"654 729 LINE",
"555 729 LINE",
"555 430 LINE",
"197 430 LINE",
"197 729 LINE",
"98 729 LINE",
"98 0 LINE"
);
}
);
width = 752;
},
{
layerId = "5297CC84-2E5E-44C2-8BD8-B52BBF62A592";
paths = (
{
closed = 1;
nodes = (
"280 0 LINE",
"280 309 LINE",
"557 309 LINE",
"557 0 LINE",
"745 0 LINE",
"745 729 LINE",
"557 729 LINE",
"557 451 LINE",
"280 451 LINE",
"280 729 LINE",
"92 729 LINE",
"92 0 LINE"
);
}
);
width = 837;
},
{
layerId = "5FB0259D-C3EC-4F0F-ABB4-6EFEC5FB1D78";
paths = (
{
closed = 1;
nodes = (
"252 0 LINE",
"252 309 LINE",
"501 309 LINE",
"501 0 LINE",
"670 0 LINE",
"670 729 LINE",
"501 729 LINE",
"501 451 LINE",
"252 451 LINE",
"252 729 LINE",
"83 729 LINE",
"83 0 LINE"
);
}
);
width = 753;
},
{
layerId = "79D829DC-9C66-44C2-8B43-D291CF08F0E9";
paths = (
{
closed = 1;
nodes = (
"126 0 LINE",
"194 347 LINE",
"552 347 LINE",
"484 0 LINE",
"583 0 LINE",
"725 729 LINE",
"626 729 LINE",
"568 430 LINE",
"210 430 LINE",
"268 729 LINE",
"169 729 LINE",
"27 0 LINE"
);
}
);
width = 752;
},
{
layerId = "217D6A7E-4635-413B-8BF5-4A1DD3DA67ED";
paths = (
{
closed = 1;
nodes = (
"113 0 LINE",
"174 347 LINE",
"497 347 LINE",
"436 0 LINE",
"525 0 LINE",
"652 729 LINE",
"563 729 LINE",
"511 430 LINE",
"189 430 LINE",
"241 729 LINE",
"152 729 LINE",
"24 0 LINE"
);
}
);
width = 677;
},
{
layerId = "BED8EE44-B183-4D86-965C-1BADD1250A61";
paths = (
{
closed = 1;
nodes = (
"188 0 LINE",
"242 309 LINE",
"491 309 LINE",
"438 0 LINE",
"606 0 LINE",
"734 729 LINE",
"565 729 LINE",
"517 451 LINE",
"267 451 LINE",
"316 729 LINE",
"147 729 LINE",
"19 0 LINE"
);
}
);
width = 753;
},
{
layerId = "99D829B7-D749-4014-BBE4-6F1A75B6E575";
paths = (
{
closed = 1;
nodes = (
"171 0 LINE",
"171 369 LINE",
"579 369 LINE",
"579 0 LINE",
"628 0 LINE",
"628 729 LINE",
"579 729 LINE",
"579 409 LINE",
"171 409 LINE",
"171 729 LINE",
"122 729 LINE",
"122 0 LINE"
);
}
);
width = 752;
},
{
layerId = "D5B43B4B-63DF-4B35-BEE3-B41B34784265";
paths = (
{
closed = 1;
nodes = (
"209 0 LINE",
"269 309 LINE",
"546 309 LINE",
"486 0 LINE",
"674 0 LINE",
"816 729 LINE",
"628 729 LINE",
"574 451 LINE",
"297 451 LINE",
"351 729 LINE",
"163 729 LINE",
"21 0 LINE"
);
}
);
width = 837;
}
);
leftKerningGroup = F;
note = H;
rightKerningGroup = H;
unicode = 0048;
},
{
export = 0;
glyphname = I;
layers = (
{
layerId = "79F6B4AB-4C44-4F2D-9893-C213A8C041F5";
paths = (
{
closed = 1;
nodes = (
"177 0 LINE",
"177 729 LINE",
"88 729 LINE",
"88 0 LINE"
);
}
);
width = 265;
},
{
layerId = "EB88A49E-561A-4405-9552-C71224CBA53C";
paths = (
{
closed = 1;
nodes = (
"197 0 LINE",
"197 729 LINE",
"98 729 LINE",
"98 0 LINE"
);
}
);
width = 295;
},
{
layerId = "5297CC84-2E5E-44C2-8BD8-B52BBF62A592";
paths = (
{
closed = 1;
nodes = (
"280 0 LINE",
"280 729 LINE",
"92 729 LINE",
"92 0 LINE"
);
}
);
width = 372;
},
{
layerId = "5FB0259D-C3EC-4F0F-ABB4-6EFEC5FB1D78";
paths = (
{
closed = 1;
nodes = (
"252 0 LINE",
"252 729 LINE",
"83 729 LINE",
"83 0 LINE"
);
}
);
width = 334;
},
{
layerId = "79D829DC-9C66-44C2-8B43-D291CF08F0E9";
paths = (
{
closed = 1;
nodes = (
"126 0 LINE",
"268 729 LINE",
"169 729 LINE",
"27 0 LINE"
);
}
);
width = 295;
},
{
layerId = "217D6A7E-4635-413B-8BF5-4A1DD3DA67ED";
paths = (
{
closed = 1;
nodes = (
"113 0 LINE",
"241 729 LINE",
"152 729 LINE",
"24 0 LINE"
);
}
);
width = 265;
},
{
layerId = "BED8EE44-B183-4D86-965C-1BADD1250A61";
paths = (
{
closed = 1;
nodes = (
"188 0 LINE",
"316 729 LINE",
"147 729 LINE",
"19 0 LINE"
);
}
);
width = 334;
},
{
layerId = "99D829B7-D749-4014-BBE4-6F1A75B6E575";
paths = (
{
closed = 1;
nodes = (
"172 0 LINE",
"172 729 LINE",
"121 729 LINE",
"121 0 LINE"
);
}
);
width = 295;
},
{
layerId = "D5B43B4B-63DF-4B35-BEE3-B41B34784265";
paths = (
{
closed = 1;
nodes = (
"209 0 LINE",
"351 729 LINE",
"163 729 LINE",
"21 0 LINE"
);
}
);
width = 372;
}
);
note = I;
unicode = 0049;
},
{
export = 0;
glyphname = I.alt;
layers = (
{
layerId = "79F6B4AB-4C44-4F2D-9893-C213A8C041F5";
paths = (
{
closed = 1;
nodes = (
"333 0 LINE",
"333 83 LINE",
"244 83 LINE",
"244 646 LINE",
"333 646 LINE",
"333 729 LINE",
"66 729 LINE",
"66 646 LINE",
"155 646 LINE",
"155 83 LINE",
"67 83 LINE",
"67 0 LINE"
);
}
);
width = 399;
},
{
layerId = "EB88A49E-561A-4405-9552-C71224CBA53C";
paths = (
{
closed = 1;
nodes = (
"370 0 LINE",
"370 83 LINE",
"271 83 LINE",
"271 646 LINE",
"370 646 LINE",
"370 729 LINE",
"74 729 LINE",
"74 646 LINE",
"172 646 LINE",
"172 83 LINE",
"74 83 LINE",
"74 0 LINE"
);
}
);
width = 443;
},
{
layerId = "5297CC84-2E5E-44C2-8BD8-B52BBF62A592";
paths = (
{
closed = 1;
nodes = (
"448 0 LINE",
"448 142 LINE",
"350 142 LINE",
"350 587 LINE",
"448 587 LINE",
"448 729 LINE",
"64 729 LINE",
"64 587 LINE",
"162 587 LINE",
"162 142 LINE",
"64 142 LINE",
"64 0 LINE"
);
}
);
width = 513;
},
{
layerId = "5FB0259D-C3EC-4F0F-ABB4-6EFEC5FB1D78";
paths = (
{
closed = 1;
nodes = (
"403 0 LINE",
"403 142 LINE",
"314 142 LINE",
"314 587 LINE",
"403 587 LINE",
"403 729 LINE",
"58 729 LINE",
"58 587 LINE",
"146 587 LINE",
"146 142 LINE",
"58 142 LINE",
"58 0 LINE"
);
}
);
width = 461;
},
{
layerId = "79D829DC-9C66-44C2-8B43-D291CF08F0E9";
paths = (
{
closed = 1;
nodes = (
"299 0 LINE",
"315 83 LINE",
"216 83 LINE",
"326 646 LINE",
"424 646 LINE",
"440 729 LINE",
"144 729 LINE",
"128 646 LINE",
"227 646 LINE",
"117 83 LINE",
"19 83 LINE",
"3 0 LINE"
);
}
);
width = 443;
},
{
layerId = "217D6A7E-4635-413B-8BF5-4A1DD3DA67ED";
paths = (
{
closed = 1;
nodes = (
"269 0 LINE",
"283 83 LINE",
"195 83 LINE",
"293 646 LINE",
"381 646 LINE",
"396 729 LINE",
"130 729 LINE",
"115 646 LINE",
"204 646 LINE",
"105 83 LINE",
"17 83 LINE",
"2 0 LINE"
);
}
);
width = 399;
},
{
layerId = "BED8EE44-B183-4D86-965C-1BADD1250A61";
paths = (
{
closed = 1;
nodes = (
"340 0 LINE",
"365 142 LINE",
"276 142 LINE",
"354 587 LINE",
"442 587 LINE",
"468 729 LINE",
"122 729 LINE",
"97 587 LINE",
"185 587 LINE",
"107 142 LINE",
"20 142 LINE",
"-5 0 LINE"
);
}
);
width = 461;
},
{
layerId = "D5B43B4B-63DF-4B35-BEE3-B41B34784265";
paths = (
{
closed = 1;
nodes = (
"377 0 LINE",
"405 142 LINE",
"307 142 LINE",
"393 587 LINE",
"491 587 LINE",
"519 729 LINE",
"135 729 LINE",
"107 587 LINE",
"205 587 LINE",
"119 142 LINE",
"21 142 LINE",
"-6 0 LINE"
);
}
);
width = 513;
},
{
layerId = "99D829B7-D749-4014-BBE4-6F1A75B6E575";
width = 600;
}
);
note = I.alt;
},
{
export = 0;
glyphname = J;
layers = (
{
layerId = "79F6B4AB-4C44-4F2D-9893-C213A8C041F5";
paths = (
{
closed = 1;
nodes = (
"-12 -200 LINE SMOOTH",
"120 -200 OFFCURVE",
"178 -125 OFFCURVE",
"178 51 CURVE SMOOTH",
"178 729 LINE",
"89 729 LINE",
"89 51 LINE SMOOTH",
"89 -76 OFFCURVE",
"61 -117 OFFCURVE",
"-19 -117 CURVE SMOOTH",
"-46 -117 LINE",
"-46 -200 LINE"
);
}
);
width = 265;
},
{
layerId = "EB88A49E-561A-4405-9552-C71224CBA53C";
paths = (
{
closed = 1;
nodes = (
"-14 -200 LINE SMOOTH",
"134 -200 OFFCURVE",
"197 -125 OFFCURVE",
"197 51 CURVE SMOOTH",
"197 729 LINE",
"98 729 LINE",
"98 51 LINE SMOOTH",
"98 -76 OFFCURVE",
"66 -117 OFFCURVE",
"-21 -117 CURVE SMOOTH",
"-52 -117 LINE",
"-52 -200 LINE"
);
}
);
width = 295;
},
{
layerId = "5297CC84-2E5E-44C2-8BD8-B52BBF62A592";
paths = (
{
closed = 1;
nodes = (
"-18 -200 LINE SMOOTH",
"182 -200 OFFCURVE",
"280 -110 OFFCURVE",
"280 71 CURVE SMOOTH",
"280 729 LINE",
"92 729 LINE",
"92 71 LINE SMOOTH",
"92 -14 OFFCURVE",
"52 -58 OFFCURVE",
"-27 -58 CURVE SMOOTH",
"-56 -58 LINE",
"-56 -200 LINE"
);
}
);
width = 372;
},
{
layerId = "5FB0259D-C3EC-4F0F-ABB4-6EFEC5FB1D78";
paths = (
{
closed = 1;
nodes = (
"-16 -200 LINE SMOOTH",
"164 -200 OFFCURVE",
"252 -110 OFFCURVE",
"252 71 CURVE SMOOTH",
"252 729 LINE",
"83 729 LINE",
"83 71 LINE SMOOTH",
"83 -14 OFFCURVE",
"47 -58 OFFCURVE",
"-24 -58 CURVE SMOOTH",
"-50 -58 LINE",
"-50 -200 LINE"
);
}
);
width = 334;
},
{
layerId = "79D829DC-9C66-44C2-8B43-D291CF08F0E9";
paths = (
{
closed = 1;
nodes = (
"-125 -200 LINE SMOOTH",
"22 -200 OFFCURVE",
"99 -126 OFFCURVE",
"134 51 CURVE SMOOTH",
"266 729 LINE",
"167 729 LINE",
"35 51 LINE SMOOTH",
"11 -73 OFFCURVE",
"-29 -117 OFFCURVE",
"-117 -117 CURVE SMOOTH",
"-148 -117 LINE",
"-164 -200 LINE"
);
}
);
width = 295;
},
{
layerId = "217D6A7E-4635-413B-8BF5-4A1DD3DA67ED";
paths = (
{
closed = 1;
nodes = (
"-112 -200 LINE SMOOTH",
"20 -200 OFFCURVE",
"90 -126 OFFCURVE",
"121 51 CURVE SMOOTH",
"240 729 LINE",
"151 729 LINE",
"32 51 LINE SMOOTH",
"11 -73 OFFCURVE",
"-25 -117 OFFCURVE",
"-105 -117 CURVE SMOOTH",
"-133 -117 LINE",
"-147 -200 LINE"
);
}
);
width = 265;
},
{
layerId = "BED8EE44-B183-4D86-965C-1BADD1250A61";
paths = (
{
closed = 1;
nodes = (
"-115 -200 LINE SMOOTH",
"73 -200 OFFCURVE",
"166 -120 OFFCURVE",
"201 71 CURVE SMOOTH",
"316 729 LINE",
"147 729 LINE",
"32 71 LINE SMOOTH",
"17 -13 OFFCURVE",
"-29 -58 OFFCURVE",
"-98 -58 CURVE SMOOTH",
"-125 -58 LINE",
"-149 -200 LINE"
);
}
);
width = 334;
},
{
layerId = "99D829B7-D749-4014-BBE4-6F1A75B6E575";
paths = (
{
closed = 1;
nodes = (
"35 -178 LINE SMOOTH",
"130 -178 OFFCURVE",
"171 -109 OFFCURVE",
"171 51 CURVE SMOOTH",
"171 729 LINE",
"122 729 LINE",
"122 51 LINE SMOOTH",
"122 -20 OFFCURVE",
"115 -69 OFFCURVE",
"101 -96 CURVE SMOOTH",
"87 -123 OFFCURVE",
"63 -137 OFFCURVE",
"29 -137 CURVE SMOOTH",
"5 -137 LINE",
"5 -178 LINE"
);
}
);
width = 295;
},
{
layerId = "D5B43B4B-63DF-4B35-BEE3-B41B34784265";
paths = (
{
closed = 1;
nodes = (
"-128 -200 LINE SMOOTH",
"81 -200 OFFCURVE",
"186 -120 OFFCURVE",
"223 71 CURVE SMOOTH",
"351 729 LINE",
"163 729 LINE",
"35 71 LINE SMOOTH",
"19 -13 OFFCURVE",
"-32 -58 OFFCURVE",
"-109 -58 CURVE SMOOTH",
"-138 -58 LINE",
"-166 -200 LINE"
);
}
);
width = 372;
}
);
leftKerningGroup = J;
note = J;
rightKerningGroup = J;
unicode = 004A;
},
{
export = 0;
glyphname = J.alt;
layers = (
{
layerId = "79F6B4AB-4C44-4F2D-9893-C213A8C041F5";
paths = (
{
closed = 1;
nodes = (
"315 -14 OFFCURVE",
"372 54 OFFCURVE",
"372 238 CURVE SMOOTH",
"372 729 LINE",
"283 729 LINE",
"283 238 LINE SMOOTH",
"283 106 OFFCURVE",
"255 66 OFFCURVE",
"171 66 CURVE SMOOTH",
"110 66 OFFCURVE",
"53 92 OFFCURVE",
"0 145 CURVE",
"0 30 LINE",
"60 -1 OFFCURVE",
"115 -14 OFFCURVE",
"171 -14 CURVE SMOOTH"
);
}
);
width = 460;
},
{
layerId = "EB88A49E-561A-4405-9552-C71224CBA53C";
paths = (
{
closed = 1;
nodes = (
"351 -14 OFFCURVE",
"414 54 OFFCURVE",
"414 238 CURVE SMOOTH",
"414 729 LINE",
"315 729 LINE",
"315 238 LINE SMOOTH",
"315 106 OFFCURVE",
"283 66 OFFCURVE",
"190 66 CURVE SMOOTH",
"122 66 OFFCURVE",
"59 92 OFFCURVE",
"0 145 CURVE",
"0 30 LINE",
"67 -1 OFFCURVE",
"127 -14 OFFCURVE",
"190 -14 CURVE SMOOTH"
);
}
);
width = 512;
},
{
layerId = "5297CC84-2E5E-44C2-8BD8-B52BBF62A592";
paths = (
{
closed = 1;
nodes = (
"370 -14 OFFCURVE",
"439 57 OFFCURVE",
"439 234 CURVE SMOOTH",
"439 729 LINE",
"251 729 LINE",
"251 248 LINE SMOOTH",
"251 165 OFFCURVE",
"222 129 OFFCURVE",
"158 129 CURVE SMOOTH",
"103 129 OFFCURVE",
"48 160 OFFCURVE",
"0 217 CURVE",
"0 36 LINE",
"68 3 OFFCURVE",
"136 -14 OFFCURVE",
"199 -14 CURVE SMOOTH"
);
}
);
width = 530;
},
{
layerId = "5FB0259D-C3EC-4F0F-ABB4-6EFEC5FB1D78";
paths = (
{
closed = 1;
nodes = (
"332 -14 OFFCURVE",
"395 57 OFFCURVE",
"395 234 CURVE SMOOTH",
"395 729 LINE",
"226 729 LINE",
"226 248 LINE SMOOTH",
"226 165 OFFCURVE",
"201 129 OFFCURVE",
"142 129 CURVE SMOOTH",
"93 129 OFFCURVE",
"43 160 OFFCURVE",
"0 217 CURVE",
"0 36 LINE",
"61 3 OFFCURVE",
"123 -14 OFFCURVE",
"179 -14 CURVE SMOOTH"
);
}
);
width = 477;
},
{
layerId = "79D829DC-9C66-44C2-8B43-D291CF08F0E9";
paths = (
{
closed = 1;
nodes = (
"348 -14 OFFCURVE",
"424 54 OFFCURVE",
"460 238 CURVE SMOOTH",
"555 729 LINE",
"457 729 LINE",
"361 238 LINE SMOOTH",
"336 106 OFFCURVE",
"295 66 OFFCURVE",
"203 66 CURVE SMOOTH",
"135 66 OFFCURVE",
"77 92 OFFCURVE",
"28 145 CURVE",
"6 30 LINE",
"67 -1 OFFCURVE",
"124 -14 OFFCURVE",
"187 -14 CURVE SMOOTH"
);
}
);
width = 512;
},
{
layerId = "217D6A7E-4635-413B-8BF5-4A1DD3DA67ED";
paths = (
{
closed = 1;
nodes = (
"313 -14 OFFCURVE",
"382 54 OFFCURVE",
"414 238 CURVE SMOOTH",
"500 729 LINE",
"411 729 LINE",
"325 238 LINE SMOOTH",
"302 106 OFFCURVE",
"266 66 OFFCURVE",
"183 66 CURVE SMOOTH",
"122 66 OFFCURVE",
"70 92 OFFCURVE",
"25 145 CURVE",
"5 30 LINE",
"60 -1 OFFCURVE",
"112 -14 OFFCURVE",
"168 -14 CURVE SMOOTH"
);
}
);
width = 460;
},
{
layerId = "BED8EE44-B183-4D86-965C-1BADD1250A61";
paths = (
{
closed = 1;
nodes = (
"331 -14 OFFCURVE",
"405 57 OFFCURVE",
"436 234 CURVE SMOOTH",
"522 729 LINE",
"354 729 LINE",
"269 248 LINE SMOOTH",
"254 165 OFFCURVE",
"222 129 OFFCURVE",
"165 129 CURVE SMOOTH",
"114 129 OFFCURVE",
"71 160 OFFCURVE",
"38 217 CURVE",
"6 36 LINE",
"62 3 OFFCURVE",
"121 -14 OFFCURVE",
"176 -14 CURVE SMOOTH"
);
}
);
width = 477;
},
{
layerId = "99D829B7-D749-4014-BBE4-6F1A75B6E575";
paths = (
{
closed = 1;
nodes = (
"351 -14 OFFCURVE",
"389 54 OFFCURVE",
"389 238 CURVE SMOOTH",
"389 729 LINE",
"339 729 LINE",
"339 238 LINE SMOOTH",
"339 71 OFFCURVE",
"318 27 OFFCURVE",
"190 27 CURVE SMOOTH",
"122 27 OFFCURVE",
"59 39 OFFCURVE",
"0 91 CURVE",
"0 30 LINE",
"67 -1 OFFCURVE",
"127 -14 OFFCURVE",
"190 -14 CURVE SMOOTH"
);
}
);
width = 512;
},
{
layerId = "D5B43B4B-63DF-4B35-BEE3-B41B34784265";
paths = (
{
closed = 1;
nodes = (
"367 -14 OFFCURVE",
"449 57 OFFCURVE",
"484 234 CURVE SMOOTH",
"581 729 LINE",
"393 729 LINE",
"299 248 LINE SMOOTH",
"283 165 OFFCURVE",
"247 129 OFFCURVE",
"183 129 CURVE SMOOTH",
"128 129 OFFCURVE",
"78 160 OFFCURVE",
"42 217 CURVE",
"7 36 LINE",
"68 3 OFFCURVE",
"133 -14 OFFCURVE",
"196 -14 CURVE SMOOTH"
);
}
);
width = 530;
}
);
note = J.alt;
},
{
export = 0;
glyphname = K;
layers = (
{
layerId = "79F6B4AB-4C44-4F2D-9893-C213A8C041F5";
paths = (
{
closed = 1;
nodes = (
"177 0 LINE",
"177 351 LINE",
"492 0 LINE",
"609 0 LINE",
"260 389 LINE",
"586 729 LINE",
"472 729 LINE",
"177 421 LINE",
"177 729 LINE",
"88 729 LINE",
"88 0 LINE"
);
}
);
width = 590;
},
{
layerId = "EB88A49E-561A-4405-9552-C71224CBA53C";
paths = (
{
closed = 1;
nodes = (
"197 0 LINE",
"197 351 LINE",
"547 0 LINE",
"677 0 LINE",
"289 389 LINE",
"651 729 LINE",
"524 729 LINE",
"197 421 LINE",
"197 729 LINE",
"98 729 LINE",
"98 0 LINE"
);
}
);
width = 656;
},
{
layerId = "5297CC84-2E5E-44C2-8BD8-B52BBF62A592";
paths = (
{
closed = 1;
nodes = (
"280 0 LINE",
"280 287 LINE",
"570 0 LINE",
"805 0 LINE",
"418 384 LINE",
"769 729 LINE",
"551 729 LINE",
"280 463 LINE",
"280 729 LINE",
"92 729 LINE",
"92 0 LINE"
);
}
);
width = 775;
},
{
layerId = "5FB0259D-C3EC-4F0F-ABB4-6EFEC5FB1D78";
paths = (
{
closed = 1;
nodes = (
"252 0 LINE",
"252 287 LINE",
"513 0 LINE",
"725 0 LINE",
"376 384 LINE",
"692 729 LINE",
"496 729 LINE",
"252 463 LINE",
"252 729 LINE",
"83 729 LINE",
"83 0 LINE"
);
}
);
width = 697;
},
{
layerId = "79D829DC-9C66-44C2-8B43-D291CF08F0E9";
paths = (
{
closed = 1;
nodes = (
"126 0 LINE",
"195 355 LINE",
"486 0 LINE",
"606 0 LINE",
"289 381 LINE",
"722 729 LINE",
"591 729 LINE",
"208 422 LINE",
"268 729 LINE",
"169 729 LINE",
"27 0 LINE"
);
}
);
width = 656;
},
{
layerId = "217D6A7E-4635-413B-8BF5-4A1DD3DA67ED";
paths = (
{
closed = 1;
nodes = (
"113 0 LINE",
"175 355 LINE",
"438 0 LINE",
"545 0 LINE",
"260 381 LINE",
"650 729 LINE",
"532 729 LINE",
"187 422 LINE",
"241 729 LINE",
"152 729 LINE",
"24 0 LINE"
);
}
);
width = 590;
},
{
layerId = "BED8EE44-B183-4D86-965C-1BADD1250A61";
paths = (
{
closed = 1;
nodes = (
"188 0 LINE",
"241 304 LINE",
"462 0 LINE",
"661 0 LINE",
"377 375 LINE",
"753 729 LINE",
"549 729 LINE",
"270 467 LINE",
"316 729 LINE",
"147 729 LINE",
"19 0 LINE"
);
}
);
width = 697;
},
{
layerId = "99D829B7-D749-4014-BBE4-6F1A75B6E575";
paths = (
{
closed = 1;
nodes = (
"221 0 LINE",
"221 360 LINE",
"580 0 LINE",
"644 0 LINE",
"258 388 LINE",
"620 729 LINE",
"555 729 LINE",
"221 415 LINE",
"221 729 LINE",
"173 729 LINE",
"173 0 LINE"
);
}
);
width = 656;
},
{
layerId = "D5B43B4B-63DF-4B35-BEE3-B41B34784265";
paths = (
{
closed = 1;
nodes = (
"209 0 LINE",
"268 304 LINE",
"513 0 LINE",
"734 0 LINE",
"419 375 LINE",
"837 729 LINE",
"610 729 LINE",
"300 467 LINE",
"351 729 LINE",
"163 729 LINE",
"21 0 LINE"
);
}
);
width = 775;
}
);
leftKerningGroup = F;
note = K;
rightKerningGroup = K;
unicode = 004B;
},
{
export = 0;
glyphname = L;
layers = (
{
layerId = "79F6B4AB-4C44-4F2D-9893-C213A8C041F5";
paths = (
{
closed = 1;
nodes = (
"497 0 LINE",
"497 83 LINE",
"177 83 LINE",
"177 729 LINE",
"88 729 LINE",
"88 0 LINE"
);
}
);
width = 501;
},
{
layerId = "EB88A49E-561A-4405-9552-C71224CBA53C";
paths = (
{
closed = 1;
nodes = (
"552 0 LINE",
"552 83 LINE",
"197 83 LINE",
"197 729 LINE",
"98 729 LINE",
"98 0 LINE"
);
}
);
width = 557;
},
{
layerId = "5297CC84-2E5E-44C2-8BD8-B52BBF62A592";
paths = (
{
closed = 1;
nodes = (
"610 0 LINE",
"610 142 LINE",
"280 142 LINE",
"280 729 LINE",
"92 729 LINE",
"92 0 LINE"
);
}
);
width = 637;
},
{
layerId = "5FB0259D-C3EC-4F0F-ABB4-6EFEC5FB1D78";
paths = (
{
closed = 1;
nodes = (
"549 0 LINE",
"549 142 LINE",
"252 142 LINE",
"252 729 LINE",
"83 729 LINE",
"83 0 LINE"
);
}
);
width = 573;
},
{
layerId = "79D829DC-9C66-44C2-8B43-D291CF08F0E9";
paths = (
{
closed = 1;
nodes = (
"481 0 LINE",
"497 82 LINE",
"142 82 LINE",
"267 729 LINE",
"168 729 LINE",
"27 0 LINE"
);
}
);
width = 557;
},
{
layerId = "217D6A7E-4635-413B-8BF5-4A1DD3DA67ED";
paths = (
{
closed = 1;
nodes = (
"433 0 LINE",
"447 82 LINE",
"128 82 LINE",
"240 729 LINE",
"151 729 LINE",
"24 0 LINE"
);
}
);
width = 501;
},
{
layerId = "BED8EE44-B183-4D86-965C-1BADD1250A61";
paths = (
{
closed = 1;
nodes = (
"485 0 LINE",
"509 142 LINE",
"213 142 LINE",
"316 729 LINE",
"147 729 LINE",
"19 0 LINE"
);
}
);
width = 573;
},
{
layerId = "99D829B7-D749-4014-BBE4-6F1A75B6E575";
paths = (
{
closed = 1;
nodes = (
"526 0 LINE",
"526 40 LINE",
"171 40 LINE",
"171 729 LINE",
"122 729 LINE",
"122 0 LINE"
);
}
);
width = 557;
},
{
layerId = "D5B43B4B-63DF-4B35-BEE3-B41B34784265";
paths = (
{
closed = 1;
nodes = (
"539 0 LINE",
"566 142 LINE",
"237 142 LINE",
"351 729 LINE",
"163 729 LINE",
"21 0 LINE"
);
}
);
width = 637;
}
);
leftKerningGroup = F;
note = L;
rightKerningGroup = L;
unicode = 004C;
},
{
export = 0;
glyphname = M;
layers = (
{
layerId = "79F6B4AB-4C44-4F2D-9893-C213A8C041F5";
paths = (
{
closed = 1;
nodes = (
"174 0 LINE",
"174 640 LINE",
"344 140 LINE",
"433 140 LINE",
"602 640 LINE",
"602 0 LINE",
"688 0 LINE",
"688 729 LINE",
"556 729 LINE",
"388 233 LINE",
"221 729 LINE",
"88 729 LINE",
"88 0 LINE"
);
}
);
width = 776;
},
{
layerId = "EB88A49E-561A-4405-9552-C71224CBA53C";
paths = (
{
closed = 1;
nodes = (
"194 0 LINE",
"194 640 LINE",
"382 140 LINE",
"481 140 LINE",
"669 640 LINE",
"669 0 LINE",
"765 0 LINE",
"765 729 LINE",
"618 729 LINE",
"431 233 LINE",
"245 729 LINE",
"98 729 LINE",
"98 0 LINE"
);
}
);
width = 863;
},
{
layerId = "5297CC84-2E5E-44C2-8BD8-B52BBF62A592";
paths = (
{
closed = 1;
nodes = (
"270 0 LINE",
"270 533 LINE",
"438 140 LINE",
"557 140 LINE",
"725 533 LINE",
"725 0 LINE",
"903 0 LINE",
"903 729 LINE",
"664 729 LINE",
"497 339 LINE",
"331 729 LINE",
"92 729 LINE",
"92 0 LINE"
);
}
);
width = 995;
},
{
layerId = "5FB0259D-C3EC-4F0F-ABB4-6EFEC5FB1D78";
paths = (
{
closed = 1;
nodes = (
"243 0 LINE",
"243 533 LINE",
"394 140 LINE",
"501 140 LINE",
"652 533 LINE",
"652 0 LINE",
"813 0 LINE",
"813 729 LINE",
"598 729 LINE",
"447 339 LINE",
"298 729 LINE",
"83 729 LINE",
"83 0 LINE"
);
}
);
width = 896;
},
{
layerId = "79D829DC-9C66-44C2-8B43-D291CF08F0E9";
paths = (
{
closed = 1;
nodes = (
"123 0 LINE",
"247 641 LINE",
"340 140 LINE",
"436 140 LINE",
"722 639 LINE",
"598 0 LINE",
"694 0 LINE",
"836 729 LINE",
"684 729 LINE",
"402 238 LINE",
"317 729 LINE",
"169 729 LINE",
"27 0 LINE"
);
}
);
width = 863;
},
{
layerId = "217D6A7E-4635-413B-8BF5-4A1DD3DA67ED";
paths = (
{
closed = 1;
nodes = (
"111 0 LINE",
"222 641 LINE",
"306 140 LINE",
"393 140 LINE",
"650 639 LINE",
"538 0 LINE",
"625 0 LINE",
"752 729 LINE",
"616 729 LINE",
"362 238 LINE",
"285 729 LINE",
"152 729 LINE",
"24 0 LINE"
);
}
);
width = 776;
},
{
layerId = "BED8EE44-B183-4D86-965C-1BADD1250A61";
paths = (
{
closed = 1;
nodes = (
"179 0 LINE",
"273 538 LINE",
"363 140 LINE",
"455 140 LINE",
"682 538 LINE",
"588 0 LINE",
"749 0 LINE",
"877 729 LINE",
"661 729 LINE",
"439 342 LINE",
"354 729 LINE",
"147 729 LINE",
"19 0 LINE"
);
}
);
width = 896;
},
{
layerId = "99D829B7-D749-4014-BBE4-6F1A75B6E575";
paths = (
{
closed = 1;
nodes = (
"210 0 LINE",
"210 640 LINE",
"397 140 LINE",
"465 140 LINE",
"652 640 LINE",
"652 0 LINE",
"702 0 LINE",
"702 729 LINE",
"635 729 LINE",
"431 188 LINE",
"229 729 LINE",
"161 729 LINE",
"161 0 LINE"
);
}
);
width = 863;
},
{
layerId = "D5B43B4B-63DF-4B35-BEE3-B41B34784265";
paths = (
{
closed = 1;
nodes = (
"199 0 LINE",
"303 538 LINE",
"404 140 LINE",
"505 140 LINE",
"758 538 LINE",
"654 0 LINE",
"832 0 LINE",
"974 729 LINE",
"734 729 LINE",
"488 342 LINE",
"394 729 LINE",
"163 729 LINE",
"21 0 LINE"
);
}
);
width = 995;
}
);
note = M;
unicode = 004D;
},
{
export = 0;
glyphname = N;
layers = (
{
layerId = "79F6B4AB-4C44-4F2D-9893-C213A8C041F5";
paths = (
{
closed = 1;
nodes = (
"174 0 LINE",
"174 610 LINE",
"465 0 LINE",
"585 0 LINE",
"585 729 LINE",
"499 729 LINE",
"499 119 LINE",
"208 729 LINE",
"88 729 LINE",
"88 0 LINE"
);
}
);
width = 673;
},
{
layerId = "EB88A49E-561A-4405-9552-C71224CBA53C";
paths = (
{
closed = 1;
nodes = (
"194 0 LINE",
"194 610 LINE",
"517 0 LINE",
"650 0 LINE",
"650 729 LINE",
"554 729 LINE",
"554 119 LINE",
"231 729 LINE",
"98 729 LINE",
"98 0 LINE"
);
}
);
width = 748;
},
{
layerId = "5297CC84-2E5E-44C2-8BD8-B52BBF62A592";
paths = (
{
closed = 1;
nodes = (
"270 0 LINE",
"270 500 LINE",
"535 0 LINE",
"745 0 LINE",
"745 729 LINE",
"567 729 LINE",
"567 229 LINE",
"302 729 LINE",
"92 729 LINE",
"92 0 LINE"
);
}
);
width = 837;
},
{
layerId = "5FB0259D-C3EC-4F0F-ABB4-6EFEC5FB1D78";
paths = (
{
closed = 1;
nodes = (
"243 0 LINE",
"243 500 LINE",
"481 0 LINE",
"670 0 LINE",
"670 729 LINE",
"510 729 LINE",
"510 229 LINE",
"271 729 LINE",
"83 729 LINE",
"83 0 LINE"
);
}
);
width = 753;
},
{
layerId = "79D829DC-9C66-44C2-8B43-D291CF08F0E9";
paths = (
{
closed = 1;
nodes = (
"123 0 LINE",
"245 629 LINE",
"446 0 LINE",
"579 0 LINE",
"721 729 LINE",
"625 729 LINE",
"503 104 LINE",
"302 729 LINE",
"169 729 LINE",
"27 0 LINE"
);
}
);
width = 748;
},
{
layerId = "217D6A7E-4635-413B-8BF5-4A1DD3DA67ED";
paths = (
{
closed = 1;
nodes = (
"111 0 LINE",
"221 629 LINE",
"401 0 LINE",
"521 0 LINE",
"649 729 LINE",
"563 729 LINE",
"453 104 LINE",
"271 729 LINE",
"152 729 LINE",
"24 0 LINE"
);
}
);
width = 673;
},
{
layerId = "BED8EE44-B183-4D86-965C-1BADD1250A61";
paths = (
{
closed = 1;
nodes = (
"179 0 LINE",
"267 505 LINE",
"417 0 LINE",
"606 0 LINE",
"734 729 LINE",
"574 729 LINE",
"486 224 LINE",
"336 729 LINE",
"147 729 LINE",
"19 0 LINE"
);
}
);
width = 753;
},
{
layerId = "99D829B7-D749-4014-BBE4-6F1A75B6E575";
paths = (
{
closed = 1;
nodes = (
"171 0 LINE",
"171 671 LINE",
"526 0 LINE",
"596 0 LINE",
"596 729 LINE",
"547 729 LINE",
"547 63 LINE",
"193 729 LINE",
"121 729 LINE",
"121 0 LINE"
);
}
);
width = 748;
},
{
layerId = "D5B43B4B-63DF-4B35-BEE3-B41B34784265";
paths = (
{
closed = 1;
nodes = (
"199 0 LINE",
"297 505 LINE",
"464 0 LINE",
"674 0 LINE",
"816 729 LINE",
"638 729 LINE",
"540 224 LINE",
"373 729 LINE",
"163 729 LINE",
"21 0 LINE"
);
}
);
width = 837;
}
);
note = N;
unicode = 004E;
},
{
export = 0;
glyphname = O;
layers = (
{
layerId = "79F6B4AB-4C44-4F2D-9893-C213A8C041F5";
paths = (
{
closed = 1;
nodes = (
"539 -14 OFFCURVE",
"658 133 OFFCURVE",
"658 364 CURVE SMOOTH",
"658 595 OFFCURVE",
"539 742 OFFCURVE",
"354 742 CURVE SMOOTH",
"170 742 OFFCURVE",
"51 595 OFFCURVE",
"51 364 CURVE SMOOTH",
"51 133 OFFCURVE",
"170 -14 OFFCURVE",
"354 -14 CURVE SMOOTH"
);
},
{
closed = 1;
nodes = (
"226 66 OFFCURVE",
"144 180 OFFCURVE",
"144 364 CURVE SMOOTH",
"144 548 OFFCURVE",
"226 662 OFFCURVE",
"354 662 CURVE SMOOTH",
"483 662 OFFCURVE",
"564 548 OFFCURVE",
"564 364 CURVE SMOOTH",
"564 180 OFFCURVE",
"483 66 OFFCURVE",
"354 66 CURVE SMOOTH"
);
}
);
width = 708;
},
{
layerId = "EB88A49E-561A-4405-9552-C71224CBA53C";
paths = (
{
closed = 1;
nodes = (
"598 -14 OFFCURVE",
"731 133 OFFCURVE",
"731 364 CURVE SMOOTH",
"731 595 OFFCURVE",
"598 742 OFFCURVE",
"394 742 CURVE SMOOTH",
"189 742 OFFCURVE",
"56 595 OFFCURVE",
"56 364 CURVE SMOOTH",
"56 133 OFFCURVE",
"189 -14 OFFCURVE",
"394 -14 CURVE SMOOTH"
);
},
{
closed = 1;
nodes = (
"251 66 OFFCURVE",
"160 180 OFFCURVE",
"160 364 CURVE SMOOTH",
"160 548 OFFCURVE",
"251 662 OFFCURVE",
"394 662 CURVE SMOOTH",
"537 662 OFFCURVE",
"627 548 OFFCURVE",
"627 364 CURVE SMOOTH",
"627 180 OFFCURVE",
"537 66 OFFCURVE",
"394 66 CURVE SMOOTH"
);
}
);
width = 787;
},
{
layerId = "5297CC84-2E5E-44C2-8BD8-B52BBF62A592";
paths = (
{
closed = 1;
nodes = (
"660 -14 OFFCURVE",
"800 128 OFFCURVE",
"800 364 CURVE SMOOTH",
"800 600 OFFCURVE",
"660 742 OFFCURVE",
"425 742 CURVE SMOOTH",
"192 742 OFFCURVE",
"50 600 OFFCURVE",
"50 364 CURVE SMOOTH",
"50 128 OFFCURVE",
"192 -14 OFFCURVE",
"425 -14 CURVE SMOOTH"
);
},
{
closed = 1;
nodes = (
"310 122 OFFCURVE",
"244 211 OFFCURVE",
"244 364 CURVE SMOOTH",
"244 517 OFFCURVE",
"310 606 OFFCURVE",
"425 606 CURVE SMOOTH",
"540 606 OFFCURVE",
"606 517 OFFCURVE",
"606 364 CURVE SMOOTH",
"606 211 OFFCURVE",
"540 122 OFFCURVE",
"425 122 CURVE SMOOTH"
);
}
);
width = 850;
},
{
layerId = "5FB0259D-C3EC-4F0F-ABB4-6EFEC5FB1D78";
paths = (
{
closed = 1;
nodes = (
"594 -14 OFFCURVE",
"720 128 OFFCURVE",
"720 364 CURVE SMOOTH",
"720 600 OFFCURVE",
"594 742 OFFCURVE",
"382 742 CURVE SMOOTH",
"173 742 OFFCURVE",
"45 600 OFFCURVE",
"45 364 CURVE SMOOTH",
"45 128 OFFCURVE",
"173 -14 OFFCURVE",
"382 -14 CURVE SMOOTH"
);
},
{
closed = 1;
nodes = (
"279 122 OFFCURVE",
"220 211 OFFCURVE",
"220 364 CURVE SMOOTH",
"220 517 OFFCURVE",
"279 606 OFFCURVE",
"382 606 CURVE SMOOTH",
"486 606 OFFCURVE",
"545 517 OFFCURVE",
"545 364 CURVE SMOOTH",
"545 211 OFFCURVE",
"486 122 OFFCURVE",
"382 122 CURVE SMOOTH"
);
}
);
width = 765;
},
{
layerId = "79D829DC-9C66-44C2-8B43-D291CF08F0E9";
paths = (
{
closed = 1;
nodes = (
"451 -14 OFFCURVE",
"550 35 OFFCURVE",
"634 136 CURVE SMOOTH",
"706 224 OFFCURVE",
"747 336 OFFCURVE",
"747 448 CURVE SMOOTH",
"747 629 OFFCURVE",
"638 742 OFFCURVE",
"459 742 CURVE SMOOTH",
"336 742 OFFCURVE",
"236 692 OFFCURVE",
"153 592 CURVE SMOOTH",
"82 505 OFFCURVE",
"40 388 OFFCURVE",
"40 283 CURVE SMOOTH",
"40 99 OFFCURVE",
"149 -14 OFFCURVE",
"328 -14 CURVE SMOOTH"
);
},
{
closed = 1;
nodes = (
"212 66 OFFCURVE",
"145 142 OFFCURVE",
"145 278 CURVE SMOOTH",
"145 355 OFFCURVE",
"166 435 OFFCURVE",
"205 503 CURVE SMOOTH",
"266 610 OFFCURVE",
"348 662 OFFCURVE",
"456 662 CURVE SMOOTH",
"573 662 OFFCURVE",
"642 585 OFFCURVE",
"642 450 CURVE SMOOTH",
"642 374 OFFCURVE",
"621 295 OFFCURVE",
"581 224 CURVE SMOOTH",
"522 120 OFFCURVE",
"438 66 OFFCURVE",
"331 66 CURVE SMOOTH"
);
}
);
width = 787;
},
{
layerId = "217D6A7E-4635-413B-8BF5-4A1DD3DA67ED";
paths = (
{
closed = 1;
nodes = (
"406 -14 OFFCURVE",
"495 35 OFFCURVE",
"570 136 CURVE SMOOTH",
"637 224 OFFCURVE",
"672 336 OFFCURVE",
"672 448 CURVE SMOOTH",
"672 629 OFFCURVE",
"574 742 OFFCURVE",
"413 742 CURVE SMOOTH",
"304 742 OFFCURVE",
"211 692 OFFCURVE",
"138 592 CURVE SMOOTH",
"74 505 OFFCURVE",
"36 388 OFFCURVE",
"36 283 CURVE SMOOTH",
"36 99 OFFCURVE",
"134 -14 OFFCURVE",
"295 -14 CURVE SMOOTH"
);
},
{
closed = 1;
nodes = (
"191 66 OFFCURVE",
"130 142 OFFCURVE",
"130 278 CURVE SMOOTH",
"130 355 OFFCURVE",
"149 435 OFFCURVE",
"185 503 CURVE SMOOTH",
"240 610 OFFCURVE",
"312 662 OFFCURVE",
"411 662 CURVE SMOOTH",
"516 662 OFFCURVE",
"578 585 OFFCURVE",
"578 450 CURVE SMOOTH",
"578 374 OFFCURVE",
"559 295 OFFCURVE",
"523 224 CURVE SMOOTH",
"470 120 OFFCURVE",
"394 66 OFFCURVE",
"298 66 CURVE SMOOTH"
);
}
);
width = 708;
},
{
layerId = "BED8EE44-B183-4D86-965C-1BADD1250A61";
paths = (
{
closed = 1;
nodes = (
"458 -14 OFFCURVE",
"561 37 OFFCURVE",
"637 140 CURVE SMOOTH",
"700 224 OFFCURVE",
"732 331 OFFCURVE",
"732 450 CURVE SMOOTH",
"732 625 OFFCURVE",
"617 742 OFFCURVE",
"442 742 CURVE SMOOTH",
"306 742 OFFCURVE",
"203 692 OFFCURVE",
"128 589 CURVE SMOOTH",
"65 504 OFFCURVE",
"33 397 OFFCURVE",
"33 278 CURVE SMOOTH",
"33 103 OFFCURVE",
"147 -14 OFFCURVE",
"322 -14 CURVE SMOOTH"
);
},
{
closed = 1;
nodes = (
"259 122 OFFCURVE",
"210 187 OFFCURVE",
"210 299 CURVE SMOOTH",
"210 475 OFFCURVE",
"301 606 OFFCURVE",
"417 606 CURVE SMOOTH",
"506 606 OFFCURVE",
"554 545 OFFCURVE",
"554 430 CURVE SMOOTH",
"554 353 OFFCURVE",
"534 275 OFFCURVE",
"499 216 CURVE SMOOTH",
"462 153 OFFCURVE",
"410 122 OFFCURVE",
"342 122 CURVE SMOOTH"
);
}
);
width = 765;
},
{
layerId = "99D829B7-D749-4014-BBE4-6F1A75B6E575";
paths = (
{
closed = 1;
nodes = (
"489 -14 OFFCURVE",
"564 20 OFFCURVE",
"621 89 CURVE SMOOTH",
"678 157 OFFCURVE",
"706 249 OFFCURVE",
"706 364 CURVE SMOOTH",
"706 479 OFFCURVE",
"678 571 OFFCURVE",
"621 640 CURVE SMOOTH",
"564 708 OFFCURVE",
"489 742 OFFCURVE",
"394 742 CURVE SMOOTH",
"299 742 OFFCURVE",
"224 708 OFFCURVE",
"167 640 CURVE SMOOTH",
"110 571 OFFCURVE",
"82 479 OFFCURVE",
"82 364 CURVE SMOOTH",
"82 249 OFFCURVE",
"110 157 OFFCURVE",
"167 88 CURVE SMOOTH",
"224 20 OFFCURVE",
"299 -14 OFFCURVE",
"394 -14 CURVE SMOOTH"
);
},
{
closed = 1;
nodes = (
"314 24 OFFCURVE",
"251 55 OFFCURVE",
"204 116 CURVE SMOOTH",
"157 177 OFFCURVE",
"133 259 OFFCURVE",
"133 364 CURVE SMOOTH",
"133 469 OFFCURVE",
"157 552 OFFCURVE",
"204 613 CURVE SMOOTH",
"251 674 OFFCURVE",
"314 704 OFFCURVE",
"394 704 CURVE SMOOTH",
"474 704 OFFCURVE",
"537 674 OFFCURVE",
"584 613 CURVE SMOOTH",
"631 552 OFFCURVE",
"654 469 OFFCURVE",
"654 364 CURVE SMOOTH",
"654 259 OFFCURVE",
"631 177 OFFCURVE",
"584 116 CURVE SMOOTH",
"537 55 OFFCURVE",
"474 24 OFFCURVE",
"394 24 CURVE SMOOTH"
);
}
);
width = 787;
},
{
layerId = "D5B43B4B-63DF-4B35-BEE3-B41B34784265";
paths = (
{
closed = 1;
nodes = (
"509 -14 OFFCURVE",
"624 37 OFFCURVE",
"708 140 CURVE SMOOTH",
"777 224 OFFCURVE",
"814 331 OFFCURVE",
"814 450 CURVE SMOOTH",
"814 625 OFFCURVE",
"686 742 OFFCURVE",
"491 742 CURVE SMOOTH",
"340 742 OFFCURVE",
"226 692 OFFCURVE",
"142 589 CURVE SMOOTH",
"73 504 OFFCURVE",
"36 397 OFFCURVE",
"36 278 CURVE SMOOTH",
"36 103 OFFCURVE",
"165 -14 OFFCURVE",
"358 -14 CURVE SMOOTH"
);
},
{
closed = 1;
nodes = (
"288 122 OFFCURVE",
"234 187 OFFCURVE",
"234 299 CURVE SMOOTH",
"234 475 OFFCURVE",
"333 606 OFFCURVE",
"464 606 CURVE SMOOTH",
"563 606 OFFCURVE",
"615 545 OFFCURVE",
"615 430 CURVE SMOOTH",
"615 353 OFFCURVE",
"593 275 OFFCURVE",
"554 216 CURVE SMOOTH",
"513 153 OFFCURVE",
"455 122 OFFCURVE",
"380 122 CURVE SMOOTH"
);
}
);
width = 850;
}
);
leftKerningGroup = O;
note = O;
rightKerningGroup = O;
unicode = 004F;
},
{
export = 0;
glyphname = P;
layers = (
{
layerId = "79F6B4AB-4C44-4F2D-9893-C213A8C041F5";
paths = (
{
closed = 1;
nodes = (
"177 0 LINE",
"177 293 LINE",
"289 293 LINE SMOOTH",
"436 293 OFFCURVE",
"512 367 OFFCURVE",
"512 511 CURVE SMOOTH",
"512 654 OFFCURVE",
"436 729 OFFCURVE",
"289 729 CURVE SMOOTH",
"88 729 LINE",
"88 0 LINE"
);
},
{
closed = 1;
nodes = (
"177 648 LINE",
"289 648 LINE SMOOTH",
"372 648 OFFCURVE",
"418 599 OFFCURVE",
"418 511 CURVE SMOOTH",
"418 423 OFFCURVE",
"372 374 OFFCURVE",
"289 374 CURVE SMOOTH",
"177 374 LINE"
);
}
);
width = 542;
},
{
layerId = "EB88A49E-561A-4405-9552-C71224CBA53C";
paths = (
{
closed = 1;
nodes = (
"197 0 LINE",
"197 293 LINE",
"321 293 LINE SMOOTH",
"484 293 OFFCURVE",
"569 367 OFFCURVE",
"569 511 CURVE SMOOTH",
"569 654 OFFCURVE",
"484 729 OFFCURVE",
"321 729 CURVE SMOOTH",
"98 729 LINE",
"98 0 LINE"
);
},
{
closed = 1;
nodes = (
"197 648 LINE",
"321 648 LINE SMOOTH",
"413 648 OFFCURVE",
"465 599 OFFCURVE",
"465 511 CURVE SMOOTH",
"465 423 OFFCURVE",
"413 374 OFFCURVE",
"321 374 CURVE SMOOTH",
"197 374 LINE"
);
}
);
width = 603;
},
{
layerId = "5297CC84-2E5E-44C2-8BD8-B52BBF62A592";
paths = (
{
closed = 1;
nodes = (
"280 0 LINE",
"280 253 LINE",
"404 253 LINE SMOOTH",
"589 253 OFFCURVE",
"692 338 OFFCURVE",
"692 491 CURVE SMOOTH",
"692 643 OFFCURVE",
"589 729 OFFCURVE",
"404 729 CURVE SMOOTH",
"92 729 LINE",
"92 0 LINE"
);
},
{
closed = 1;
nodes = (
"280 593 LINE",
"384 593 LINE SMOOTH",
"456 593 OFFCURVE",
"498 556 OFFCURVE",
"498 491 CURVE SMOOTH",
"498 426 OFFCURVE",
"456 389 OFFCURVE",
"384 389 CURVE SMOOTH",
"280 389 LINE"
);
}
);
width = 733;
},
{
layerId = "5FB0259D-C3EC-4F0F-ABB4-6EFEC5FB1D78";
paths = (
{
closed = 1;
nodes = (
"252 0 LINE",
"252 253 LINE",
"363 253 LINE SMOOTH",
"531 253 OFFCURVE",
"623 338 OFFCURVE",
"623 491 CURVE SMOOTH",
"623 643 OFFCURVE",
"531 729 OFFCURVE",
"363 729 CURVE SMOOTH",
"83 729 LINE",
"83 0 LINE"
);
},
{
closed = 1;
nodes = (
"252 593 LINE",
"345 593 LINE SMOOTH",
"412 593 OFFCURVE",
"448 556 OFFCURVE",
"448 491 CURVE SMOOTH",
"448 426 OFFCURVE",
"412 389 OFFCURVE",
"345 389 CURVE SMOOTH",
"252 389 LINE"
);
}
);
width = 659;
},
{
layerId = "79D829DC-9C66-44C2-8B43-D291CF08F0E9";
paths = (
{
closed = 1;
nodes = (
"126 0 LINE",
"183 293 LINE",
"307 293 LINE SMOOTH",
"494 293 OFFCURVE",
"601 387 OFFCURVE",
"601 547 CURVE SMOOTH",
"601 666 OFFCURVE",
"530 729 OFFCURVE",
"397 729 CURVE SMOOTH",
"169 729 LINE",
"27 0 LINE"
);
},
{
closed = 1;
nodes = (
"252 648 LINE",
"381 648 LINE SMOOTH",
"454 648 OFFCURVE",
"497 608 OFFCURVE",
"497 540 CURVE SMOOTH",
"497 433 OFFCURVE",
"435 374 OFFCURVE",
"323 374 CURVE SMOOTH",
"199 374 LINE"
);
}
);
width = 603;
},
{
layerId = "217D6A7E-4635-413B-8BF5-4A1DD3DA67ED";
paths = (
{
closed = 1;
nodes = (
"113 0 LINE",
"165 293 LINE",
"276 293 LINE SMOOTH",
"444 293 OFFCURVE",
"541 387 OFFCURVE",
"541 547 CURVE SMOOTH",
"541 666 OFFCURVE",
"477 729 OFFCURVE",
"357 729 CURVE SMOOTH",
"152 729 LINE",
"24 0 LINE"
);
},
{
closed = 1;
nodes = (
"227 648 LINE",
"343 648 LINE SMOOTH",
"410 648 OFFCURVE",
"447 608 OFFCURVE",
"447 540 CURVE SMOOTH",
"447 433 OFFCURVE",
"392 374 OFFCURVE",
"291 374 CURVE SMOOTH",
"179 374 LINE"
);
}
);
width = 542;
},
{
layerId = "BED8EE44-B183-4D86-965C-1BADD1250A61";
paths = (
{
closed = 1;
nodes = (
"188 0 LINE",
"232 253 LINE",
"344 253 LINE SMOOTH",
"452 253 OFFCURVE",
"521 277 OFFCURVE",
"573 332 CURVE SMOOTH",
"620 384 OFFCURVE",
"647 455 OFFCURVE",
"647 531 CURVE SMOOTH",
"647 655 OFFCURVE",
"565 729 OFFCURVE",
"428 729 CURVE SMOOTH",
"147 729 LINE",
"19 0 LINE"
);
},
{
closed = 1;
nodes = (
"292 593 LINE",
"385 593 LINE SMOOTH",
"442 593 OFFCURVE",
"473 564 OFFCURVE",
"473 511 CURVE SMOOTH",
"473 432 OFFCURVE",
"430 389 OFFCURVE",
"350 389 CURVE SMOOTH",
"257 389 LINE"
);
}
);
width = 659;
},
{
layerId = "99D829B7-D749-4014-BBE4-6F1A75B6E575";
paths = (
{
closed = 1;
nodes = (
"171 0 LINE",
"171 313 LINE",
"321 313 LINE SMOOTH",
"394 313 OFFCURVE",
"449 331 OFFCURVE",
"486 366 CURVE SMOOTH",
"523 401 OFFCURVE",
"542 453 OFFCURVE",
"542 521 CURVE SMOOTH",
"542 590 OFFCURVE",
"523 641 OFFCURVE",
"486 676 CURVE SMOOTH",
"449 711 OFFCURVE",
"394 729 OFFCURVE",
"321 729 CURVE SMOOTH",
"122 729 LINE",
"122 0 LINE"
);
},
{
closed = 1;
nodes = (
"171 688 LINE",
"321 688 LINE SMOOTH",
"375 688 OFFCURVE",
"417 674 OFFCURVE",
"447 645 CURVE SMOOTH",
"477 616 OFFCURVE",
"492 574 OFFCURVE",
"492 521 CURVE SMOOTH",
"492 467 OFFCURVE",
"477 426 OFFCURVE",
"447 397 CURVE SMOOTH",
"417 368 OFFCURVE",
"375 354 OFFCURVE",
"321 354 CURVE SMOOTH",
"171 354 LINE"
);
}
);
width = 603;
},
{
layerId = "D5B43B4B-63DF-4B35-BEE3-B41B34784265";
paths = (
{
closed = 1;
nodes = (
"209 0 LINE",
"258 253 LINE",
"382 253 LINE SMOOTH",
"503 253 OFFCURVE",
"579 277 OFFCURVE",
"636 332 CURVE SMOOTH",
"689 384 OFFCURVE",
"719 455 OFFCURVE",
"719 531 CURVE SMOOTH",
"719 655 OFFCURVE",
"628 729 OFFCURVE",
"475 729 CURVE SMOOTH",
"163 729 LINE",
"21 0 LINE"
);
},
{
closed = 1;
nodes = (
"325 593 LINE",
"428 593 LINE SMOOTH",
"492 593 OFFCURVE",
"526 564 OFFCURVE",
"526 511 CURVE SMOOTH",
"526 432 OFFCURVE",
"478 389 OFFCURVE",
"389 389 CURVE SMOOTH",
"285 389 LINE"
);
}
);
width = 733;
}
);
leftKerningGroup = F;
note = P;
rightKerningGroup = P;
unicode = 0050;
},
{
export = 0;
glyphname = Q;
layers = (
{
layerId = "79F6B4AB-4C44-4F2D-9893-C213A8C041F5";
paths = (
{
closed = 1;
nodes = (
"596 -129 LINE",
"479 13 LINE",
"595 70 OFFCURVE",
"658 195 OFFCURVE",
"658 364 CURVE SMOOTH",
"658 595 OFFCURVE",
"539 742 OFFCURVE",
"354 742 CURVE SMOOTH",
"170 742 OFFCURVE",
"51 595 OFFCURVE",
"51 364 CURVE SMOOTH",
"51 133 OFFCURVE",
"170 -14 OFFCURVE",
"354 -14 CURVE SMOOTH",
"359 -14 OFFCURVE",
"365 -14 OFFCURVE",
"370 -14 CURVE",
"392 -12 LINE",
"489 -129 LINE"
);
},
{
closed = 1;
nodes = (
"226 66 OFFCURVE",
"144 180 OFFCURVE",
"144 364 CURVE SMOOTH",
"144 548 OFFCURVE",
"226 662 OFFCURVE",
"354 662 CURVE SMOOTH",
"483 662 OFFCURVE",
"564 548 OFFCURVE",
"564 364 CURVE SMOOTH",
"564 180 OFFCURVE",
"483 66 OFFCURVE",
"354 66 CURVE SMOOTH"
);
}
);
width = 708;
},
{
layerId = "EB88A49E-561A-4405-9552-C71224CBA53C";
paths = (
{
closed = 1;
nodes = (
"662 -129 LINE",
"532 13 LINE",
"661 70 OFFCURVE",
"731 195 OFFCURVE",
"731 364 CURVE SMOOTH",
"731 595 OFFCURVE",
"598 742 OFFCURVE",
"394 742 CURVE SMOOTH",
"189 742 OFFCURVE",
"56 595 OFFCURVE",
"56 364 CURVE SMOOTH",
"56 133 OFFCURVE",
"189 -14 OFFCURVE",
"394 -14 CURVE SMOOTH",
"405 -14 OFFCURVE",
"414 -13 OFFCURVE",
"435 -12 CURVE",
"543 -129 LINE"
);
},
{
closed = 1;
nodes = (
"251 66 OFFCURVE",
"160 180 OFFCURVE",
"160 364 CURVE SMOOTH",
"160 548 OFFCURVE",
"251 662 OFFCURVE",
"394 662 CURVE SMOOTH",
"537 662 OFFCURVE",
"627 548 OFFCURVE",
"627 364 CURVE SMOOTH",
"627 180 OFFCURVE",
"537 66 OFFCURVE",
"394 66 CURVE SMOOTH"
);
}
);
width = 787;
},
{
layerId = "5297CC84-2E5E-44C2-8BD8-B52BBF62A592";
paths = (
{
closed = 1;
nodes = (
"743 -146 LINE",
"596 18 LINE",
"728 78 OFFCURVE",
"800 200 OFFCURVE",
"800 364 CURVE SMOOTH",
"800 603 OFFCURVE",
"661 742 OFFCURVE",
"425 742 CURVE SMOOTH",
"192 742 OFFCURVE",
"50 600 OFFCURVE",
"50 364 CURVE SMOOTH",
"50 127 OFFCURVE",
"190 -13 OFFCURVE",
"430 -13 CURVE SMOOTH",
"445 -13 LINE",
"564 -146 LINE"
);
},
{
closed = 1;
nodes = (
"308 122 OFFCURVE",
"244 208 OFFCURVE",
"244 364 CURVE SMOOTH",
"244 517 OFFCURVE",
"310 606 OFFCURVE",
"425 606 CURVE SMOOTH",
"540 606 OFFCURVE",
"606 517 OFFCURVE",
"606 364 CURVE SMOOTH",
"606 211 OFFCURVE",
"540 122 OFFCURVE",
"425 122 CURVE SMOOTH"
);
}
);
width = 850;
},
{
layerId = "5FB0259D-C3EC-4F0F-ABB4-6EFEC5FB1D78";
paths = (
{
closed = 1;
nodes = (
"669 -146 LINE",
"537 18 LINE",
"654 78 OFFCURVE",
"720 200 OFFCURVE",
"720 364 CURVE SMOOTH",
"720 603 OFFCURVE",
"595 742 OFFCURVE",
"382 742 CURVE SMOOTH",
"173 742 OFFCURVE",
"45 600 OFFCURVE",
"45 364 CURVE SMOOTH",
"45 127 OFFCURVE",
"171 -13 OFFCURVE",
"387 -13 CURVE SMOOTH",
"400 -13 LINE",
"508 -146 LINE"
);
},
{
closed = 1;
nodes = (
"277 122 OFFCURVE",
"220 208 OFFCURVE",
"220 364 CURVE SMOOTH",
"220 517 OFFCURVE",
"279 606 OFFCURVE",
"382 606 CURVE SMOOTH",
"486 606 OFFCURVE",
"545 517 OFFCURVE",
"545 364 CURVE SMOOTH",
"545 211 OFFCURVE",
"486 122 OFFCURVE",
"382 122 CURVE SMOOTH"
);
}
);
width = 765;
},
{
layerId = "79D829DC-9C66-44C2-8B43-D291CF08F0E9";
paths = (
{
closed = 1;
nodes = (
"555 -129 LINE",
"456 7 LINE",
"629 74 OFFCURVE",
"747 252 OFFCURVE",
"747 448 CURVE SMOOTH",
"747 629 OFFCURVE",
"638 742 OFFCURVE",
"459 742 CURVE SMOOTH",
"336 742 OFFCURVE",
"234 692 OFFCURVE",
"153 592 CURVE SMOOTH",
"82 504 OFFCURVE",
"41 389 OFFCURVE",
"41 281 CURVE SMOOTH",
"41 97 OFFCURVE",
"149 -14 OFFCURVE",
"332 -14 CURVE SMOOTH",
"340 -14 OFFCURVE",
"346 -14 OFFCURVE",
"350 -14 CURVE SMOOTH",
"353 -14 OFFCURVE",
"357 -14 OFFCURVE",
"361 -13 CURVE",
"445 -129 LINE"
);
},
{
closed = 1;
nodes = (
"212 66 OFFCURVE",
"145 142 OFFCURVE",
"145 278 CURVE SMOOTH",
"145 355 OFFCURVE",
"166 435 OFFCURVE",
"205 503 CURVE SMOOTH",
"266 610 OFFCURVE",
"348 662 OFFCURVE",
"456 662 CURVE SMOOTH",
"573 662 OFFCURVE",
"642 585 OFFCURVE",
"642 450 CURVE SMOOTH",
"642 374 OFFCURVE",
"621 295 OFFCURVE",
"581 224 CURVE SMOOTH",
"522 120 OFFCURVE",
"438 66 OFFCURVE",
"331 66 CURVE SMOOTH"
);
}
);
width = 787;
},
{
layerId = "217D6A7E-4635-413B-8BF5-4A1DD3DA67ED";
paths = (
{
closed = 1;
nodes = (
"500 -129 LINE",
"411 7 LINE",
"566 74 OFFCURVE",
"672 252 OFFCURVE",
"672 448 CURVE SMOOTH",
"672 629 OFFCURVE",
"574 742 OFFCURVE",
"413 742 CURVE SMOOTH",
"302 742 OFFCURVE",
"210 692 OFFCURVE",
"138 592 CURVE SMOOTH",
"74 504 OFFCURVE",
"37 389 OFFCURVE",
"37 281 CURVE SMOOTH",
"37 97 OFFCURVE",
"135 -14 OFFCURVE",
"299 -14 CURVE SMOOTH",
"306 -14 OFFCURVE",
"312 -14 OFFCURVE",
"315 -14 CURVE SMOOTH",
"318 -14 OFFCURVE",
"322 -14 OFFCURVE",
"325 -13 CURVE",
"400 -129 LINE"
);
},
{
closed = 1;
nodes = (
"191 66 OFFCURVE",
"130 142 OFFCURVE",
"130 278 CURVE SMOOTH",
"130 355 OFFCURVE",
"149 435 OFFCURVE",
"185 503 CURVE SMOOTH",
"240 610 OFFCURVE",
"312 662 OFFCURVE",
"411 662 CURVE SMOOTH",
"516 662 OFFCURVE",
"578 585 OFFCURVE",
"578 450 CURVE SMOOTH",
"578 374 OFFCURVE",
"559 295 OFFCURVE",
"523 224 CURVE SMOOTH",
"470 120 OFFCURVE",
"394 66 OFFCURVE",
"298 66 CURVE SMOOTH"
);
}
);
width = 708;
},
{
layerId = "BED8EE44-B183-4D86-965C-1BADD1250A61";
paths = (
{
closed = 1;
nodes = (
"580 -146 LINE",
"479 13 LINE",
"639 84 OFFCURVE",
"732 246 OFFCURVE",
"732 450 CURVE SMOOTH",
"732 625 OFFCURVE",
"617 742 OFFCURVE",
"442 742 CURVE SMOOTH",
"306 742 OFFCURVE",
"204 693 OFFCURVE",
"128 589 CURVE SMOOTH",
"65 505 OFFCURVE",
"33 397 OFFCURVE",
"33 278 CURVE SMOOTH",
"33 185 OFFCURVE",
"70 98 OFFCURVE",
"135 46 CURVE SMOOTH",
"183 6 OFFCURVE",
"242 -14 OFFCURVE",
"309 -14 CURVE SMOOTH",
"316 -14 OFFCURVE",
"321 -14 OFFCURVE",
"324 -14 CURVE SMOOTH",
"327 -14 OFFCURVE",
"331 -14 OFFCURVE",
"334 -13 CURVE",
"418 -146 LINE"
);
},
{
closed = 1;
nodes = (
"259 122 OFFCURVE",
"210 187 OFFCURVE",
"210 299 CURVE SMOOTH",
"210 475 OFFCURVE",
"301 606 OFFCURVE",
"417 606 CURVE SMOOTH",
"506 606 OFFCURVE",
"554 545 OFFCURVE",
"554 430 CURVE SMOOTH",
"554 353 OFFCURVE",
"534 275 OFFCURVE",
"499 216 CURVE SMOOTH",
"462 153 OFFCURVE",
"410 122 OFFCURVE",
"342 122 CURVE SMOOTH"
);
}
);
width = 765;
},
{
layerId = "99D829B7-D749-4014-BBE4-6F1A75B6E575";
paths = (
{
closed = 1;
nodes = (
"633 -129 LINE",
"509 5 LINE",
"574 32 OFFCURVE",
"624 79 OFFCURVE",
"659 146 CURVE SMOOTH",
"690 209 OFFCURVE",
"706 281 OFFCURVE",
"706 364 CURVE SMOOTH",
"706 479 OFFCURVE",
"678 571 OFFCURVE",
"621 640 CURVE SMOOTH",
"564 708 OFFCURVE",
"489 742 OFFCURVE",
"394 742 CURVE SMOOTH",
"299 742 OFFCURVE",
"224 708 OFFCURVE",
"167 640 CURVE SMOOTH",
"110 571 OFFCURVE",
"82 479 OFFCURVE",
"82 364 CURVE SMOOTH",
"82 249 OFFCURVE",
"110 157 OFFCURVE",
"167 89 CURVE SMOOTH",
"224 20 OFFCURVE",
"299 -14 OFFCURVE",
"394 -14 CURVE SMOOTH",
"405 -14 OFFCURVE",
"416 -14 OFFCURVE",
"427 -14 CURVE",
"436 -13 OFFCURVE",
"447 -12 OFFCURVE",
"461 -9 CURVE",
"572 -129 LINE"
);
},
{
closed = 1;
nodes = (
"314 24 OFFCURVE",
"251 55 OFFCURVE",
"204 116 CURVE SMOOTH",
"157 177 OFFCURVE",
"133 259 OFFCURVE",
"133 363 CURVE SMOOTH",
"133 468 OFFCURVE",
"157 551 OFFCURVE",
"204 611 CURVE SMOOTH",
"251 672 OFFCURVE",
"314 703 OFFCURVE",
"394 703 CURVE SMOOTH",
"474 703 OFFCURVE",
"537 672 OFFCURVE",
"584 611 CURVE SMOOTH",
"631 551 OFFCURVE",
"654 468 OFFCURVE",
"654 363 CURVE SMOOTH",
"654 259 OFFCURVE",
"631 177 OFFCURVE",
"584 116 CURVE SMOOTH",
"537 55 OFFCURVE",
"474 24 OFFCURVE",
"394 24 CURVE SMOOTH"
);
}
);
width = 787;
},
{
layerId = "D5B43B4B-63DF-4B35-BEE3-B41B34784265";
paths = (
{
closed = 1;
nodes = (
"644 -146 LINE",
"532 13 LINE",
"709 84 OFFCURVE",
"814 246 OFFCURVE",
"814 450 CURVE SMOOTH",
"814 625 OFFCURVE",
"686 742 OFFCURVE",
"491 742 CURVE SMOOTH",
"339 742 OFFCURVE",
"226 693 OFFCURVE",
"142 589 CURVE SMOOTH",
"73 505 OFFCURVE",
"36 397 OFFCURVE",
"36 278 CURVE SMOOTH",
"36 185 OFFCURVE",
"78 98 OFFCURVE",
"150 46 CURVE SMOOTH",
"203 6 OFFCURVE",
"270 -14 OFFCURVE",
"343 -14 CURVE SMOOTH",
"351 -14 OFFCURVE",
"357 -14 OFFCURVE",
"361 -14 CURVE SMOOTH",
"364 -14 OFFCURVE",
"368 -14 OFFCURVE",
"371 -13 CURVE",
"465 -146 LINE"
);
},
{
closed = 1;
nodes = (
"288 122 OFFCURVE",
"234 187 OFFCURVE",
"234 299 CURVE SMOOTH",
"234 475 OFFCURVE",
"333 606 OFFCURVE",
"464 606 CURVE SMOOTH",
"563 606 OFFCURVE",
"615 545 OFFCURVE",
"615 430 CURVE SMOOTH",
"615 353 OFFCURVE",
"593 275 OFFCURVE",
"554 216 CURVE SMOOTH",
"513 153 OFFCURVE",
"455 122 OFFCURVE",
"380 122 CURVE SMOOTH"
);
}
);
width = 850;
}
);
leftKerningGroup = Q;
note = Q;
rightKerningGroup = Q;
unicode = 0051;
},
{
export = 0;
glyphname = R;
layers = (
{
layerId = "79F6B4AB-4C44-4F2D-9893-C213A8C041F5";
paths = (
{
closed = 1;
nodes = (
"177 0 LINE",
"177 308 LINE",
"274 308 LINE SMOOTH",
"345 308 OFFCURVE",
"377 284 OFFCURVE",
"420 187 CURVE SMOOTH",
"504 0 LINE",
"600 0 LINE",
"509 199 LINE SMOOTH",
"473 282 OFFCURVE",
"438 327 OFFCURVE",
"399 342 CURVE",
"474 365 OFFCURVE",
"512 427 OFFCURVE",
"512 519 CURVE SMOOTH",
"512 660 OFFCURVE",
"438 729 OFFCURVE",
"289 729 CURVE SMOOTH",
"88 729 LINE",
"88 0 LINE"
);
},
{
closed = 1;
nodes = (
"177 648 LINE",
"289 648 LINE SMOOTH",
"374 648 OFFCURVE",
"418 604 OFFCURVE",
"418 519 CURVE SMOOTH",
"418 434 OFFCURVE",
"374 389 OFFCURVE",
"289 389 CURVE SMOOTH",
"177 389 LINE"
);
}
);
width = 625;
},
{
layerId = "EB88A49E-561A-4405-9552-C71224CBA53C";
paths = (
{
closed = 1;
nodes = (
"197 0 LINE",
"197 308 LINE",
"304 308 LINE SMOOTH",
"383 308 OFFCURVE",
"419 284 OFFCURVE",
"467 187 CURVE SMOOTH",
"560 0 LINE",
"666 0 LINE",
"566 199 LINE SMOOTH",
"526 282 OFFCURVE",
"487 327 OFFCURVE",
"444 342 CURVE",
"525 365 OFFCURVE",
"569 427 OFFCURVE",
"569 519 CURVE SMOOTH",
"569 660 OFFCURVE",
"488 729 OFFCURVE",
"321 729 CURVE SMOOTH",
"98 729 LINE",
"98 0 LINE"
);
},
{
closed = 1;
nodes = (
"197 648 LINE",
"321 648 LINE SMOOTH",
"416 648 OFFCURVE",
"465 604 OFFCURVE",
"465 519 CURVE SMOOTH",
"465 434 OFFCURVE",
"416 389 OFFCURVE",
"321 389 CURVE SMOOTH",
"197 389 LINE"
);
}
);
width = 695;
},
{
layerId = "5297CC84-2E5E-44C2-8BD8-B52BBF62A592";
paths = (
{
closed = 1;
nodes = (
"280 0 LINE",
"280 276 LINE",
"333 276 LINE SMOOTH",
"394 276 OFFCURVE",
"425 254 OFFCURVE",
"461 181 CURVE SMOOTH",
"550 0 LINE",
"750 0 LINE",
"648 207 LINE SMOOTH",
"607 291 OFFCURVE",
"569 329 OFFCURVE",
"517 341 CURVE",
"610 370 OFFCURVE",
"657 432 OFFCURVE",
"657 528 CURVE SMOOTH",
"657 667 OFFCURVE",
"571 729 OFFCURVE",
"379 729 CURVE SMOOTH",
"92 729 LINE",
"92 0 LINE"
);
},
{
closed = 1;
nodes = (
"280 593 LINE",
"359 593 LINE SMOOTH",
"438 593 OFFCURVE",
"469 567 OFFCURVE",
"469 500 CURVE SMOOTH",
"469 433 OFFCURVE",
"438 406 OFFCURVE",
"359 406 CURVE SMOOTH",
"280 406 LINE"
);
}
);
width = 770;
},
{
layerId = "5FB0259D-C3EC-4F0F-ABB4-6EFEC5FB1D78";
paths = (
{
closed = 1;
nodes = (
"252 0 LINE",
"252 276 LINE",
"300 276 LINE SMOOTH",
"355 276 OFFCURVE",
"383 254 OFFCURVE",
"415 181 CURVE SMOOTH",
"495 0 LINE",
"675 0 LINE",
"583 207 LINE SMOOTH",
"546 291 OFFCURVE",
"512 329 OFFCURVE",
"465 341 CURVE",
"550 370 OFFCURVE",
"591 432 OFFCURVE",
"591 528 CURVE SMOOTH",
"591 667 OFFCURVE",
"514 729 OFFCURVE",
"341 729 CURVE SMOOTH",
"83 729 LINE",
"83 0 LINE"
);
},
{
closed = 1;
nodes = (
"252 593 LINE",
"323 593 LINE SMOOTH",
"394 593 OFFCURVE",
"422 567 OFFCURVE",
"422 500 CURVE SMOOTH",
"422 433 OFFCURVE",
"394 406 OFFCURVE",
"323 406 CURVE SMOOTH",
"252 406 LINE"
);
}
);
width = 693;
},
{
layerId = "79D829DC-9C66-44C2-8B43-D291CF08F0E9";
paths = (
{
closed = 1;
nodes = (
"126 0 LINE",
"186 308 LINE",
"295 308 LINE SMOOTH",
"374 308 OFFCURVE",
"405 283 OFFCURVE",
"434 187 CURVE SMOOTH",
"491 0 LINE",
"595 0 LINE",
"533 199 LINE SMOOTH",
"515 256 OFFCURVE",
"499 295 OFFCURVE",
"485 314 CURVE SMOOTH",
"471 333 OFFCURVE",
"454 345 OFFCURVE",
"433 350 CURVE",
"533 369 OFFCURVE",
"600 451 OFFCURVE",
"600 552 CURVE SMOOTH",
"600 667 OFFCURVE",
"526 729 OFFCURVE",
"391 729 CURVE SMOOTH",
"169 729 LINE",
"27 0 LINE"
);
},
{
closed = 1;
nodes = (
"252 648 LINE",
"376 648 LINE SMOOTH",
"453 648 OFFCURVE",
"496 609 OFFCURVE",
"496 538 CURVE SMOOTH",
"496 450 OFFCURVE",
"429 389 OFFCURVE",
"329 389 CURVE SMOOTH",
"202 389 LINE"
);
}
);
width = 695;
},
{
layerId = "217D6A7E-4635-413B-8BF5-4A1DD3DA67ED";
paths = (
{
closed = 1;
nodes = (
"113 0 LINE",
"167 308 LINE",
"266 308 LINE SMOOTH",
"337 308 OFFCURVE",
"364 283 OFFCURVE",
"391 187 CURVE SMOOTH",
"442 0 LINE",
"536 0 LINE",
"480 199 LINE SMOOTH",
"463 256 OFFCURVE",
"449 295 OFFCURVE",
"437 314 CURVE SMOOTH",
"424 333 OFFCURVE",
"409 345 OFFCURVE",
"390 350 CURVE",
"481 369 OFFCURVE",
"540 451 OFFCURVE",
"540 552 CURVE SMOOTH",
"540 667 OFFCURVE",
"473 729 OFFCURVE",
"352 729 CURVE SMOOTH",
"152 729 LINE",
"24 0 LINE"
);
},
{
closed = 1;
nodes = (
"227 648 LINE",
"338 648 LINE SMOOTH",
"409 648 OFFCURVE",
"446 609 OFFCURVE",
"446 538 CURVE SMOOTH",
"446 450 OFFCURVE",
"385 389 OFFCURVE",
"296 389 CURVE SMOOTH",
"182 389 LINE"
);
}
);
width = 625;
},
{
layerId = "BED8EE44-B183-4D86-965C-1BADD1250A61";
paths = (
{
closed = 1;
nodes = (
"188 0 LINE",
"237 276 LINE",
"291 276 LINE SMOOTH",
"346 276 OFFCURVE",
"369 253 OFFCURVE",
"389 181 CURVE SMOOTH",
"438 0 LINE",
"606 0 LINE",
"551 207 LINE SMOOTH",
"528 292 OFFCURVE",
"499 330 OFFCURVE",
"454 341 CURVE",
"554 352 OFFCURVE",
"617 433 OFFCURVE",
"617 552 CURVE SMOOTH",
"617 668 OFFCURVE",
"541 729 OFFCURVE",
"397 729 CURVE SMOOTH",
"147 729 LINE",
"19 0 LINE"
);
},
{
closed = 1;
nodes = (
"292 593 LINE",
"362 593 LINE SMOOTH",
"421 593 OFFCURVE",
"447 571 OFFCURVE",
"447 523 CURVE SMOOTH",
"447 446 OFFCURVE",
"407 406 OFFCURVE",
"331 406 CURVE SMOOTH",
"259 406 LINE"
);
}
);
width = 693;
},
{
layerId = "99D829B7-D749-4014-BBE4-6F1A75B6E575";
paths = (
{
closed = 1;
nodes = (
"172 0 LINE",
"172 330 LINE",
"304 330 LINE SMOOTH",
"347 330 OFFCURVE",
"382 321 OFFCURVE",
"407 304 CURVE SMOOTH",
"432 287 OFFCURVE",
"458 253 OFFCURVE",
"485 200 CURVE SMOOTH",
"589 0 LINE",
"641 0 LINE",
"539 199 LINE SMOOTH",
"514 247 OFFCURVE",
"495 279 OFFCURVE",
"482 296 CURVE SMOOTH",
"463 319 OFFCURVE",
"444 335 OFFCURVE",
"423 342 CURVE",
"466 353 OFFCURVE",
"496 374 OFFCURVE",
"514 405 CURVE SMOOTH",
"533 436 OFFCURVE",
"543 474 OFFCURVE",
"543 519 CURVE SMOOTH",
"543 660 OFFCURVE",
"470 729 OFFCURVE",
"321 729 CURVE SMOOTH",
"123 729 LINE",
"123 0 LINE"
);
},
{
closed = 1;
nodes = (
"172 689 LINE",
"333 689 LINE SMOOTH",
"437 689 OFFCURVE",
"491 635 OFFCURVE",
"491 530 CURVE SMOOTH",
"491 425 OFFCURVE",
"437 370 OFFCURVE",
"333 370 CURVE SMOOTH",
"172 370 LINE"
);
}
);
width = 695;
},
{
layerId = "D5B43B4B-63DF-4B35-BEE3-B41B34784265";
paths = (
{
closed = 1;
nodes = (
"209 0 LINE",
"263 276 LINE",
"323 276 LINE SMOOTH",
"383 276 OFFCURVE",
"411 253 OFFCURVE",
"432 181 CURVE SMOOTH",
"487 0 LINE",
"674 0 LINE",
"612 207 LINE SMOOTH",
"587 292 OFFCURVE",
"555 330 OFFCURVE",
"504 341 CURVE",
"615 352 OFFCURVE",
"685 433 OFFCURVE",
"685 552 CURVE SMOOTH",
"685 668 OFFCURVE",
"601 729 OFFCURVE",
"441 729 CURVE SMOOTH",
"163 729 LINE",
"21 0 LINE"
);
},
{
closed = 1;
nodes = (
"325 593 LINE",
"403 593 LINE SMOOTH",
"468 593 OFFCURVE",
"497 571 OFFCURVE",
"497 523 CURVE SMOOTH",
"497 446 OFFCURVE",
"452 406 OFFCURVE",
"367 406 CURVE SMOOTH",
"288 406 LINE"
);
}
);
width = 770;
}
);
leftKerningGroup = F;
note = R;
rightKerningGroup = R;
unicode = 0052;
},
{
export = 0;
glyphname = S;
layers = (
{
layerId = "79F6B4AB-4C44-4F2D-9893-C213A8C041F5";
paths = (
{
closed = 1;
nodes = (
"435 -14 OFFCURVE",
"521 60 OFFCURVE",
"521 201 CURVE SMOOTH",
"521 320 OFFCURVE",
"460 389 OFFCURVE",
"327 417 CURVE SMOOTH",
"274 429 LINE SMOOTH",
"177 449 OFFCURVE",
"148 478 OFFCURVE",
"148 542 CURVE SMOOTH",
"148 619 OFFCURVE",
"203 662 OFFCURVE",
"300 662 CURVE SMOOTH",
"355 662 OFFCURVE",
"414 645 OFFCURVE",
"481 609 CURVE",
"481 705 LINE",
"416 730 OFFCURVE",
"351 742 OFFCURVE",
"290 742 CURVE SMOOTH",
"146 742 OFFCURVE",
"60 663 OFFCURVE",
"60 534 CURVE SMOOTH",
"60 423 OFFCURVE",
"115 364 OFFCURVE",
"248 335 CURVE SMOOTH",
"301 323 LINE SMOOTH",
"392 303 OFFCURVE",
"429 266 OFFCURVE",
"429 194 CURVE SMOOTH",
"429 111 OFFCURVE",
"371 66 OFFCURVE",
"270 66 CURVE SMOOTH",
"203 66 OFFCURVE",
"134 89 OFFCURVE",
"62 134 CURVE",
"62 32 LINE",
"137 1 OFFCURVE",
"207 -14 OFFCURVE",
"270 -14 CURVE SMOOTH"
);
}
);
width = 571;
},
{
layerId = "EB88A49E-561A-4405-9552-C71224CBA53C";
paths = (
{
closed = 1;
nodes = (
"483 -14 OFFCURVE",
"579 60 OFFCURVE",
"579 201 CURVE SMOOTH",
"579 320 OFFCURVE",
"511 389 OFFCURVE",
"364 417 CURVE SMOOTH",
"304 429 LINE SMOOTH",
"196 449 OFFCURVE",
"165 478 OFFCURVE",
"165 542 CURVE SMOOTH",
"165 619 OFFCURVE",
"225 662 OFFCURVE",
"333 662 CURVE SMOOTH",
"394 662 OFFCURVE",
"460 645 OFFCURVE",
"535 609 CURVE",
"535 705 LINE",
"460 730 OFFCURVE",
"390 742 OFFCURVE",
"322 742 CURVE SMOOTH",
"162 742 OFFCURVE",
"66 663 OFFCURVE",
"66 534 CURVE SMOOTH",
"66 423 OFFCURVE",
"128 364 OFFCURVE",
"275 335 CURVE SMOOTH",
"335 323 LINE SMOOTH",
"435 303 OFFCURVE",
"476 266 OFFCURVE",
"476 194 CURVE SMOOTH",
"476 111 OFFCURVE",
"412 66 OFFCURVE",
"300 66 CURVE SMOOTH",
"225 66 OFFCURVE",
"149 89 OFFCURVE",
"69 134 CURVE",
"69 32 LINE",
"152 1 OFFCURVE",
"231 -14 OFFCURVE",
"300 -14 CURVE SMOOTH"
);
}
);
width = 635;
},
{
layerId = "5297CC84-2E5E-44C2-8BD8-B52BBF62A592";
paths = (
{
closed = 1;
nodes = (
"553 -14 OFFCURVE",
"647 64 OFFCURVE",
"647 224 CURVE SMOOTH",
"647 347 OFFCURVE",
"584 408 OFFCURVE",
"423 440 CURVE SMOOTH",
"343 456 LINE SMOOTH",
"267 472 OFFCURVE",
"242 490 OFFCURVE",
"242 530 CURVE SMOOTH",
"242 582 OFFCURVE",
"285 606 OFFCURVE",
"374 606 CURVE SMOOTH",
"442 606 OFFCURVE",
"519 588 OFFCURVE",
"599 552 CURVE",
"599 706 LINE",
"508 730 OFFCURVE",
"424 742 OFFCURVE",
"344 742 CURVE SMOOTH",
"168 742 OFFCURVE",
"72 661 OFFCURVE",
"72 516 CURVE SMOOTH",
"72 400 OFFCURVE",
"137 335 OFFCURVE",
"282 303 CURVE SMOOTH",
"355 287 LINE SMOOTH",
"443 267 OFFCURVE",
"466 246 OFFCURVE",
"466 201 CURVE SMOOTH",
"466 150 OFFCURVE",
"420 122 OFFCURVE",
"339 122 CURVE SMOOTH",
"258 122 OFFCURVE",
"171 148 OFFCURVE",
"78 197 CURVE",
"78 38 LINE",
"171 3 OFFCURVE",
"265 -14 OFFCURVE",
"357 -14 CURVE SMOOTH"
);
}
);
width = 720;
},
{
layerId = "5FB0259D-C3EC-4F0F-ABB4-6EFEC5FB1D78";
paths = (
{
closed = 1;
nodes = (
"498 -14 OFFCURVE",
"582 64 OFFCURVE",
"582 224 CURVE SMOOTH",
"582 347 OFFCURVE",
"527 408 OFFCURVE",
"380 440 CURVE SMOOTH",
"309 456 LINE SMOOTH",
"240 472 OFFCURVE",
"218 490 OFFCURVE",
"218 530 CURVE SMOOTH",
"218 582 OFFCURVE",
"256 606 OFFCURVE",
"336 606 CURVE SMOOTH",
"397 606 OFFCURVE",
"467 588 OFFCURVE",
"539 552 CURVE",
"539 706 LINE",
"458 730 OFFCURVE",
"382 742 OFFCURVE",
"310 742 CURVE SMOOTH",
"151 742 OFFCURVE",
"64 661 OFFCURVE",
"64 516 CURVE SMOOTH",
"64 400 OFFCURVE",
"123 335 OFFCURVE",
"254 303 CURVE SMOOTH",
"319 287 LINE SMOOTH",
"399 267 OFFCURVE",
"419 246 OFFCURVE",
"419 201 CURVE SMOOTH",
"419 150 OFFCURVE",
"378 122 OFFCURVE",
"305 122 CURVE SMOOTH",
"232 122 OFFCURVE",
"154 148 OFFCURVE",
"70 197 CURVE",
"70 38 LINE",
"154 3 OFFCURVE",
"238 -14 OFFCURVE",
"321 -14 CURVE SMOOTH"
);
}
);
width = 648;
},
{
layerId = "79D829DC-9C66-44C2-8B43-D291CF08F0E9";
paths = (
{
closed = 1;
nodes = (
"429 -14 OFFCURVE",
"555 88 OFFCURVE",
"555 235 CURVE SMOOTH",
"555 331 OFFCURVE",
"510 377 OFFCURVE",
"377 412 CURVE SMOOTH",
"318 427 LINE SMOOTH",
"265 441 OFFCURVE",
"232 454 OFFCURVE",
"219 467 CURVE SMOOTH",
"206 480 OFFCURVE",
"199 498 OFFCURVE",
"199 521 CURVE SMOOTH",
"199 606 OFFCURVE",
"275 662 OFFCURVE",
"392 662 CURVE SMOOTH",
"453 662 OFFCURVE",
"519 644 OFFCURVE",
"584 609 CURVE",
"603 705 LINE",
"535 730 OFFCURVE",
"466 742 OFFCURVE",
"397 742 CURVE SMOOTH",
"218 742 OFFCURVE",
"95 639 OFFCURVE",
"95 494 CURVE SMOOTH",
"95 411 OFFCURVE",
"135 372 OFFCURVE",
"270 337 CURVE SMOOTH",
"329 322 LINE SMOOTH",
"426 297 OFFCURVE",
"447 273 OFFCURVE",
"447 214 CURVE SMOOTH",
"447 126 OFFCURVE",
"366 66 OFFCURVE",
"243 66 CURVE SMOOTH",
"171 66 OFFCURVE",
"98 89 OFFCURVE",
"26 134 CURVE",
"6 32 LINE",
"85 1 OFFCURVE",
"163 -14 OFFCURVE",
"240 -14 CURVE SMOOTH"
);
}
);
width = 635;
},
{
layerId = "217D6A7E-4635-413B-8BF5-4A1DD3DA67ED";
paths = (
{
closed = 1;
nodes = (
"387 -14 OFFCURVE",
"500 88 OFFCURVE",
"500 235 CURVE SMOOTH",
"500 331 OFFCURVE",
"459 377 OFFCURVE",
"339 412 CURVE SMOOTH",
"286 427 LINE SMOOTH",
"190 455 OFFCURVE",
"179 474 OFFCURVE",
"179 521 CURVE SMOOTH",
"179 606 OFFCURVE",
"246 662 OFFCURVE",
"353 662 CURVE SMOOTH",
"408 662 OFFCURVE",
"466 644 OFFCURVE",
"525 609 CURVE",
"543 705 LINE",
"482 730 OFFCURVE",
"420 742 OFFCURVE",
"357 742 CURVE SMOOTH",
"196 742 OFFCURVE",
"86 639 OFFCURVE",
"86 494 CURVE SMOOTH",
"86 411 OFFCURVE",
"122 372 OFFCURVE",
"243 337 CURVE SMOOTH",
"296 322 LINE SMOOTH",
"384 297 OFFCURVE",
"402 273 OFFCURVE",
"402 214 CURVE SMOOTH",
"402 126 OFFCURVE",
"330 66 OFFCURVE",
"219 66 CURVE SMOOTH",
"154 66 OFFCURVE",
"88 89 OFFCURVE",
"23 134 CURVE",
"5 32 LINE",
"77 1 OFFCURVE",
"147 -14 OFFCURVE",
"216 -14 CURVE SMOOTH"
);
}
);
width = 571;
},
{
layerId = "BED8EE44-B183-4D86-965C-1BADD1250A61";
paths = (
{
closed = 1;
nodes = (
"445 -14 OFFCURVE",
"563 89 OFFCURVE",
"563 248 CURVE SMOOTH",
"563 345 OFFCURVE",
"510 406 OFFCURVE",
"394 438 CURVE SMOOTH",
"325 457 LINE SMOOTH",
"260 474 OFFCURVE",
"245 490 OFFCURVE",
"245 523 CURVE SMOOTH",
"245 575 OFFCURVE",
"294 606 OFFCURVE",
"379 606 CURVE SMOOTH",
"440 606 OFFCURVE",
"504 588 OFFCURVE",
"571 552 CURVE",
"599 706 LINE",
"522 730 OFFCURVE",
"447 742 OFFCURVE",
"375 742 CURVE SMOOTH",
"199 742 OFFCURVE",
"86 643 OFFCURVE",
"86 491 CURVE SMOOTH",
"86 395 OFFCURVE",
"134 335 OFFCURVE",
"237 307 CURVE SMOOTH",
"306 288 LINE SMOOTH",
"343 277 OFFCURVE",
"367 267 OFFCURVE",
"378 258 CURVE SMOOTH",
"389 248 OFFCURVE",
"394 234 OFFCURVE",
"394 216 CURVE SMOOTH",
"394 161 OFFCURVE",
"340 122 OFFCURVE",
"263 122 CURVE SMOOTH",
"191 122 OFFCURVE",
"118 146 OFFCURVE",
"41 197 CURVE",
"14 38 LINE",
"94 3 OFFCURVE",
"179 -14 OFFCURVE",
"264 -14 CURVE SMOOTH"
);
}
);
width = 648;
},
{
layerId = "99D829B7-D749-4014-BBE4-6F1A75B6E575";
paths = (
{
closed = 1;
nodes = (
"380 -14 OFFCURVE",
"432 2 OFFCURVE",
"483 35 CURVE SMOOTH",
"530 66 OFFCURVE",
"553 121 OFFCURVE",
"553 200 CURVE SMOOTH",
"553 255 OFFCURVE",
"527 300 OFFCURVE",
"474 336 CURVE SMOOTH",
"445 355 OFFCURVE",
"405 371 OFFCURVE",
"353 385 CURVE SMOOTH",
"295 400 LINE SMOOTH",
"242 413 OFFCURVE",
"202 431 OFFCURVE",
"176 454 CURVE SMOOTH",
"151 475 OFFCURVE",
"139 504 OFFCURVE",
"139 540 CURVE SMOOTH",
"139 599 OFFCURVE",
"155 640 OFFCURVE",
"188 664 CURVE SMOOTH",
"223 691 OFFCURVE",
"270 703 OFFCURVE",
"327 702 CURVE SMOOTH",
"366 701 OFFCURVE",
"398 697 OFFCURVE",
"423 689 CURVE SMOOTH",
"462 676 OFFCURVE",
"497 662 OFFCURVE",
"529 646 CURVE",
"529 692 LINE",
"522 697 OFFCURVE",
"488 710 OFFCURVE",
"426 730 CURVE SMOOTH",
"402 738 OFFCURVE",
"367 742 OFFCURVE",
"322 742 CURVE SMOOTH",
"245 742 OFFCURVE",
"188 725 OFFCURVE",
"150 691 CURVE SMOOTH",
"109 655 OFFCURVE",
"89 603 OFFCURVE",
"89 536 CURVE SMOOTH",
"89 482 OFFCURVE",
"114 439 OFFCURVE",
"164 408 CURVE SMOOTH",
"197 387 OFFCURVE",
"236 371 OFFCURVE",
"283 360 CURVE SMOOTH",
"342 346 LINE SMOOTH",
"394 333 OFFCURVE",
"437 312 OFFCURVE",
"470 282 CURVE SMOOTH",
"493 261 OFFCURVE",
"504 232 OFFCURVE",
"504 196 CURVE SMOOTH",
"504 134 OFFCURVE",
"485 90 OFFCURVE",
"448 65 CURVE SMOOTH",
"409 39 OFFCURVE",
"359 26 OFFCURVE",
"300 26 CURVE SMOOTH",
"265 26 OFFCURVE",
"228 34 OFFCURVE",
"187 51 CURVE SMOOTH",
"168 58 OFFCURVE",
"136 76 OFFCURVE",
"91 103 CURVE",
"91 55 LINE",
"121 35 OFFCURVE",
"150 20 OFFCURVE",
"178 9 CURVE SMOOTH",
"222 -6 OFFCURVE",
"272 -14 OFFCURVE",
"327 -14 CURVE SMOOTH"
);
}
);
width = 635;
},
{
layerId = "D5B43B4B-63DF-4B35-BEE3-B41B34784265";
paths = (
{
closed = 1;
nodes = (
"496 -14 OFFCURVE",
"625 89 OFFCURVE",
"625 248 CURVE SMOOTH",
"625 345 OFFCURVE",
"567 406 OFFCURVE",
"438 438 CURVE SMOOTH",
"361 457 LINE SMOOTH",
"325 466 OFFCURVE",
"301 475 OFFCURVE",
"290 484 CURVE SMOOTH",
"278 493 OFFCURVE",
"272 506 OFFCURVE",
"272 523 CURVE SMOOTH",
"272 575 OFFCURVE",
"328 606 OFFCURVE",
"421 606 CURVE SMOOTH",
"489 606 OFFCURVE",
"562 588 OFFCURVE",
"635 552 CURVE",
"665 706 LINE",
"580 730 OFFCURVE",
"496 742 OFFCURVE",
"417 742 CURVE SMOOTH",
"221 742 OFFCURVE",
"95 643 OFFCURVE",
"95 491 CURVE SMOOTH",
"95 395 OFFCURVE",
"150 335 OFFCURVE",
"263 307 CURVE SMOOTH",
"340 288 LINE SMOOTH",
"381 277 OFFCURVE",
"407 267 OFFCURVE",
"419 258 CURVE SMOOTH",
"431 248 OFFCURVE",
"437 234 OFFCURVE",
"437 216 CURVE SMOOTH",
"437 161 OFFCURVE",
"377 122 OFFCURVE",
"292 122 CURVE SMOOTH",
"212 122 OFFCURVE",
"132 146 OFFCURVE",
"45 197 CURVE",
"15 38 LINE",
"104 3 OFFCURVE",
"198 -14 OFFCURVE",
"293 -14 CURVE SMOOTH"
);
}
);
width = 720;
}
);
leftKerningGroup = S;
note = S;
rightKerningGroup = S;
unicode = 0053;
},
{
export = 0;
glyphname = T;
layers = (
{
layerId = "79F6B4AB-4C44-4F2D-9893-C213A8C041F5";
paths = (
{
closed = 1;
nodes = (
"320 0 LINE",
"320 646 LINE",
"553 646 LINE",
"553 729 LINE",
"-2 729 LINE",
"-2 646 LINE",
"231 646 LINE",
"231 0 LINE"
);
}
);
width = 549;
},
{
layerId = "EB88A49E-561A-4405-9552-C71224CBA53C";
paths = (
{
closed = 1;
nodes = (
"355 0 LINE",
"355 646 LINE",
"614 646 LINE",
"614 729 LINE",
"-3 729 LINE",
"-3 646 LINE",
"256 646 LINE",
"256 0 LINE"
);
}
);
width = 611;
},
{
layerId = "5297CC84-2E5E-44C2-8BD8-B52BBF62A592";
paths = (
{
closed = 1;
nodes = (
"435 0 LINE",
"435 587 LINE",
"677 587 LINE",
"677 729 LINE",
"5 729 LINE",
"5 587 LINE",
"247 587 LINE",
"247 0 LINE"
);
}
);
width = 682;
},
{
layerId = "5FB0259D-C3EC-4F0F-ABB4-6EFEC5FB1D78";
paths = (
{
closed = 1;
nodes = (
"392 0 LINE",
"392 587 LINE",
"609 587 LINE",
"609 729 LINE",
"4 729 LINE",
"4 587 LINE",
"222 587 LINE",
"222 0 LINE"
);
}
);
width = 614;
},
{
layerId = "79D829DC-9C66-44C2-8B43-D291CF08F0E9";
paths = (
{
closed = 1;
nodes = (
"275 0 LINE",
"400 646 LINE",
"660 646 LINE",
"676 729 LINE",
"59 729 LINE",
"43 646 LINE",
"301 646 LINE",
"176 0 LINE"
);
}
);
width = 611;
},
{
layerId = "217D6A7E-4635-413B-8BF5-4A1DD3DA67ED";
paths = (
{
closed = 1;
nodes = (
"248 0 LINE",
"360 646 LINE",
"594 646 LINE",
"608 729 LINE",
"53 729 LINE",
"39 646 LINE",
"271 646 LINE",
"158 0 LINE"
);
}
);
width = 549;
},
{
layerId = "BED8EE44-B183-4D86-965C-1BADD1250A61";
paths = (
{
closed = 1;
nodes = (
"327 0 LINE",
"430 587 LINE",
"648 587 LINE",
"673 729 LINE",
"68 729 LINE",
"43 587 LINE",
"261 587 LINE",
"158 0 LINE"
);
}
);
width = 614;
},
{
layerId = "99D829B7-D749-4014-BBE4-6F1A75B6E575";
paths = (
{
closed = 1;
nodes = (
"330 0 LINE",
"330 689 LINE",
"589 689 LINE",
"589 729 LINE",
"22 729 LINE",
"22 689 LINE",
"281 689 LINE",
"281 0 LINE"
);
}
);
width = 611;
},
{
layerId = "D5B43B4B-63DF-4B35-BEE3-B41B34784265";
paths = (
{
closed = 1;
nodes = (
"364 0 LINE",
"478 587 LINE",
"720 587 LINE",
"748 729 LINE",
"76 729 LINE",
"48 587 LINE",
"290 587 LINE",
"176 0 LINE"
);
}
);
width = 682;
}
);
leftKerningGroup = T;
note = T;
rightKerningGroup = T;
unicode = 0054;
},
{
export = 0;
glyphname = U;
layers = (
{
layerId = "79F6B4AB-4C44-4F2D-9893-C213A8C041F5";
paths = (
{
closed = 1;
nodes = (
"495 -14 OFFCURVE",
"581 83 OFFCURVE",
"581 274 CURVE SMOOTH",
"581 729 LINE",
"491 729 LINE",
"491 286 LINE SMOOTH",
"491 130 OFFCURVE",
"443 66 OFFCURVE",
"330 66 CURVE SMOOTH",
"215 66 OFFCURVE",
"167 130 OFFCURVE",
"167 286 CURVE SMOOTH",
"167 729 LINE",
"78 729 LINE",
"78 274 LINE SMOOTH",
"78 83 OFFCURVE",
"163 -14 OFFCURVE",
"330 -14 CURVE SMOOTH"
);
}
);
width = 659;
},
{
layerId = "EB88A49E-561A-4405-9552-C71224CBA53C";
paths = (
{
closed = 1;
nodes = (
"550 -14 OFFCURVE",
"645 83 OFFCURVE",
"645 274 CURVE SMOOTH",
"645 729 LINE",
"546 729 LINE",
"546 286 LINE SMOOTH",
"546 130 OFFCURVE",
"493 66 OFFCURVE",
"366 66 CURVE SMOOTH",
"239 66 OFFCURVE",
"186 130 OFFCURVE",
"186 286 CURVE SMOOTH",
"186 729 LINE",
"87 729 LINE",
"87 274 LINE SMOOTH",
"87 83 OFFCURVE",
"182 -14 OFFCURVE",
"366 -14 CURVE SMOOTH"
);
}
);
width = 732;
},
{
layerId = "5297CC84-2E5E-44C2-8BD8-B52BBF62A592";
paths = (
{
closed = 1;
nodes = (
"618 -14 OFFCURVE",
"720 85 OFFCURVE",
"720 292 CURVE SMOOTH",
"720 729 LINE",
"532 729 LINE",
"532 292 LINE SMOOTH",
"532 172 OFFCURVE",
"495 124 OFFCURVE",
"406 124 CURVE SMOOTH",
"317 124 OFFCURVE",
"280 172 OFFCURVE",
"280 292 CURVE SMOOTH",
"280 729 LINE",
"92 729 LINE",
"92 292 LINE SMOOTH",
"92 85 OFFCURVE",
"194 -14 OFFCURVE",
"406 -14 CURVE SMOOTH"
);
}
);
width = 812;
},
{
layerId = "5FB0259D-C3EC-4F0F-ABB4-6EFEC5FB1D78";
paths = (
{
closed = 1;
nodes = (
"556 -14 OFFCURVE",
"648 85 OFFCURVE",
"648 292 CURVE SMOOTH",
"648 729 LINE",
"479 729 LINE",
"479 292 LINE SMOOTH",
"479 172 OFFCURVE",
"446 124 OFFCURVE",
"365 124 CURVE SMOOTH",
"285 124 OFFCURVE",
"252 172 OFFCURVE",
"252 292 CURVE SMOOTH",
"252 729 LINE",
"83 729 LINE",
"83 292 LINE SMOOTH",
"83 85 OFFCURVE",
"174 -14 OFFCURVE",
"365 -14 CURVE SMOOTH"
);
}
);
width = 730;
},
{
layerId = "79D829DC-9C66-44C2-8B43-D291CF08F0E9";
paths = (
{
closed = 1;
nodes = (
"482 -14 OFFCURVE",
"586 77 OFFCURVE",
"625 274 CURVE SMOOTH",
"713 729 LINE",
"614 729 LINE",
"528 286 LINE SMOOTH",
"497 130 OFFCURVE",
"431 66 OFFCURVE",
"306 66 CURVE SMOOTH",
"209 66 OFFCURVE",
"158 114 OFFCURVE",
"158 203 CURVE SMOOTH",
"158 223 OFFCURVE",
"161 246 OFFCURVE",
"168 286 CURVE SMOOTH",
"254 729 LINE",
"155 729 LINE",
"68 274 LINE SMOOTH",
"61 242 OFFCURVE",
"58 213 OFFCURVE",
"58 190 CURVE SMOOTH",
"58 65 OFFCURVE",
"150 -14 OFFCURVE",
"295 -14 CURVE SMOOTH"
);
}
);
width = 732;
},
{
layerId = "217D6A7E-4635-413B-8BF5-4A1DD3DA67ED";
paths = (
{
closed = 1;
nodes = (
"434 -14 OFFCURVE",
"528 77 OFFCURVE",
"563 274 CURVE SMOOTH",
"642 729 LINE",
"552 729 LINE",
"475 286 LINE SMOOTH",
"448 130 OFFCURVE",
"388 66 OFFCURVE",
"275 66 CURVE SMOOTH",
"188 66 OFFCURVE",
"143 114 OFFCURVE",
"143 203 CURVE SMOOTH",
"143 223 OFFCURVE",
"144 246 OFFCURVE",
"151 286 CURVE SMOOTH",
"229 729 LINE",
"139 729 LINE",
"61 274 LINE SMOOTH",
"56 242 OFFCURVE",
"52 213 OFFCURVE",
"52 190 CURVE SMOOTH",
"52 65 OFFCURVE",
"134 -14 OFFCURVE",
"266 -14 CURVE SMOOTH"
);
}
);
width = 659;
},
{
layerId = "BED8EE44-B183-4D86-965C-1BADD1250A61";
paths = (
{
closed = 1;
nodes = (
"496 -14 OFFCURVE",
"598 77 OFFCURVE",
"635 292 CURVE SMOOTH",
"712 729 LINE",
"543 729 LINE",
"466 292 LINE SMOOTH",
"445 171 OFFCURVE",
"406 124 OFFCURVE",
"323 124 CURVE SMOOTH",
"262 124 OFFCURVE",
"231 155 OFFCURVE",
"231 219 CURVE SMOOTH",
"231 238 OFFCURVE",
"234 261 OFFCURVE",
"239 292 CURVE SMOOTH",
"316 729 LINE",
"147 729 LINE",
"70 292 LINE SMOOTH",
"63 253 OFFCURVE",
"61 226 OFFCURVE",
"61 202 CURVE SMOOTH",
"61 62 OFFCURVE",
"144 -14 OFFCURVE",
"299 -14 CURVE SMOOTH"
);
}
);
width = 730;
},
{
layerId = "99D829B7-D749-4014-BBE4-6F1A75B6E575";
paths = (
{
closed = 1;
nodes = (
"450 -14 OFFCURVE",
"513 10 OFFCURVE",
"556 59 CURVE SMOOTH",
"599 107 OFFCURVE",
"620 179 OFFCURVE",
"620 274 CURVE SMOOTH",
"620 729 LINE",
"571 729 LINE",
"571 286 LINE SMOOTH",
"571 193 OFFCURVE",
"555 127 OFFCURVE",
"522 86 CURVE SMOOTH",
"490 46 OFFCURVE",
"438 26 OFFCURVE",
"366 26 CURVE SMOOTH",
"294 26 OFFCURVE",
"242 46 OFFCURVE",
"209 86 CURVE SMOOTH",
"177 127 OFFCURVE",
"161 193 OFFCURVE",
"161 286 CURVE SMOOTH",
"161 729 LINE",
"112 729 LINE",
"112 274 LINE SMOOTH",
"112 179 OFFCURVE",
"133 107 OFFCURVE",
"176 59 CURVE SMOOTH",
"219 10 OFFCURVE",
"282 -14 OFFCURVE",
"366 -14 CURVE SMOOTH"
);
}
);
width = 732;
},
{
layerId = "D5B43B4B-63DF-4B35-BEE3-B41B34784265";
paths = (
{
closed = 1;
nodes = (
"552 -14 OFFCURVE",
"663 77 OFFCURVE",
"706 292 CURVE SMOOTH",
"791 729 LINE",
"603 729 LINE",
"518 292 LINE SMOOTH",
"494 171 OFFCURVE",
"450 124 OFFCURVE",
"359 124 CURVE SMOOTH",
"291 124 OFFCURVE",
"257 155 OFFCURVE",
"257 219 CURVE SMOOTH",
"257 238 OFFCURVE",
"259 261 OFFCURVE",
"266 292 CURVE SMOOTH",
"351 729 LINE",
"163 729 LINE",
"78 292 LINE SMOOTH",
"71 253 OFFCURVE",
"68 226 OFFCURVE",
"68 202 CURVE SMOOTH",
"68 62 OFFCURVE",
"160 -14 OFFCURVE",
"332 -14 CURVE SMOOTH"
);
}
);
width = 812;
}
);
leftKerningGroup = U;
note = U;
rightKerningGroup = U;
unicode = 0055;
},
{
export = 0;
glyphname = V;
layers = (
{
layerId = "79F6B4AB-4C44-4F2D-9893-C213A8C041F5";
paths = (
{
closed = 1;
nodes = (
"358 0 LINE",
"608 729 LINE",
"516 729 LINE",
"308 115 LINE",
"100 729 LINE",
"7 729 LINE",
"257 0 LINE"
);
}
);
width = 615;
},
{
layerId = "EB88A49E-561A-4405-9552-C71224CBA53C";
paths = (
{
closed = 1;
nodes = (
"398 0 LINE",
"676 729 LINE",
"573 729 LINE",
"342 115 LINE",
"111 729 LINE",
"8 729 LINE",
"286 0 LINE"
);
}
);
width = 684;
},
{
layerId = "5297CC84-2E5E-44C2-8BD8-B52BBF62A592";
paths = (
{
closed = 1;
nodes = (
"499 0 LINE",
"769 729 LINE",
"580 729 LINE",
"387 191 LINE",
"194 729 LINE",
"5 729 LINE",
"275 0 LINE"
);
}
);
width = 774;
},
{
layerId = "5FB0259D-C3EC-4F0F-ABB4-6EFEC5FB1D78";
paths = (
{
closed = 1;
nodes = (
"449 0 LINE",
"692 729 LINE",
"522 729 LINE",
"349 191 LINE",
"174 729 LINE",
"4 729 LINE",
"248 0 LINE"
);
}
);
width = 696;
},
{
layerId = "79D829DC-9C66-44C2-8B43-D291CF08F0E9";
paths = (
{
closed = 1;
nodes = (
"321 0 LINE",
"742 729 LINE",
"635 729 LINE",
"281 102 LINE",
"175 729 LINE",
"78 729 LINE",
"206 0 LINE"
);
}
);
width = 684;
},
{
layerId = "217D6A7E-4635-413B-8BF5-4A1DD3DA67ED";
paths = (
{
closed = 1;
nodes = (
"289 0 LINE",
"668 729 LINE",
"571 729 LINE",
"253 102 LINE",
"157 729 LINE",
"70 729 LINE",
"186 0 LINE"
);
}
);
width = 615;
},
{
layerId = "BED8EE44-B183-4D86-965C-1BADD1250A61";
paths = (
{
closed = 1;
nodes = (
"385 0 LINE",
"756 729 LINE",
"582 729 LINE",
"310 184 LINE",
"229 729 LINE",
"68 729 LINE",
"184 0 LINE"
);
}
);
width = 696;
},
{
layerId = "99D829B7-D749-4014-BBE4-6F1A75B6E575";
paths = (
{
closed = 1;
nodes = (
"373 0 LINE",
"651 729 LINE",
"600 729 LINE",
"342 49 LINE",
"86 729 LINE",
"30 729 LINE",
"309 0 LINE"
);
}
);
width = 684;
},
{
layerId = "D5B43B4B-63DF-4B35-BEE3-B41B34784265";
paths = (
{
closed = 1;
nodes = (
"428 0 LINE",
"840 729 LINE",
"646 729 LINE",
"344 184 LINE",
"255 729 LINE",
"76 729 LINE",
"204 0 LINE"
);
}
);
width = 774;
}
);
leftKerningGroup = V;
note = V;
rightKerningGroup = V;
unicode = 0056;
},
{
export = 0;
glyphname = W;
layers = (
{
layerId = "79F6B4AB-4C44-4F2D-9893-C213A8C041F5";
paths = (
{
closed = 1;
nodes = (
"306 0 LINE",
"446 633 LINE",
"584 0 LINE",
"696 0 LINE",
"860 729 LINE",
"771 729 LINE",
"633 113 LINE",
"495 729 LINE",
"395 729 LINE",
"257 113 LINE",
"120 729 LINE",
"30 729 LINE",
"194 0 LINE"
);
}
);
width = 890;
},
{
layerId = "EB88A49E-561A-4405-9552-C71224CBA53C";
paths = (
{
closed = 1;
nodes = (
"340 0 LINE",
"495 633 LINE",
"649 0 LINE",
"773 0 LINE",
"956 729 LINE",
"856 729 LINE",
"703 113 LINE",
"550 729 LINE",
"439 729 LINE",
"286 113 LINE",
"133 729 LINE",
"33 729 LINE",
"216 0 LINE"
);
}
);
width = 989;
},
{
layerId = "5297CC84-2E5E-44C2-8BD8-B52BBF62A592";
paths = (
{
closed = 1;
nodes = (
"420 0 LINE",
"551 554 LINE",
"683 0 LINE",
"900 0 LINE",
"1072 729 LINE",
"893 729 LINE",
"767 199 LINE",
"642 729 LINE",
"461 729 LINE",
"336 199 LINE",
"210 729 LINE",
"30 729 LINE",
"203 0 LINE"
);
}
);
width = 1103;
},
{
layerId = "5FB0259D-C3EC-4F0F-ABB4-6EFEC5FB1D78";
paths = (
{
closed = 1;
nodes = (
"378 0 LINE",
"496 554 LINE",
"615 0 LINE",
"810 0 LINE",
"965 729 LINE",
"804 729 LINE",
"690 199 LINE",
"578 729 LINE",
"415 729 LINE",
"302 199 LINE",
"189 729 LINE",
"27 729 LINE",
"183 0 LINE"
);
}
);
width = 993;
},
{
layerId = "79D829DC-9C66-44C2-8B43-D291CF08F0E9";
paths = (
{
closed = 1;
nodes = (
"265 0 LINE",
"538 608 LINE",
"572 0 LINE",
"696 0 LINE",
"1020 729 LINE",
"920 729 LINE",
"648 109 LINE",
"612 729 LINE",
"502 729 LINE",
"227 109 LINE",
"192 729 LINE",
"96 729 LINE",
"141 0 LINE"
);
}
);
width = 989;
},
{
layerId = "217D6A7E-4635-413B-8BF5-4A1DD3DA67ED";
paths = (
{
closed = 1;
nodes = (
"239 0 LINE",
"484 608 LINE",
"515 0 LINE",
"626 0 LINE",
"918 729 LINE",
"828 729 LINE",
"583 109 LINE",
"551 729 LINE",
"452 729 LINE",
"204 109 LINE",
"173 729 LINE",
"86 729 LINE",
"127 0 LINE"
);
}
);
width = 890;
},
{
layerId = "BED8EE44-B183-4D86-965C-1BADD1250A61";
paths = (
{
closed = 1;
nodes = (
"320 0 LINE",
"533 554 LINE",
"555 0 LINE",
"746 0 LINE",
"1029 729 LINE",
"860 729 LINE",
"661 199 LINE",
"640 729 LINE",
"479 729 LINE",
"273 199 LINE",
"253 729 LINE",
"96 729 LINE",
"125 0 LINE"
);
}
);
width = 993;
},
{
layerId = "99D829B7-D749-4014-BBE4-6F1A75B6E575";
paths = (
{
closed = 1;
nodes = (
"322 0 LINE",
"483 649 LINE",
"644 0 LINE",
"714 0 LINE",
"895 729 LINE",
"845 729 LINE",
"679 62 LINE",
"514 729 LINE",
"452 729 LINE",
"286 58 LINE",
"120 729 LINE",
"69 729 LINE",
"250 0 LINE"
);
}
);
width = 989;
},
{
layerId = "D5B43B4B-63DF-4B35-BEE3-B41B34784265";
paths = (
{
closed = 1;
nodes = (
"356 0 LINE",
"592 554 LINE",
"616 0 LINE",
"829 0 LINE",
"1143 729 LINE",
"956 729 LINE",
"735 199 LINE",
"711 729 LINE",
"532 729 LINE",
"303 199 LINE",
"281 729 LINE",
"107 729 LINE",
"138 0 LINE"
);
}
);
width = 1103;
}
);
leftKerningGroup = W;
note = W;
rightKerningGroup = W;
unicode = 0057;
},
{
export = 0;
glyphname = X;
layers = (
{
layerId = "79F6B4AB-4C44-4F2D-9893-C213A8C041F5";
paths = (
{
closed = 1;
nodes = (
"123 0 LINE",
"309 310 LINE",
"493 0 LINE",
"588 0 LINE",
"363 379 LINE",
"574 729 LINE",
"479 729 LINE",
"315 458 LINE",
"152 729 LINE",
"57 729 LINE",
"261 389 LINE",
"27 0 LINE"
);
}
);
width = 616;
},
{
layerId = "EB88A49E-561A-4405-9552-C71224CBA53C";
paths = (
{
closed = 1;
nodes = (
"136 0 LINE",
"343 310 LINE",
"548 0 LINE",
"654 0 LINE",
"404 379 LINE",
"638 729 LINE",
"532 729 LINE",
"350 458 LINE",
"169 729 LINE",
"63 729 LINE",
"290 389 LINE",
"30 0 LINE"
);
}
);
width = 685;
},
{
layerId = "5297CC84-2E5E-44C2-8BD8-B52BBF62A592";
paths = (
{
closed = 1;
nodes = (
"216 0 LINE",
"385 249 LINE",
"555 0 LINE",
"751 0 LINE",
"498 372 LINE",
"741 729 LINE",
"544 729 LINE",
"385 494 LINE",
"225 729 LINE",
"29 729 LINE",
"272 372 LINE",
"19 0 LINE"
);
}
);
width = 771;
},
{
layerId = "5FB0259D-C3EC-4F0F-ABB4-6EFEC5FB1D78";
paths = (
{
closed = 1;
nodes = (
"194 0 LINE",
"346 249 LINE",
"500 0 LINE",
"676 0 LINE",
"448 372 LINE",
"667 729 LINE",
"490 729 LINE",
"346 494 LINE",
"203 729 LINE",
"26 729 LINE",
"245 372 LINE",
"17 0 LINE"
);
}
);
width = 694;
},
{
layerId = "79D829DC-9C66-44C2-8B43-D291CF08F0E9";
paths = (
{
closed = 1;
nodes = (
"72 0 LINE",
"338 307 LINE",
"485 0 LINE",
"584 0 LINE",
"403 381 LINE",
"703 729 LINE",
"588 729 LINE",
"362 466 LINE",
"237 729 LINE",
"137 729 LINE",
"298 392 LINE",
"-43 0 LINE"
);
}
);
width = 685;
},
{
layerId = "217D6A7E-4635-413B-8BF5-4A1DD3DA67ED";
paths = (
{
closed = 1;
nodes = (
"65 0 LINE",
"305 307 LINE",
"437 0 LINE",
"526 0 LINE",
"363 381 LINE",
"633 729 LINE",
"530 729 LINE",
"326 466 LINE",
"213 729 LINE",
"124 729 LINE",
"269 392 LINE",
"-38 0 LINE"
);
}
);
width = 616;
},
{
layerId = "BED8EE44-B183-4D86-965C-1BADD1250A61";
paths = (
{
closed = 1;
nodes = (
"137 0 LINE",
"329 244 LINE",
"436 0 LINE",
"608 0 LINE",
"447 369 LINE",
"731 729 LINE",
"547 729 LINE",
"368 500 LINE",
"267 729 LINE",
"94 729 LINE",
"250 374 LINE",
"-45 0 LINE"
);
}
);
width = 694;
},
{
layerId = "99D829B7-D749-4014-BBE4-6F1A75B6E575";
paths = (
{
closed = 1;
nodes = (
"115 0 LINE",
"344 343 LINE",
"573 0 LINE",
"629 0 LINE",
"375 381 LINE",
"609 729 LINE",
"553 729 LINE",
"348 423 LINE",
"144 729 LINE",
"88 729 LINE",
"316 385 LINE",
"59 0 LINE"
);
}
);
width = 685;
},
{
layerId = "D5B43B4B-63DF-4B35-BEE3-B41B34784265";
paths = (
{
closed = 1;
nodes = (
"152 0 LINE",
"365 244 LINE",
"484 0 LINE",
"675 0 LINE",
"496 369 LINE",
"812 729 LINE",
"608 729 LINE",
"408 500 LINE",
"296 729 LINE",
"104 729 LINE",
"277 374 LINE",
"-51 0 LINE"
);
}
);
width = 771;
}
);
leftKerningGroup = X;
note = X;
rightKerningGroup = X;
unicode = 0058;
},
{
export = 0;
glyphname = Y;
layers = (
{
layerId = "79F6B4AB-4C44-4F2D-9893-C213A8C041F5";
paths = (
{
closed = 1;
nodes = (
"320 0 LINE",
"320 347 LINE",
"552 729 LINE",
"457 729 LINE",
"276 429 LINE",
"94 729 LINE",
"-1 729 LINE",
"231 347 LINE",
"231 0 LINE"
);
}
);
width = 549;
},
{
layerId = "EB88A49E-561A-4405-9552-C71224CBA53C";
paths = (
{
closed = 1;
nodes = (
"355 0 LINE",
"355 347 LINE",
"613 729 LINE",
"507 729 LINE",
"306 429 LINE",
"104 729 LINE",
"-2 729 LINE",
"256 347 LINE",
"256 0 LINE"
);
}
);
width = 611;
},
{
layerId = "5297CC84-2E5E-44C2-8BD8-B52BBF62A592";
paths = (
{
closed = 1;
nodes = (
"456 0 LINE",
"456 307 LINE",
"734 729 LINE",
"528 729 LINE",
"362 469 LINE",
"196 729 LINE",
"-10 729 LINE",
"268 307 LINE",
"268 0 LINE"
);
}
);
width = 724;
},
{
layerId = "5FB0259D-C3EC-4F0F-ABB4-6EFEC5FB1D78";
paths = (
{
closed = 1;
nodes = (
"411 0 LINE",
"411 307 LINE",
"661 729 LINE",
"475 729 LINE",
"326 469 LINE",
"176 729 LINE",
"-9 729 LINE",
"241 307 LINE",
"241 0 LINE"
);
}
);
width = 651;
},
{
layerId = "79D829DC-9C66-44C2-8B43-D291CF08F0E9";
paths = (
{
closed = 1;
nodes = (
"278 0 LINE",
"345 347 LINE",
"676 729 LINE",
"565 729 LINE",
"305 429 LINE",
"169 729 LINE",
"63 729 LINE",
"246 347 LINE",
"179 0 LINE"
);
}
);
width = 611;
},
{
layerId = "217D6A7E-4635-413B-8BF5-4A1DD3DA67ED";
paths = (
{
closed = 1;
nodes = (
"250 0 LINE",
"311 347 LINE",
"608 729 LINE",
"508 729 LINE",
"274 429 LINE",
"152 729 LINE",
"57 729 LINE",
"222 347 LINE",
"161 0 LINE"
);
}
);
width = 549;
},
{
layerId = "BED8EE44-B183-4D86-965C-1BADD1250A61";
paths = (
{
closed = 1;
nodes = (
"351 0 LINE",
"404 304 LINE",
"728 729 LINE",
"533 729 LINE",
"337 459 LINE",
"226 729 LINE",
"57 729 LINE",
"235 304 LINE",
"182 0 LINE"
);
}
);
width = 651;
},
{
layerId = "99D829B7-D749-4014-BBE4-6F1A75B6E575";
paths = (
{
closed = 1;
nodes = (
"330 0 LINE",
"330 347 LINE",
"587 729 LINE",
"532 729 LINE",
"306 393 LINE",
"79 729 LINE",
"22 729 LINE",
"280 347 LINE",
"280 0 LINE"
);
}
);
width = 611;
},
{
layerId = "D5B43B4B-63DF-4B35-BEE3-B41B34784265";
paths = (
{
closed = 1;
nodes = (
"390 0 LINE",
"449 304 LINE",
"809 729 LINE",
"592 729 LINE",
"375 459 LINE",
"251 729 LINE",
"63 729 LINE",
"261 304 LINE",
"202 0 LINE"
);
}
);
width = 724;
}
);
leftKerningGroup = Y;
note = Y;
rightKerningGroup = Y;
unicode = 0059;
},
{
export = 0;
glyphname = Z;
layers = (
{
layerId = "79F6B4AB-4C44-4F2D-9893-C213A8C041F5";
paths = (
{
closed = 1;
nodes = (
"576 0 LINE",
"576 83 LINE",
"151 83 LINE",
"566 654 LINE",
"566 729 LINE",
"51 729 LINE",
"51 646 LINE",
"455 646 LINE",
"41 75 LINE",
"41 0 LINE"
);
}
);
width = 616;
},
{
layerId = "EB88A49E-561A-4405-9552-C71224CBA53C";
paths = (
{
closed = 1;
nodes = (
"640 0 LINE",
"640 83 LINE",
"168 83 LINE",
"629 654 LINE",
"629 729 LINE",
"56 729 LINE",
"56 646 LINE",
"506 646 LINE",
"45 75 LINE",
"45 0 LINE"
);
}
);
width = 685;
},
{
layerId = "5297CC84-2E5E-44C2-8BD8-B52BBF62A592";
paths = (
{
closed = 1;
nodes = (
"680 0 LINE",
"680 142 LINE",
"278 142 LINE",
"669 615 LINE",
"669 729 LINE",
"56 729 LINE",
"56 587 LINE",
"436 587 LINE",
"45 114 LINE",
"45 0 LINE"
);
}
);
width = 725;
},
{
layerId = "5FB0259D-C3EC-4F0F-ABB4-6EFEC5FB1D78";
paths = (
{
closed = 1;
nodes = (
"612 0 LINE",
"612 142 LINE",
"250 142 LINE",
"602 615 LINE",
"602 729 LINE",
"51 729 LINE",
"51 587 LINE",
"393 587 LINE",
"41 114 LINE",
"41 0 LINE"
);
}
);
width = 652;
},
{
layerId = "79D829DC-9C66-44C2-8B43-D291CF08F0E9";
paths = (
{
closed = 1;
nodes = (
"573 0 LINE",
"589 83 LINE",
"124 83 LINE",
"689 654 LINE",
"703 729 LINE",
"131 729 LINE",
"115 646 LINE",
"557 646 LINE",
"-8 75 LINE",
"-22 0 LINE"
);
}
);
width = 685;
},
{
layerId = "217D6A7E-4635-413B-8BF5-4A1DD3DA67ED";
paths = (
{
closed = 1;
nodes = (
"517 0 LINE",
"530 83 LINE",
"112 83 LINE",
"621 654 LINE",
"633 729 LINE",
"118 729 LINE",
"104 646 LINE",
"502 646 LINE",
"-6 75 LINE",
"-19 0 LINE"
);
}
);
width = 616;
},
{
layerId = "BED8EE44-B183-4D86-965C-1BADD1250A61";
paths = (
{
closed = 1;
nodes = (
"548 0 LINE",
"574 142 LINE",
"220 142 LINE",
"646 613 LINE",
"667 729 LINE",
"115 729 LINE",
"90 587 LINE",
"424 587 LINE",
"-3 116 LINE",
"-23 0 LINE"
);
}
);
width = 652;
},
{
layerId = "99D829B7-D749-4014-BBE4-6F1A75B6E575";
paths = (
{
closed = 1;
nodes = (
"640 0 LINE",
"640 40 LINE",
"104 40 LINE",
"629 689 LINE",
"629 729 LINE",
"56 729 LINE",
"56 688 LINE",
"569 688 LINE",
"45 40 LINE",
"45 0 LINE"
);
}
);
width = 685;
},
{
layerId = "D5B43B4B-63DF-4B35-BEE3-B41B34784265";
paths = (
{
closed = 1;
nodes = (
"609 0 LINE",
"637 142 LINE",
"244 142 LINE",
"717 613 LINE",
"740 729 LINE",
"127 729 LINE",
"99 587 LINE",
"470 587 LINE",
"-4 116 LINE",
"-26 0 LINE"
);
}
);
width = 725;
}
);
leftKerningGroup = Z;
note = Z;
rightKerningGroup = Z;
unicode = 005A;
},
{
glyphname = n;
layers = (
{
layerId = "79F6B4AB-4C44-4F2D-9893-C213A8C041F5";
paths = (
{
closed = 1;
nodes = (
"163 0 LINE",
"163 309 LINE SMOOTH",
"163 417 OFFCURVE",
"218 482 OFFCURVE",
"302 482 CURVE SMOOTH",
"376 482 OFFCURVE",
"413 432 OFFCURVE",
"413 327 CURVE SMOOTH",
"413 218 OFFCURVE",
"413 109 OFFCURVE",
"413 0 CURVE",
"494 0 LINE",
"494 110 OFFCURVE",
"494 220 OFFCURVE",
"494 330 CURVE SMOOTH",
"494 482 OFFCURVE",
"434 560 OFFCURVE",
"325 560 CURVE SMOOTH",
"243 560 OFFCURVE",
"187 516 OFFCURVE",
"146 430 CURVE",
"163 417 LINE",
"163 547 LINE",
"82 547 LINE",
"82 0 LINE"
);
}
);
width = 570;
},
{
layerId = "EB88A49E-561A-4405-9552-C71224CBA53C";
paths = (
{
closed = 1;
nodes = (
"181 0 LINE",
"181 309 LINE SMOOTH",
"181 417 OFFCURVE",
"242 482 OFFCURVE",
"336 482 CURVE SMOOTH",
"418 482 OFFCURVE",
"459 432 OFFCURVE",
"459 327 CURVE SMOOTH",
"459 218 OFFCURVE",
"459 109 OFFCURVE",
"459 0 CURVE",
"549 0 LINE",
"549 110 OFFCURVE",
"549 220 OFFCURVE",
"549 330 CURVE SMOOTH",
"549 482 OFFCURVE",
"482 560 OFFCURVE",
"361 560 CURVE SMOOTH",
"271 560 OFFCURVE",
"208 517 OFFCURVE",
"164 433 CURVE",
"181 417 LINE",
"181 547 LINE",
"91 547 LINE",
"91 0 LINE"
);
}
);
width = 634;
},
{
layerId = "5297CC84-2E5E-44C2-8BD8-B52BBF62A592";
paths = (
{
closed = 1;
nodes = (
"259 0 LINE",
"259 269 LINE SMOOTH",
"259 369 OFFCURVE",
"303 428 OFFCURVE",
"377 428 CURVE SMOOTH",
"461 428 OFFCURVE",
"458 351 OFFCURVE",
"458 255 CURVE SMOOTH",
"458 170 OFFCURVE",
"458 85 OFFCURVE",
"458 0 CURVE",
"634 0 LINE",
"634 111 OFFCURVE",
"634 222 OFFCURVE",
"634 333 CURVE SMOOTH",
"634 482 OFFCURVE",
"567 560 OFFCURVE",
"444 560 CURVE SMOOTH",
"359 560 OFFCURVE",
"295 522 OFFCURVE",
"238 438 CURVE",
"259 422 LINE",
"259 547 LINE",
"84 547 LINE",
"84 0 LINE"
);
}
);
width = 712;
},
{
layerId = "5FB0259D-C3EC-4F0F-ABB4-6EFEC5FB1D78";
paths = (
{
closed = 1;
nodes = (
"233 0 LINE",
"233 269 LINE SMOOTH",
"233 369 OFFCURVE",
"273 428 OFFCURVE",
"338 428 CURVE SMOOTH",
"415 428 OFFCURVE",
"412 349 OFFCURVE",
"412 255 CURVE SMOOTH",
"412 170 OFFCURVE",
"412 85 OFFCURVE",
"412 0 CURVE",
"570 0 LINE",
"570 111 OFFCURVE",
"570 222 OFFCURVE",
"570 333 CURVE SMOOTH",
"570 482 OFFCURVE",
"509 560 OFFCURVE",
"400 560 CURVE SMOOTH",
"323 560 OFFCURVE",
"266 522 OFFCURVE",
"212 436 CURVE",
"233 422 LINE",
"233 547 LINE",
"76 547 LINE",
"76 0 LINE"
);
}
);
width = 641;
},
{
layerId = "79D829DC-9C66-44C2-8B43-D291CF08F0E9";
paths = (
{
closed = 1;
nodes = (
"125 0 LINE",
"185 303 LINE SMOOTH",
"206 414 OFFCURVE",
"282 482 OFFCURVE",
"378 482 CURVE SMOOTH",
"439 482 OFFCURVE",
"476 450 OFFCURVE",
"476 395 CURVE SMOOTH",
"476 367 OFFCURVE",
"476 376 OFFCURVE",
"403 0 CURVE",
"493 0 LINE",
"554 310 OFFCURVE",
"566 361 OFFCURVE",
"566 411 CURVE SMOOTH",
"566 506 OFFCURVE",
"510 560 OFFCURVE",
"414 560 CURVE SMOOTH",
"327 560 OFFCURVE",
"243 514 OFFCURVE",
"195 435 CURVE",
"204 417 LINE",
"231 547 LINE",
"141 547 LINE",
"35 0 LINE"
);
}
);
width = 634;
},
{
layerId = "217D6A7E-4635-413B-8BF5-4A1DD3DA67ED";
paths = (
{
closed = 1;
nodes = (
"112 0 LINE",
"167 303 LINE SMOOTH",
"187 414 OFFCURVE",
"253 482 OFFCURVE",
"340 482 CURVE SMOOTH",
"399 482 OFFCURVE",
"427 450 OFFCURVE",
"429 395 CURVE SMOOTH",
"430 380 OFFCURVE",
"424 350 OFFCURVE",
"362 0 CURVE",
"444 0 LINE",
"503 347 OFFCURVE",
"509 367 OFFCURVE",
"509 407 CURVE SMOOTH",
"509 507 OFFCURVE",
"460 560 OFFCURVE",
"373 560 CURVE SMOOTH",
"292 560 OFFCURVE",
"220 513 OFFCURVE",
"172 433 CURVE",
"182 417 LINE",
"208 547 LINE",
"127 547 LINE",
"32 0 LINE"
);
}
);
width = 570;
},
{
layerId = "BED8EE44-B183-4D86-965C-1BADD1250A61";
paths = (
{
closed = 1;
nodes = (
"186 0 LINE",
"234 269 LINE SMOOTH",
"252 369 OFFCURVE",
"300 428 OFFCURVE",
"365 428 CURVE SMOOTH",
"405 428 OFFCURVE",
"425 405 OFFCURVE",
"425 363 CURVE SMOOTH",
"425 345 OFFCURVE",
"421 311 OFFCURVE",
"364 0 CURVE",
"522 0 LINE",
"581 353 OFFCURVE",
"588 371 OFFCURVE",
"588 409 CURVE SMOOTH",
"588 506 OFFCURVE",
"537 560 OFFCURVE",
"448 560 CURVE SMOOTH",
"374 560 OFFCURVE",
"311 522 OFFCURVE",
"241 437 CURVE",
"259 423 LINE",
"282 547 LINE",
"124 547 LINE",
"28 0 LINE"
);
}
);
width = 641;
},
{
layerId = "99D829B7-D749-4014-BBE4-6F1A75B6E575";
paths = (
{
closed = 1;
nodes = (
"158 0 LINE",
"158 309 LINE SMOOTH",
"158 442 OFFCURVE",
"225 521 OFFCURVE",
"339 521 CURVE SMOOTH",
"436 521 OFFCURVE",
"481 459 OFFCURVE",
"481 327 CURVE SMOOTH",
"481 218 OFFCURVE",
"481 109 OFFCURVE",
"481 0 CURVE",
"526 0 LINE",
"526 110 OFFCURVE",
"526 220 OFFCURVE",
"526 330 CURVE SMOOTH",
"526 481 OFFCURVE",
"464 560 OFFCURVE",
"345 560 CURVE SMOOTH",
"248 560 OFFCURVE",
"179 509 OFFCURVE",
"145 413 CURVE",
"158 399 LINE",
"158 547 LINE",
"113 547 LINE",
"113 0 LINE"
);
}
);
width = 634;
},
{
layerId = "D5B43B4B-63DF-4B35-BEE3-B41B34784265";
paths = (
{
closed = 1;
nodes = (
"206 0 LINE",
"259 269 LINE SMOOTH",
"279 369 OFFCURVE",
"334 428 OFFCURVE",
"406 428 CURVE SMOOTH",
"449 428 OFFCURVE",
"472 404 OFFCURVE",
"472 363 CURVE SMOOTH",
"472 343 OFFCURVE",
"466 310 OFFCURVE",
"405 0 CURVE",
"580 0 LINE",
"649 355 OFFCURVE",
"654 370 OFFCURVE",
"654 409 CURVE SMOOTH",
"654 505 OFFCURVE",
"597 560 OFFCURVE",
"496 560 CURVE SMOOTH",
"416 560 OFFCURVE",
"344 521 OFFCURVE",
"271 440 CURVE",
"288 423 LINE",
"313 547 LINE",
"137 547 LINE",
"31 0 LINE"
);
}
);
width = 712;
}
);
leftKerningGroup = n;
note = n;
rightKerningGroup = n;
unicode = 006E;
},
{
glyphname = o;
layers = (
{
layerId = "79F6B4AB-4C44-4F2D-9893-C213A8C041F5";
paths = (
{
closed = 1;
nodes = (
"416 -14 OFFCURVE",
"501 94 OFFCURVE",
"501 273 CURVE SMOOTH",
"501 453 OFFCURVE",
"416 560 OFFCURVE",
"275 560 CURVE SMOOTH",
"134 560 OFFCURVE",
"50 453 OFFCURVE",
"50 273 CURVE SMOOTH",
"50 94 OFFCURVE",
"134 -14 OFFCURVE",
"275 -14 CURVE SMOOTH"
);
},
{
closed = 1;
nodes = (
"188 62 OFFCURVE",
"135 142 OFFCURVE",
"135 273 CURVE SMOOTH",
"135 404 OFFCURVE",
"188 484 OFFCURVE",
"275 484 CURVE SMOOTH",
"362 484 OFFCURVE",
"416 402 OFFCURVE",
"416 273 CURVE SMOOTH",
"416 142 OFFCURVE",
"362 62 OFFCURVE",
"275 62 CURVE SMOOTH"
);
}
);
width = 550;
},
{
layerId = "EB88A49E-561A-4405-9552-C71224CBA53C";
paths = (
{
closed = 1;
nodes = (
"462 -14 OFFCURVE",
"557 94 OFFCURVE",
"557 273 CURVE SMOOTH",
"557 453 OFFCURVE",
"462 560 OFFCURVE",
"306 560 CURVE SMOOTH",
"149 560 OFFCURVE",
"55 453 OFFCURVE",
"55 273 CURVE SMOOTH",
"55 94 OFFCURVE",
"149 -14 OFFCURVE",
"306 -14 CURVE SMOOTH"
);
},
{
closed = 1;
nodes = (
"209 62 OFFCURVE",
"150 142 OFFCURVE",
"150 273 CURVE SMOOTH",
"150 404 OFFCURVE",
"210 484 OFFCURVE",
"306 484 CURVE SMOOTH",
"402 484 OFFCURVE",
"462 402 OFFCURVE",
"462 273 CURVE SMOOTH",
"462 142 OFFCURVE",
"402 62 OFFCURVE",
"306 62 CURVE SMOOTH"
);
}
);
width = 612;
},
{
layerId = "5297CC84-2E5E-44C2-8BD8-B52BBF62A592";
paths = (
{
closed = 1;
nodes = (
"532 -14 OFFCURVE",
"644 93 OFFCURVE",
"644 273 CURVE SMOOTH",
"644 453 OFFCURVE",
"532 560 OFFCURVE",
"344 560 CURVE SMOOTH",
"156 560 OFFCURVE",
"43 453 OFFCURVE",
"43 273 CURVE SMOOTH",
"43 93 OFFCURVE",
"156 -14 OFFCURVE",
"344 -14 CURVE SMOOTH"
);
},
{
closed = 1;
nodes = (
"267 111 OFFCURVE",
"225 168 OFFCURVE",
"225 273 CURVE SMOOTH",
"225 378 OFFCURVE",
"267 435 OFFCURVE",
"344 435 CURVE SMOOTH",
"420 435 OFFCURVE",
"462 378 OFFCURVE",
"462 273 CURVE SMOOTH",
"462 168 OFFCURVE",
"420 111 OFFCURVE",
"344 111 CURVE SMOOTH"
);
}
);
width = 687;
},
{
layerId = "5FB0259D-C3EC-4F0F-ABB4-6EFEC5FB1D78";
paths = (
{
closed = 1;
nodes = (
"479 -14 OFFCURVE",
"580 93 OFFCURVE",
"580 273 CURVE SMOOTH",
"580 453 OFFCURVE",
"479 560 OFFCURVE",
"310 560 CURVE SMOOTH",
"141 560 OFFCURVE",
"39 453 OFFCURVE",
"39 273 CURVE SMOOTH",
"39 93 OFFCURVE",
"141 -14 OFFCURVE",
"310 -14 CURVE SMOOTH"
);
},
{
closed = 1;
nodes = (
"239 111 OFFCURVE",
"203 168 OFFCURVE",
"203 273 CURVE SMOOTH",
"203 378 OFFCURVE",
"239 435 OFFCURVE",
"310 435 CURVE SMOOTH",
"378 435 OFFCURVE",
"416 378 OFFCURVE",
"416 273 CURVE SMOOTH",
"416 168 OFFCURVE",
"378 111 OFFCURVE",
"310 111 CURVE SMOOTH"
);
}
);
width = 618;
},
{
layerId = "217D6A7E-4635-413B-8BF5-4A1DD3DA67ED";
paths = (
{
closed = 1;
nodes = (
"388 -14 OFFCURVE",
"509 141 OFFCURVE",
"509 342 CURVE SMOOTH",
"509 478 OFFCURVE",
"437 560 OFFCURVE",
"318 560 CURVE SMOOTH",
"164 560 OFFCURVE",
"42 405 OFFCURVE",
"42 209 CURVE SMOOTH",
"42 69 OFFCURVE",
"113 -14 OFFCURVE",
"232 -14 CURVE SMOOTH"
);
},
{
closed = 1;
nodes = (
"161 62 OFFCURVE",
"125 112 OFFCURVE",
"125 213 CURVE SMOOTH",
"125 367 OFFCURVE",
"207 484 OFFCURVE",
"315 484 CURVE SMOOTH",
"390 484 OFFCURVE",
"426 436 OFFCURVE",
"426 334 CURVE SMOOTH",
"426 178 OFFCURVE",
"344 62 OFFCURVE",
"234 62 CURVE SMOOTH"
);
}
);
width = 550;
},
{
layerId = "BED8EE44-B183-4D86-965C-1BADD1250A61";
paths = (
{
closed = 1;
nodes = (
"453 -14 OFFCURVE",
"586 142 OFFCURVE",
"586 326 CURVE SMOOTH",
"586 473 OFFCURVE",
"497 560 OFFCURVE",
"350 560 CURVE SMOOTH",
"165 560 OFFCURVE",
"33 403 OFFCURVE",
"33 218 CURVE SMOOTH",
"33 74 OFFCURVE",
"121 -14 OFFCURVE",
"268 -14 CURVE SMOOTH"
);
},
{
closed = 1;
nodes = (
"226 111 OFFCURVE",
"197 146 OFFCURVE",
"197 226 CURVE SMOOTH",
"197 335 OFFCURVE",
"251 435 OFFCURVE",
"340 435 CURVE SMOOTH",
"392 435 OFFCURVE",
"421 400 OFFCURVE",
"421 320 CURVE SMOOTH",
"421 212 OFFCURVE",
"367 111 OFFCURVE",
"278 111 CURVE SMOOTH"
);
}
);
width = 618;
},
{
layerId = "99D829B7-D749-4014-BBE4-6F1A75B6E575";
paths = (
{
closed = 1;
nodes = (
"454 -17 OFFCURVE",
"532 106 OFFCURVE",
"532 273 CURVE SMOOTH",
"532 434 OFFCURVE",
"456 560 OFFCURVE",
"306 560 CURVE SMOOTH",
"166 560 OFFCURVE",
"79 449 OFFCURVE",
"79 273 CURVE SMOOTH",
"79 108 OFFCURVE",
"155 -17 OFFCURVE",
"306 -17 CURVE SMOOTH"
);
},
{
closed = 1;
nodes = (
"185 24 OFFCURVE",
"126 132 OFFCURVE",
"126 274 CURVE SMOOTH",
"126 410 OFFCURVE",
"185 521 OFFCURVE",
"307 521 CURVE SMOOTH",
"425 521 OFFCURVE",
"487 412 OFFCURVE",
"487 274 CURVE SMOOTH",
"487 136 OFFCURVE",
"429 24 OFFCURVE",
"307 24 CURVE SMOOTH"
);
}
);
width = 612;
},
{
associatedMasterId = "79D829DC-9C66-44C2-8B43-D291CF08F0E9";
layerId = "BD9C0221-2C02-4E8C-8FA6-71BC2954E208";
name = "Original Cubic";
paths = (
{
closed = 1;
nodes = (
"355 -14 OFFCURVE",
"433 26 OFFCURVE",
"497 114 CURVE SMOOTH",
"538 170 OFFCURVE",
"566 263 OFFCURVE",
"566 350 CURVE SMOOTH",
"566 475 OFFCURVE",
"482 560 OFFCURVE",
"358 560 CURVE SMOOTH",
"258 560 OFFCURVE",
"180 520 OFFCURVE",
"115 432 CURVE SMOOTH",
"74 376 OFFCURVE",
"46 287 OFFCURVE",
"46 207 CURVE SMOOTH",
"46 70 OFFCURVE",
"126 -14 OFFCURVE",
"254 -14 CURVE SMOOTH"
);
},
{
closed = 1;
nodes = (
"180 62 OFFCURVE",
"139 111 OFFCURVE",
"139 210 CURVE SMOOTH",
"139 275 OFFCURVE",
"156 340 OFFCURVE",
"187 388 CURVE SMOOTH",
"228 453 OFFCURVE",
"280 484 OFFCURVE",
"348 484 CURVE SMOOTH",
"431 484 OFFCURVE",
"473 436 OFFCURVE",
"473 341 CURVE SMOOTH",
"473 180 OFFCURVE",
"384 62 OFFCURVE",
"264 62 CURVE SMOOTH"
);
}
);
width = 612;
},
{
layerId = "79D829DC-9C66-44C2-8B43-D291CF08F0E9";
paths = (
{
closed = 1;
nodes = (
"435 -14 OFFCURVE",
"566 147 OFFCURVE",
"566 334 CURVE SMOOTH",
"566 483 OFFCURVE",
"482 560 OFFCURVE",
"358 560 CURVE SMOOTH",
"181 560 OFFCURVE",
"46 404 OFFCURVE",
"46 214 CURVE SMOOTH",
"46 68 OFFCURVE",
"126 -14 OFFCURVE",
"254 -14 CURVE SMOOTH"
);
},
{
closed = 1;
nodes = (
"180 62 OFFCURVE",
"139 111 OFFCURVE",
"139 214 CURVE SMOOTH",
"139 366 OFFCURVE",
"229 484 OFFCURVE",
"353 484 CURVE SMOOTH",
"431 484 OFFCURVE",
"473 437 OFFCURVE",
"473 333 CURVE SMOOTH",
"473 181 OFFCURVE",
"384 62 OFFCURVE",
"260 62 CURVE SMOOTH"
);
}
);
width = 612;
},
{
associatedMasterId = "D5B43B4B-63DF-4B35-BEE3-B41B34784265";
layerId = "0B2415A7-5FA3-4EDC-8AB0-3A158D27C7D0";
name = "Original Cubic";
paths = (
{
closed = 1;
nodes = (
"407 -14 OFFCURVE",
"498 25 OFFCURVE",
"565 102 CURVE SMOOTH",
"621 166 OFFCURVE",
"651 246 OFFCURVE",
"651 329 CURVE SMOOTH",
"651 472 OFFCURVE",
"552 560 OFFCURVE",
"389 560 CURVE SMOOTH",
"280 560 OFFCURVE",
"188 520 OFFCURVE",
"123 445 CURVE SMOOTH",
"67 380 OFFCURVE",
"36 298 OFFCURVE",
"36 217 CURVE SMOOTH",
"36 74 OFFCURVE",
"135 -14 OFFCURVE",
"296 -14 CURVE SMOOTH"
);
},
{
closed = 1;
nodes = (
"252 111 OFFCURVE",
"219 148 OFFCURVE",
"219 217 CURVE SMOOTH",
"219 344 OFFCURVE",
"284 435 OFFCURVE",
"375 435 CURVE SMOOTH",
"435 435 OFFCURVE",
"468 398 OFFCURVE",
"468 330 CURVE SMOOTH",
"468 202 OFFCURVE",
"403 111 OFFCURVE",
"312 111 CURVE SMOOTH"
);
}
);
width = 687;
},
{
layerId = "D5B43B4B-63DF-4B35-BEE3-B41B34784265";
paths = (
{
closed = 1;
nodes = (
"495 -14 OFFCURVE",
"651 134 OFFCURVE",
"651 327 CURVE SMOOTH",
"651 472 OFFCURVE",
"552 560 OFFCURVE",
"389 560 CURVE SMOOTH",
"190 560 OFFCURVE",
"36 410 OFFCURVE",
"36 217 CURVE SMOOTH",
"36 74 OFFCURVE",
"135 -14 OFFCURVE",
"296 -14 CURVE SMOOTH"
);
},
{
closed = 1;
nodes = (
"252 111 OFFCURVE",
"219 146 OFFCURVE",
"219 226 CURVE SMOOTH",
"219 335 OFFCURVE",
"279 435 OFFCURVE",
"378 435 CURVE SMOOTH",
"435 435 OFFCURVE",
"468 401 OFFCURVE",
"468 320 CURVE SMOOTH",
"468 211 OFFCURVE",
"408 111 OFFCURVE",
"310 111 CURVE SMOOTH"
);
}
);
width = 687;
},
{
associatedMasterId = "217D6A7E-4635-413B-8BF5-4A1DD3DA67ED";
layerId = "A259905D-7968-4C0B-8D04-FBD126736DD8";
name = "Original Cubic";
paths = (
{
closed = 1;
nodes = (
"320 -14 OFFCURVE",
"390 26 OFFCURVE",
"447 114 CURVE SMOOTH",
"484 170 OFFCURVE",
"509 263 OFFCURVE",
"509 350 CURVE SMOOTH",
"509 475 OFFCURVE",
"434 560 OFFCURVE",
"322 560 CURVE SMOOTH",
"231 560 OFFCURVE",
"161 520 OFFCURVE",
"104 432 CURVE SMOOTH",
"67 376 OFFCURVE",
"42 287 OFFCURVE",
"42 207 CURVE SMOOTH",
"42 70 OFFCURVE",
"113 -14 OFFCURVE",
"229 -14 CURVE SMOOTH"
);
},
{
closed = 1;
nodes = (
"162 62 OFFCURVE",
"125 111 OFFCURVE",
"125 210 CURVE SMOOTH",
"125 275 OFFCURVE",
"140 340 OFFCURVE",
"168 388 CURVE SMOOTH",
"205 453 OFFCURVE",
"253 484 OFFCURVE",
"313 484 CURVE SMOOTH",
"388 484 OFFCURVE",
"426 436 OFFCURVE",
"426 341 CURVE SMOOTH",
"426 180 OFFCURVE",
"346 62 OFFCURVE",
"238 62 CURVE SMOOTH"
);
}
);
width = 550;
},
{
associatedMasterId = "BED8EE44-B183-4D86-965C-1BADD1250A61";
layerId = "5D071B21-34BE-48CA-91D0-CF4D4A2C2CE6";
name = "Original Cubic";
paths = (
{
closed = 1;
nodes = (
"366 -14 OFFCURVE",
"449 25 OFFCURVE",
"508 102 CURVE SMOOTH",
"559 166 OFFCURVE",
"586 246 OFFCURVE",
"586 329 CURVE SMOOTH",
"586 472 OFFCURVE",
"497 560 OFFCURVE",
"350 560 CURVE SMOOTH",
"251 560 OFFCURVE",
"170 520 OFFCURVE",
"111 445 CURVE SMOOTH",
"60 380 OFFCURVE",
"33 298 OFFCURVE",
"33 217 CURVE SMOOTH",
"33 74 OFFCURVE",
"122 -14 OFFCURVE",
"266 -14 CURVE SMOOTH"
);
},
{
closed = 1;
nodes = (
"226 111 OFFCURVE",
"197 148 OFFCURVE",
"197 217 CURVE SMOOTH",
"197 344 OFFCURVE",
"256 435 OFFCURVE",
"337 435 CURVE SMOOTH",
"392 435 OFFCURVE",
"421 398 OFFCURVE",
"421 330 CURVE SMOOTH",
"421 202 OFFCURVE",
"362 111 OFFCURVE",
"281 111 CURVE SMOOTH"
);
}
);
width = 618;
}
);
leftKerningGroup = o;
note = o;
rightKerningGroup = o;
unicode = 006F;
},
{
export = 0;
glyphname = a;
layers = (
{
layerId = "79F6B4AB-4C44-4F2D-9893-C213A8C041F5";
paths = (
{
closed = 1;
nodes = (
"299 -14 OFFCURVE",
"352 16 OFFCURVE",
"389 83 CURVE",
"389 0 LINE",
"470 0 LINE",
"470 312 LINE SMOOTH",
"470 479 OFFCURVE",
"400 560 OFFCURVE",
"257 560 CURVE SMOOTH",
"205 560 OFFCURVE",
"149 547 OFFCURVE",
"90 522 CURVE",
"90 439 LINE",
"139 468 OFFCURVE",
"193 484 OFFCURVE",
"249 484 CURVE SMOOTH",
"337 484 OFFCURVE",
"389 437 OFFCURVE",
"389 354 CURVE SMOOTH",
"389 345 LINE",
"275 345 LINE SMOOTH",
"128 345 OFFCURVE",
"54 282 OFFCURVE",
"54 159 CURVE SMOOTH",
"54 54 OFFCURVE",
"118 -14 OFFCURVE",
"219 -14 CURVE SMOOTH"
);
},
{
closed = 1;
nodes = (
"175 61 OFFCURVE",
"135 101 OFFCURVE",
"135 165 CURVE SMOOTH",
"135 245 OFFCURVE",
"177 275 OFFCURVE",
"309 275 CURVE SMOOTH",
"389 275 LINE",
"389 255 LINE SMOOTH",
"389 138 OFFCURVE",
"331 61 OFFCURVE",
"240 61 CURVE SMOOTH"
);
}
);
width = 551;
},
{
layerId = "EB88A49E-561A-4405-9552-C71224CBA53C";
paths = (
{
closed = 1;
nodes = (
"332 -14 OFFCURVE",
"391 16 OFFCURVE",
"432 83 CURVE",
"432 0 LINE",
"522 0 LINE",
"522 312 LINE SMOOTH",
"522 479 OFFCURVE",
"445 560 OFFCURVE",
"286 560 CURVE SMOOTH",
"227 560 OFFCURVE",
"165 547 OFFCURVE",
"100 522 CURVE",
"100 439 LINE",
"155 468 OFFCURVE",
"214 484 OFFCURVE",
"277 484 CURVE SMOOTH",
"376 484 OFFCURVE",
"432 437 OFFCURVE",
"432 354 CURVE SMOOTH",
"432 345 LINE",
"306 345 LINE SMOOTH",
"143 345 OFFCURVE",
"60 282 OFFCURVE",
"60 159 CURVE SMOOTH",
"60 54 OFFCURVE",
"131 -14 OFFCURVE",
"243 -14 CURVE SMOOTH"
);
},
{
closed = 1;
nodes = (
"195 61 OFFCURVE",
"150 101 OFFCURVE",
"150 165 CURVE SMOOTH",
"150 245 OFFCURVE",
"198 275 OFFCURVE",
"343 275 CURVE SMOOTH",
"432 275 LINE",
"432 255 LINE SMOOTH",
"432 138 OFFCURVE",
"367 61 OFFCURVE",
"267 61 CURVE SMOOTH"
);
}
);
width = 613;
},
{
layerId = "5297CC84-2E5E-44C2-8BD8-B52BBF62A592";
paths = (
{
closed = 1;
nodes = (
"318 -14 OFFCURVE",
"373 14 OFFCURVE",
"420 81 CURVE",
"420 0 LINE",
"596 0 LINE",
"596 312 LINE SMOOTH",
"596 487 OFFCURVE",
"514 560 OFFCURVE",
"317 560 CURVE SMOOTH",
"241 560 OFFCURVE",
"166 551 OFFCURVE",
"91 532 CURVE",
"91 399 LINE",
"146 428 OFFCURVE",
"210 444 OFFCURVE",
"285 444 CURVE SMOOTH",
"377 444 OFFCURVE",
"420 419 OFFCURVE",
"420 364 CURVE SMOOTH",
"420 350 LINE",
"317 350 LINE SMOOTH",
"128 350 OFFCURVE",
"43 292 OFFCURVE",
"43 164 CURVE SMOOTH",
"43 59 OFFCURVE",
"121 -14 OFFCURVE",
"234 -14 CURVE SMOOTH"
);
},
{
closed = 1;
nodes = (
"251 102 OFFCURVE",
"219 129 OFFCURVE",
"219 173 CURVE SMOOTH",
"219 221 OFFCURVE",
"256 246 OFFCURVE",
"329 246 CURVE SMOOTH",
"420 246 LINE",
"420 226 LINE SMOOTH",
"420 155 OFFCURVE",
"370 102 OFFCURVE",
"303 102 CURVE SMOOTH"
);
}
);
width = 675;
},
{
layerId = "5FB0259D-C3EC-4F0F-ABB4-6EFEC5FB1D78";
paths = (
{
closed = 1;
nodes = (
"286 -14 OFFCURVE",
"335 14 OFFCURVE",
"378 81 CURVE",
"378 0 LINE",
"537 0 LINE",
"537 312 LINE SMOOTH",
"537 487 OFFCURVE",
"462 560 OFFCURVE",
"285 560 CURVE SMOOTH",
"217 560 OFFCURVE",
"149 551 OFFCURVE",
"82 532 CURVE",
"82 399 LINE",
"131 428 OFFCURVE",
"189 444 OFFCURVE",
"257 444 CURVE SMOOTH",
"340 444 OFFCURVE",
"378 419 OFFCURVE",
"378 364 CURVE SMOOTH",
"378 350 LINE",
"285 350 LINE SMOOTH",
"116 350 OFFCURVE",
"39 292 OFFCURVE",
"39 164 CURVE SMOOTH",
"39 59 OFFCURVE",
"109 -14 OFFCURVE",
"210 -14 CURVE SMOOTH"
);
},
{
closed = 1;
nodes = (
"225 102 OFFCURVE",
"197 129 OFFCURVE",
"197 173 CURVE SMOOTH",
"197 221 OFFCURVE",
"231 246 OFFCURVE",
"296 246 CURVE SMOOTH",
"378 246 LINE",
"378 226 LINE SMOOTH",
"378 155 OFFCURVE",
"332 102 OFFCURVE",
"273 102 CURVE SMOOTH"
);
}
);
width = 607;
},
{
layerId = "79D829DC-9C66-44C2-8B43-D291CF08F0E9";
paths = (
{
closed = 1;
nodes = (
"283 -14 OFFCURVE",
"350 18 OFFCURVE",
"403 83 CURVE",
"386 0 LINE",
"476 0 LINE",
"537 312 LINE SMOOTH",
"544 344 OFFCURVE",
"547 375 OFFCURVE",
"547 396 CURVE SMOOTH",
"547 503 OFFCURVE",
"478 560 OFFCURVE",
"349 560 CURVE SMOOTH",
"289 560 OFFCURVE",
"224 547 OFFCURVE",
"156 522 CURVE",
"140 439 LINE",
"205 468 OFFCURVE",
"266 484 OFFCURVE",
"325 484 CURVE SMOOTH",
"410 484 OFFCURVE",
"460 451 OFFCURVE",
"460 392 CURVE SMOOTH",
"460 379 OFFCURVE",
"459 374 OFFCURVE",
"458 369 CURVE",
"453 345 LINE",
"328 345 LINE SMOOTH",
"149 345 OFFCURVE",
"41 266 OFFCURVE",
"41 138 CURVE SMOOTH",
"41 49 OFFCURVE",
"107 -14 OFFCURVE",
"200 -14 CURVE SMOOTH"
);
},
{
closed = 1;
nodes = (
"172 62 OFFCURVE",
"134 97 OFFCURVE",
"134 154 CURVE SMOOTH",
"134 237 OFFCURVE",
"203 275 OFFCURVE",
"350 275 CURVE SMOOTH",
"440 275 LINE",
"436 255 LINE SMOOTH",
"412 138 OFFCURVE",
"333 62 OFFCURVE",
"236 62 CURVE SMOOTH"
);
}
);
width = 613;
},
{
layerId = "217D6A7E-4635-413B-8BF5-4A1DD3DA67ED";
paths = (
{
closed = 1;
nodes = (
"255 -14 OFFCURVE",
"315 18 OFFCURVE",
"362 83 CURVE",
"348 0 LINE",
"429 0 LINE",
"483 312 LINE SMOOTH",
"490 344 OFFCURVE",
"492 375 OFFCURVE",
"492 396 CURVE SMOOTH",
"492 503 OFFCURVE",
"430 560 OFFCURVE",
"314 560 CURVE SMOOTH",
"259 560 OFFCURVE",
"201 547 OFFCURVE",
"140 522 CURVE",
"126 439 LINE",
"185 468 OFFCURVE",
"240 484 OFFCURVE",
"292 484 CURVE SMOOTH",
"369 484 OFFCURVE",
"414 451 OFFCURVE",
"414 392 CURVE SMOOTH",
"414 379 OFFCURVE",
"413 374 OFFCURVE",
"412 369 CURVE",
"408 345 LINE",
"295 345 LINE SMOOTH",
"134 345 OFFCURVE",
"37 266 OFFCURVE",
"37 138 CURVE SMOOTH",
"37 49 OFFCURVE",
"96 -14 OFFCURVE",
"180 -14 CURVE SMOOTH"
);
},
{
closed = 1;
nodes = (
"155 62 OFFCURVE",
"121 97 OFFCURVE",
"121 154 CURVE SMOOTH",
"121 237 OFFCURVE",
"183 275 OFFCURVE",
"315 275 CURVE SMOOTH",
"396 275 LINE",
"393 255 LINE",
"370 138 OFFCURVE",
"300 62 OFFCURVE",
"212 62 CURVE SMOOTH"
);
}
);
width = 551;
},
{
layerId = "BED8EE44-B183-4D86-965C-1BADD1250A61";
paths = (
{
closed = 1;
nodes = (
"235 -14 OFFCURVE",
"291 16 OFFCURVE",
"343 81 CURVE",
"330 0 LINE",
"487 0 LINE",
"542 312 LINE SMOOTH",
"547 343 OFFCURVE",
"550 370 OFFCURVE",
"550 391 CURVE SMOOTH",
"550 506 OFFCURVE",
"479 560 OFFCURVE",
"334 560 CURVE SMOOTH",
"261 560 OFFCURVE",
"191 551 OFFCURVE",
"126 532 CURVE",
"103 399 LINE",
"159 428 OFFCURVE",
"220 444 OFFCURVE",
"285 444 CURVE SMOOTH",
"357 444 OFFCURVE",
"394 422 OFFCURVE",
"394 379 CURVE SMOOTH",
"394 377 OFFCURVE",
"394 375 OFFCURVE",
"394 374 CURVE SMOOTH",
"394 372 OFFCURVE",
"394 369 OFFCURVE",
"393 364 CURVE SMOOTH",
"391 350 LINE",
"298 350 LINE SMOOTH",
"115 350 OFFCURVE",
"16 274 OFFCURVE",
"16 135 CURVE SMOOTH",
"16 43 OFFCURVE",
"75 -14 OFFCURVE",
"167 -14 CURVE SMOOTH"
);
},
{
closed = 1;
nodes = (
"203 102 OFFCURVE",
"177 126 OFFCURVE",
"177 166 CURVE SMOOTH",
"177 219 OFFCURVE",
"217 246 OFFCURVE",
"296 246 CURVE SMOOTH",
"372 246 LINE",
"368 226 LINE SMOOTH",
"353 147 OFFCURVE",
"308 102 OFFCURVE",
"244 102 CURVE SMOOTH"
);
}
);
width = 607;
},
{
layerId = "99D829B7-D749-4014-BBE4-6F1A75B6E575";
paths = (
{
closed = 1;
nodes = (
"290 -14 OFFCURVE",
"322 -6 OFFCURVE",
"355 10 CURVE SMOOTH",
"396 30 OFFCURVE",
"430 76 OFFCURVE",
"455 148 CURVE",
"455 0 LINE",
"500 0 LINE",
"500 312 LINE SMOOTH",
"500 405 OFFCURVE",
"482 468 OFFCURVE",
"445 501 CURVE SMOOTH",
"404 540 OFFCURVE",
"351 560 OFFCURVE",
"286 560 CURVE SMOOTH",
"253 560 OFFCURVE",
"218 555 OFFCURVE",
"181 544 CURVE SMOOTH",
"156 537 OFFCURVE",
"129 524 OFFCURVE",
"100 506 CURVE",
"100 458 LINE",
"133 481 OFFCURVE",
"160 496 OFFCURVE",
"181 503 CURVE SMOOTH",
"214 515 OFFCURVE",
"246 521 OFFCURVE",
"277 521 CURVE SMOOTH",
"340 521 OFFCURVE",
"386 505 OFFCURVE",
"413 474 CURVE SMOOTH",
"440 443 OFFCURVE",
"454 403 OFFCURVE",
"454 354 CURVE SMOOTH",
"454 345 LINE",
"343 345 LINE SMOOTH",
"250 345 OFFCURVE",
"184 328 OFFCURVE",
"143 294 CURVE SMOOTH",
"102 260 OFFCURVE",
"82 215 OFFCURVE",
"82 158 CURVE SMOOTH",
"82 101 OFFCURVE",
"98 58 OFFCURVE",
"129 29 CURVE SMOOTH",
"160 0 OFFCURVE",
"203 -14 OFFCURVE",
"257 -14 CURVE SMOOTH"
);
},
{
closed = 1;
nodes = (
"189 24 OFFCURVE",
"128 61 OFFCURVE",
"128 157 CURVE SMOOTH",
"128 256 OFFCURVE",
"188 309 OFFCURVE",
"332 309 CURVE SMOOTH",
"454 309 LINE",
"454 275 LINE SMOOTH",
"454 224 OFFCURVE",
"439 169 OFFCURVE",
"409 111 CURVE SMOOTH",
"379 53 OFFCURVE",
"330 24 OFFCURVE",
"261 24 CURVE SMOOTH"
);
}
);
width = 613;
},
{
layerId = "D5B43B4B-63DF-4B35-BEE3-B41B34784265";
paths = (
{
closed = 1;
nodes = (
"261 -14 OFFCURVE",
"324 16 OFFCURVE",
"381 81 CURVE",
"366 0 LINE",
"541 0 LINE",
"602 312 LINE SMOOTH",
"607 343 OFFCURVE",
"611 370 OFFCURVE",
"611 391 CURVE SMOOTH",
"611 506 OFFCURVE",
"534 560 OFFCURVE",
"371 560 CURVE SMOOTH",
"290 560 OFFCURVE",
"213 551 OFFCURVE",
"140 532 CURVE",
"114 399 LINE",
"177 428 OFFCURVE",
"245 444 OFFCURVE",
"317 444 CURVE SMOOTH",
"397 444 OFFCURVE",
"438 422 OFFCURVE",
"438 379 CURVE SMOOTH",
"438 377 OFFCURVE",
"438 375 OFFCURVE",
"438 374 CURVE SMOOTH",
"438 372 OFFCURVE",
"437 369 OFFCURVE",
"436 364 CURVE",
"434 350 LINE",
"331 350 LINE SMOOTH",
"128 350 OFFCURVE",
"17 274 OFFCURVE",
"17 135 CURVE SMOOTH",
"17 43 OFFCURVE",
"82 -14 OFFCURVE",
"186 -14 CURVE SMOOTH"
);
},
{
closed = 1;
nodes = (
"224 102 OFFCURVE",
"197 126 OFFCURVE",
"197 166 CURVE SMOOTH",
"197 219 OFFCURVE",
"242 246 OFFCURVE",
"329 246 CURVE SMOOTH",
"413 246 LINE",
"409 226 LINE SMOOTH",
"393 147 OFFCURVE",
"343 102 OFFCURVE",
"271 102 CURVE SMOOTH"
);
}
);
width = 675;
}
);
leftKerningGroup = a;
note = a;
unicode = 0061;
},
{
export = 0;
glyphname = b;
layers = (
{
layerId = "79F6B4AB-4C44-4F2D-9893-C213A8C041F5";
paths = (
{
closed = 1;
nodes = (
"440 -14 OFFCURVE",
"522 101 OFFCURVE",
"522 273 CURVE SMOOTH",
"522 445 OFFCURVE",
"440 560 OFFCURVE",
"320 560 CURVE SMOOTH",
"248 560 OFFCURVE",
"196 529 OFFCURVE",
"163 464 CURVE",
"163 760 LINE",
"82 760 LINE",
"82 0 LINE",
"163 0 LINE",
"163 82 LINE",
"196 17 OFFCURVE",
"248 -14 OFFCURVE",
"320 -14 CURVE SMOOTH"
);
},
{
closed = 1;
nodes = (
"214 61 OFFCURVE",
"163 141 OFFCURVE",
"163 273 CURVE SMOOTH",
"163 405 OFFCURVE",
"214 485 OFFCURVE",
"301 485 CURVE SMOOTH",
"386 485 OFFCURVE",
"438 405 OFFCURVE",
"438 273 CURVE SMOOTH",
"438 141 OFFCURVE",
"386 61 OFFCURVE",
"301 61 CURVE SMOOTH"
);
}
);
width = 571;
},
{
layerId = "EB88A49E-561A-4405-9552-C71224CBA53C";
paths = (
{
closed = 1;
nodes = (
"489 -14 OFFCURVE",
"580 101 OFFCURVE",
"580 273 CURVE SMOOTH",
"580 445 OFFCURVE",
"489 560 OFFCURVE",
"356 560 CURVE SMOOTH",
"276 560 OFFCURVE",
"218 529 OFFCURVE",
"181 464 CURVE",
"181 760 LINE",
"91 760 LINE",
"91 0 LINE",
"181 0 LINE",
"181 82 LINE",
"218 17 OFFCURVE",
"276 -14 OFFCURVE",
"356 -14 CURVE SMOOTH"
);
},
{
closed = 1;
nodes = (
"239 61 OFFCURVE",
"181 141 OFFCURVE",
"181 273 CURVE SMOOTH",
"181 405 OFFCURVE",
"239 485 OFFCURVE",
"334 485 CURVE SMOOTH",
"429 485 OFFCURVE",
"487 405 OFFCURVE",
"487 273 CURVE SMOOTH",
"487 141 OFFCURVE",
"429 61 OFFCURVE",
"334 61 CURVE SMOOTH"
);
}
);
width = 635;
},
{
layerId = "5297CC84-2E5E-44C2-8BD8-B52BBF62A592";
paths = (
{
closed = 1;
nodes = (
"575 -14 OFFCURVE",
"671 104 OFFCURVE",
"671 273 CURVE SMOOTH",
"671 441 OFFCURVE",
"575 560 OFFCURVE",
"440 560 CURVE SMOOTH",
"364 560 OFFCURVE",
"307 531 OFFCURVE",
"259 467 CURVE",
"259 760 LINE",
"84 760 LINE",
"84 0 LINE",
"259 0 LINE",
"259 79 LINE",
"307 15 OFFCURVE",
"364 -14 OFFCURVE",
"440 -14 CURVE SMOOTH"
);
},
{
closed = 1;
nodes = (
"300 113 OFFCURVE",
"259 169 OFFCURVE",
"259 273 CURVE SMOOTH",
"259 377 OFFCURVE",
"300 433 OFFCURVE",
"375 433 CURVE SMOOTH",
"450 433 OFFCURVE",
"490 377 OFFCURVE",
"490 273 CURVE SMOOTH",
"490 169 OFFCURVE",
"450 113 OFFCURVE",
"375 113 CURVE SMOOTH"
);
}
);
width = 716;
},
{
layerId = "5FB0259D-C3EC-4F0F-ABB4-6EFEC5FB1D78";
paths = (
{
closed = 1;
nodes = (
"517 -14 OFFCURVE",
"604 104 OFFCURVE",
"604 273 CURVE SMOOTH",
"604 441 OFFCURVE",
"517 560 OFFCURVE",
"396 560 CURVE SMOOTH",
"328 560 OFFCURVE",
"277 531 OFFCURVE",
"233 467 CURVE",
"233 760 LINE",
"76 760 LINE",
"76 0 LINE",
"233 0 LINE",
"233 79 LINE",
"277 15 OFFCURVE",
"328 -14 OFFCURVE",
"396 -14 CURVE SMOOTH"
);
},
{
closed = 1;
nodes = (
"270 113 OFFCURVE",
"233 169 OFFCURVE",
"233 273 CURVE SMOOTH",
"233 377 OFFCURVE",
"270 433 OFFCURVE",
"337 433 CURVE SMOOTH",
"405 433 OFFCURVE",
"441 377 OFFCURVE",
"441 273 CURVE SMOOTH",
"441 169 OFFCURVE",
"405 113 OFFCURVE",
"337 113 CURVE SMOOTH"
);
}
);
width = 644;
},
{
layerId = "79D829DC-9C66-44C2-8B43-D291CF08F0E9";
paths = (
{
closed = 1;
nodes = (
"365 -14 OFFCURVE",
"428 14 OFFCURVE",
"475 65 CURVE SMOOTH",
"547 142 OFFCURVE",
"587 245 OFFCURVE",
"587 350 CURVE SMOOTH",
"587 479 OFFCURVE",
"516 560 OFFCURVE",
"404 560 CURVE SMOOTH",
"331 560 OFFCURVE",
"260 524 OFFCURVE",
"216 464 CURVE",
"274 760 LINE",
"184 760 LINE",
"36 0 LINE",
"126 0 LINE",
"142 83 LINE",
"175 19 OFFCURVE",
"227 -14 OFFCURVE",
"298 -14 CURVE SMOOTH"
);
},
{
closed = 1;
nodes = (
"216 61 OFFCURVE",
"171 116 OFFCURVE",
"171 205 CURVE SMOOTH",
"171 276 OFFCURVE",
"195 351 OFFCURVE",
"232 406 CURVE SMOOTH",
"268 457 OFFCURVE",
"318 485 OFFCURVE",
"373 485 CURVE SMOOTH",
"449 485 OFFCURVE",
"495 429 OFFCURVE",
"495 334 CURVE SMOOTH",
"495 270 OFFCURVE",
"470 192 OFFCURVE",
"433 139 CURVE SMOOTH",
"397 88 OFFCURVE",
"347 61 OFFCURVE",
"291 61 CURVE SMOOTH"
);
}
);
width = 635;
},
{
layerId = "217D6A7E-4635-413B-8BF5-4A1DD3DA67ED";
paths = (
{
closed = 1;
nodes = (
"328 -14 OFFCURVE",
"385 14 OFFCURVE",
"428 65 CURVE SMOOTH",
"492 142 OFFCURVE",
"528 245 OFFCURVE",
"528 350 CURVE SMOOTH",
"528 479 OFFCURVE",
"464 560 OFFCURVE",
"363 560 CURVE SMOOTH",
"298 560 OFFCURVE",
"234 524 OFFCURVE",
"194 464 CURVE",
"247 760 LINE",
"166 760 LINE",
"33 0 LINE",
"113 0 LINE",
"128 83 LINE",
"157 19 OFFCURVE",
"204 -14 OFFCURVE",
"268 -14 CURVE SMOOTH"
);
},
{
closed = 1;
nodes = (
"194 61 OFFCURVE",
"154 116 OFFCURVE",
"154 205 CURVE SMOOTH",
"154 276 OFFCURVE",
"174 351 OFFCURVE",
"209 406 CURVE SMOOTH",
"241 457 OFFCURVE",
"285 485 OFFCURVE",
"336 485 CURVE SMOOTH",
"404 485 OFFCURVE",
"446 429 OFFCURVE",
"446 334 CURVE SMOOTH",
"446 270 OFFCURVE",
"423 192 OFFCURVE",
"390 139 CURVE SMOOTH",
"357 88 OFFCURVE",
"313 61 OFFCURVE",
"262 61 CURVE SMOOTH"
);
}
);
width = 571;
},
{
layerId = "BED8EE44-B183-4D86-965C-1BADD1250A61";
paths = (
{
closed = 1;
nodes = (
"422 -14 OFFCURVE",
"490 28 OFFCURVE",
"543 111 CURVE SMOOTH",
"586 176 OFFCURVE",
"609 258 OFFCURVE",
"609 342 CURVE SMOOTH",
"609 477 OFFCURVE",
"540 560 OFFCURVE",
"429 560 CURVE SMOOTH",
"366 560 OFFCURVE",
"315 531 OFFCURVE",
"267 467 CURVE",
"318 760 LINE",
"160 760 LINE",
"28 0 LINE",
"186 0 LINE",
"200 79 LINE",
"232 15 OFFCURVE",
"278 -14 OFFCURVE",
"345 -14 CURVE SMOOTH"
);
},
{
closed = 1;
nodes = (
"258 113 OFFCURVE",
"228 149 OFFCURVE",
"228 209 CURVE SMOOTH",
"228 342 OFFCURVE",
"285 433 OFFCURVE",
"365 433 CURVE SMOOTH",
"418 433 OFFCURVE",
"446 398 OFFCURVE",
"446 331 CURVE SMOOTH",
"446 203 OFFCURVE",
"389 113 OFFCURVE",
"310 113 CURVE SMOOTH"
);
}
);
width = 644;
},
{
layerId = "99D829B7-D749-4014-BBE4-6F1A75B6E575";
paths = (
{
closed = 1;
nodes = (
"458 -14 OFFCURVE",
"555 101 OFFCURVE",
"555 273 CURVE SMOOTH",
"555 445 OFFCURVE",
"458 560 OFFCURVE",
"329 560 CURVE SMOOTH",
"296 560 OFFCURVE",
"262 547 OFFCURVE",
"225 520 CURVE SMOOTH",
"201 502 OFFCURVE",
"179 469 OFFCURVE",
"158 422 CURVE",
"158 760 LINE",
"114 760 LINE",
"114 0 LINE",
"158 0 LINE",
"158 124 LINE",
"179 77 OFFCURVE",
"201 44 OFFCURVE",
"225 26 CURVE SMOOTH",
"262 -1 OFFCURVE",
"296 -14 OFFCURVE",
"329 -14 CURVE SMOOTH"
);
},
{
closed = 1;
nodes = (
"292 25 OFFCURVE",
"252 44 OFFCURVE",
"215 83 CURVE SMOOTH",
"178 121 OFFCURVE",
"159 184 OFFCURVE",
"159 273 CURVE SMOOTH",
"159 362 OFFCURVE",
"178 425 OFFCURVE",
"215 463 CURVE SMOOTH",
"252 502 OFFCURVE",
"292 521 OFFCURVE",
"333 521 CURVE SMOOTH",
"374 521 OFFCURVE",
"414 502 OFFCURVE",
"451 463 CURVE SMOOTH",
"489 425 OFFCURVE",
"508 362 OFFCURVE",
"508 273 CURVE SMOOTH",
"508 184 OFFCURVE",
"489 121 OFFCURVE",
"451 83 CURVE SMOOTH",
"414 44 OFFCURVE",
"374 25 OFFCURVE",
"333 25 CURVE SMOOTH"
);
}
);
width = 635;
},
{
layerId = "D5B43B4B-63DF-4B35-BEE3-B41B34784265";
paths = (
{
closed = 1;
nodes = (
"469 -14 OFFCURVE",
"545 28 OFFCURVE",
"604 111 CURVE SMOOTH",
"651 176 OFFCURVE",
"677 258 OFFCURVE",
"677 342 CURVE SMOOTH",
"677 477 OFFCURVE",
"600 560 OFFCURVE",
"477 560 CURVE SMOOTH",
"408 560 OFFCURVE",
"350 531 OFFCURVE",
"297 467 CURVE",
"354 760 LINE",
"178 760 LINE",
"31 0 LINE",
"206 0 LINE",
"222 79 LINE",
"258 15 OFFCURVE",
"309 -14 OFFCURVE",
"384 -14 CURVE SMOOTH"
);
},
{
closed = 1;
nodes = (
"287 113 OFFCURVE",
"253 149 OFFCURVE",
"253 209 CURVE SMOOTH",
"253 342 OFFCURVE",
"315 433 OFFCURVE",
"406 433 CURVE SMOOTH",
"465 433 OFFCURVE",
"496 398 OFFCURVE",
"496 331 CURVE SMOOTH",
"496 203 OFFCURVE",
"432 113 OFFCURVE",
"344 113 CURVE SMOOTH"
);
}
);
width = 716;
}
);
note = b;
unicode = 0062;
},
{
export = 0;
glyphname = c;
layers = (
{
layerId = "79F6B4AB-4C44-4F2D-9893-C213A8C041F5";
paths = (
{
closed = 1;
nodes = (
"347 -14 OFFCURVE",
"394 -3 OFFCURVE",
"439 21 CURVE",
"439 104 LINE",
"394 76 OFFCURVE",
"348 62 OFFCURVE",
"301 62 CURVE SMOOTH",
"196 62 OFFCURVE",
"135 140 OFFCURVE",
"135 273 CURVE SMOOTH",
"135 406 OFFCURVE",
"196 484 OFFCURVE",
"301 484 CURVE SMOOTH",
"348 484 OFFCURVE",
"394 470 OFFCURVE",
"439 442 CURVE",
"439 526 LINE",
"395 549 OFFCURVE",
"346 560 OFFCURVE",
"297 560 CURVE SMOOTH",
"144 560 OFFCURVE",
"50 452 OFFCURVE",
"50 273 CURVE SMOOTH",
"50 97 OFFCURVE",
"144 -14 OFFCURVE",
"292 -14 CURVE SMOOTH"
);
}
);
width = 495;
},
{
layerId = "EB88A49E-561A-4405-9552-C71224CBA53C";
paths = (
{
closed = 1;
nodes = (
"385 -14 OFFCURVE",
"437 -3 OFFCURVE",
"488 21 CURVE",
"488 104 LINE",
"437 76 OFFCURVE",
"386 62 OFFCURVE",
"334 62 CURVE SMOOTH",
"218 62 OFFCURVE",
"150 140 OFFCURVE",
"150 273 CURVE SMOOTH",
"150 406 OFFCURVE",
"218 484 OFFCURVE",
"334 484 CURVE SMOOTH",
"386 484 OFFCURVE",
"437 470 OFFCURVE",
"488 442 CURVE",
"488 526 LINE",
"439 549 OFFCURVE",
"386 560 OFFCURVE",
"330 560 CURVE SMOOTH",
"159 560 OFFCURVE",
"55 452 OFFCURVE",
"55 273 CURVE SMOOTH",
"55 97 OFFCURVE",
"160 -14 OFFCURVE",
"324 -14 CURVE SMOOTH"
);
}
);
width = 550;
},
{
layerId = "5297CC84-2E5E-44C2-8BD8-B52BBF62A592";
paths = (
{
closed = 1;
nodes = (
"414 -14 OFFCURVE",
"471 -4 OFFCURVE",
"526 16 CURVE",
"526 159 LINE",
"485 127 OFFCURVE",
"435 111 OFFCURVE",
"380 111 CURVE SMOOTH",
"283 111 OFFCURVE",
"225 170 OFFCURVE",
"225 273 CURVE SMOOTH",
"225 376 OFFCURVE",
"283 435 OFFCURVE",
"380 435 CURVE SMOOTH",
"431 435 OFFCURVE",
"478 420 OFFCURVE",
"526 387 CURVE",
"526 530 LINE",
"470 550 OFFCURVE",
"415 560 OFFCURVE",
"358 560 CURVE SMOOTH",
"161 560 OFFCURVE",
"43 453 OFFCURVE",
"43 273 CURVE SMOOTH",
"43 93 OFFCURVE",
"161 -14 OFFCURVE",
"358 -14 CURVE SMOOTH"
);
}
);
width = 593;
},
{
layerId = "5FB0259D-C3EC-4F0F-ABB4-6EFEC5FB1D78";
paths = (
{
closed = 1;
nodes = (
"373 -14 OFFCURVE",
"425 -4 OFFCURVE",
"473 16 CURVE",
"473 159 LINE",
"436 127 OFFCURVE",
"391 111 OFFCURVE",
"342 111 CURVE SMOOTH",
"254 111 OFFCURVE",
"203 170 OFFCURVE",
"203 273 CURVE SMOOTH",
"203 376 OFFCURVE",
"254 435 OFFCURVE",
"342 435 CURVE SMOOTH",
"387 435 OFFCURVE",
"430 420 OFFCURVE",
"473 387 CURVE",
"473 530 LINE",
"424 550 OFFCURVE",
"374 560 OFFCURVE",
"322 560 CURVE SMOOTH",
"145 560 OFFCURVE",
"39 453 OFFCURVE",
"39 273 CURVE SMOOTH",
"39 93 OFFCURVE",
"145 -14 OFFCURVE",
"322 -14 CURVE SMOOTH"
);
}
);
width = 533;
},
{
layerId = "79D829DC-9C66-44C2-8B43-D291CF08F0E9";
paths = (
{
closed = 1;
nodes = (
"329 -14 OFFCURVE",
"385 -3 OFFCURVE",
"437 18 CURVE",
"454 107 LINE",
"394 76 OFFCURVE",
"337 62 OFFCURVE",
"288 62 CURVE SMOOTH",
"188 62 OFFCURVE",
"139 109 OFFCURVE",
"139 208 CURVE SMOOTH",
"139 289 OFFCURVE",
"171 369 OFFCURVE",
"227 426 CURVE SMOOTH",
"262 463 OFFCURVE",
"317 484 OFFCURVE",
"374 484 CURVE SMOOTH",
"426 484 OFFCURVE",
"475 468 OFFCURVE",
"518 437 CURVE",
"536 526 LINE",
"484 549 OFFCURVE",
"435 560 OFFCURVE",
"384 560 CURVE SMOOTH",
"296 560 OFFCURVE",
"222 533 OFFCURVE",
"167 481 CURVE SMOOTH",
"87 405 OFFCURVE",
"46 309 OFFCURVE",
"46 196 CURVE SMOOTH",
"46 61 OFFCURVE",
"127 -14 OFFCURVE",
"272 -14 CURVE SMOOTH"
);
}
);
width = 550;
},
{
layerId = "217D6A7E-4635-413B-8BF5-4A1DD3DA67ED";
paths = (
{
closed = 1;
nodes = (
"297 -14 OFFCURVE",
"346 -3 OFFCURVE",
"394 18 CURVE",
"409 107 LINE",
"354 76 OFFCURVE",
"303 62 OFFCURVE",
"259 62 CURVE SMOOTH",
"168 62 OFFCURVE",
"125 109 OFFCURVE",
"125 208 CURVE SMOOTH",
"125 289 OFFCURVE",
"155 369 OFFCURVE",
"204 426 CURVE SMOOTH",
"236 463 OFFCURVE",
"285 484 OFFCURVE",
"336 484 CURVE SMOOTH",
"384 484 OFFCURVE",
"429 468 OFFCURVE",
"466 437 CURVE",
"482 526 LINE",
"435 549 OFFCURVE",
"392 560 OFFCURVE",
"345 560 CURVE SMOOTH",
"268 560 OFFCURVE",
"199 533 OFFCURVE",
"150 481 CURVE SMOOTH",
"78 405 OFFCURVE",
"42 309 OFFCURVE",
"42 196 CURVE SMOOTH",
"42 61 OFFCURVE",
"114 -14 OFFCURVE",
"245 -14 CURVE SMOOTH"
);
}
);
width = 495;
},
{
layerId = "BED8EE44-B183-4D86-965C-1BADD1250A61";
paths = (
{
closed = 1;
nodes = (
"327 -14 OFFCURVE",
"381 -4 OFFCURVE",
"433 16 CURVE",
"457 159 LINE",
"414 127 OFFCURVE",
"366 111 OFFCURVE",
"317 111 CURVE SMOOTH",
"244 111 OFFCURVE",
"201 155 OFFCURVE",
"201 231 CURVE SMOOTH",
"201 350 OFFCURVE",
"272 435 OFFCURVE",
"375 435 CURVE SMOOTH",
"415 435 OFFCURVE",
"455 419 OFFCURVE",
"498 387 CURVE",
"523 530 LINE",
"474 550 OFFCURVE",
"426 560 OFFCURVE",
"375 560 CURVE SMOOTH",
"267 560 OFFCURVE",
"186 524 OFFCURVE",
"123 451 CURVE SMOOTH",
"66 384 OFFCURVE",
"33 297 OFFCURVE",
"33 208 CURVE SMOOTH",
"33 67 OFFCURVE",
"121 -14 OFFCURVE",
"274 -14 CURVE SMOOTH"
);
}
);
width = 533;
},
{
layerId = "99D829B7-D749-4014-BBE4-6F1A75B6E575";
paths = (
{
closed = 1;
nodes = (
"357 -14 OFFCURVE",
"383 -11 OFFCURVE",
"410 -5 CURVE SMOOTH",
"437 0 OFFCURVE",
"463 9 OFFCURVE",
"488 21 CURVE",
"488 66 LINE",
"463 52 OFFCURVE",
"437 42 OFFCURVE",
"411 35 CURVE SMOOTH",
"386 28 OFFCURVE",
"360 24 OFFCURVE",
"334 24 CURVE SMOOTH",
"177 24 OFFCURVE",
"113 104 OFFCURVE",
"113 273 CURVE SMOOTH",
"113 441 OFFCURVE",
"177 521 OFFCURVE",
"334 521 CURVE SMOOTH",
"361 521 OFFCURVE",
"390 516 OFFCURVE",
"421 506 CURVE SMOOTH",
"438 501 OFFCURVE",
"461 490 OFFCURVE",
"488 473 CURVE",
"488 521 LINE",
"467 532 OFFCURVE",
"442 542 OFFCURVE",
"413 549 CURVE SMOOTH",
"384 556 OFFCURVE",
"356 560 OFFCURVE",
"330 560 CURVE SMOOTH",
"250 560 OFFCURVE",
"186 538 OFFCURVE",
"139 495 CURVE SMOOTH",
"92 452 OFFCURVE",
"68 378 OFFCURVE",
"68 273 CURVE SMOOTH",
"68 168 OFFCURVE",
"92 94 OFFCURVE",
"139 51 CURVE SMOOTH",
"186 8 OFFCURVE",
"250 -14 OFFCURVE",
"330 -14 CURVE SMOOTH"
);
}
);
width = 550;
},
{
layerId = "D5B43B4B-63DF-4B35-BEE3-B41B34784265";
paths = (
{
closed = 1;
nodes = (
"365 -14 OFFCURVE",
"424 -4 OFFCURVE",
"481 16 CURVE",
"508 159 LINE",
"460 127 OFFCURVE",
"407 111 OFFCURVE",
"352 111 CURVE SMOOTH",
"271 111 OFFCURVE",
"223 155 OFFCURVE",
"223 231 CURVE SMOOTH",
"223 350 OFFCURVE",
"304 435 OFFCURVE",
"417 435 CURVE SMOOTH",
"461 435 OFFCURVE",
"506 419 OFFCURVE",
"553 387 CURVE",
"581 530 LINE",
"528 550 OFFCURVE",
"472 560 OFFCURVE",
"417 560 CURVE SMOOTH",
"297 560 OFFCURVE",
"207 524 OFFCURVE",
"136 451 CURVE SMOOTH",
"72 384 OFFCURVE",
"37 297 OFFCURVE",
"37 208 CURVE SMOOTH",
"37 67 OFFCURVE",
"133 -14 OFFCURVE",
"305 -14 CURVE SMOOTH"
);
}
);
width = 593;
}
);
leftKerningGroup = c;
note = c;
unicode = 0063;
},
{
export = 0;
glyphname = d;
layers = (
{
layerId = "79F6B4AB-4C44-4F2D-9893-C213A8C041F5";
paths = (
{
closed = 1;
nodes = (
"324 -14 OFFCURVE",
"374 17 OFFCURVE",
"409 82 CURVE",
"409 0 LINE",
"490 0 LINE",
"490 760 LINE",
"409 760 LINE",
"409 464 LINE",
"374 529 OFFCURVE",
"324 560 OFFCURVE",
"251 560 CURVE SMOOTH",
"132 560 OFFCURVE",
"50 445 OFFCURVE",
"50 273 CURVE SMOOTH",
"50 101 OFFCURVE",
"132 -14 OFFCURVE",
"251 -14 CURVE SMOOTH"
);
},
{
closed = 1;
nodes = (
"186 61 OFFCURVE",
"133 141 OFFCURVE",
"133 273 CURVE SMOOTH",
"133 405 OFFCURVE",
"186 485 OFFCURVE",
"271 485 CURVE SMOOTH",
"356 485 OFFCURVE",
"409 405 OFFCURVE",
"409 273 CURVE SMOOTH",
"409 141 OFFCURVE",
"356 61 OFFCURVE",
"271 61 CURVE SMOOTH"
);
}
);
width = 571;
},
{
layerId = "EB88A49E-561A-4405-9552-C71224CBA53C";
paths = (
{
closed = 1;
nodes = (
"359 -14 OFFCURVE",
"417 17 OFFCURVE",
"454 82 CURVE",
"454 0 LINE",
"544 0 LINE",
"544 760 LINE",
"454 760 LINE",
"454 464 LINE",
"417 529 OFFCURVE",
"359 560 OFFCURVE",
"279 560 CURVE SMOOTH",
"147 560 OFFCURVE",
"55 445 OFFCURVE",
"55 273 CURVE SMOOTH",
"55 101 OFFCURVE",
"147 -14 OFFCURVE",
"279 -14 CURVE SMOOTH"
);
},
{
closed = 1;
nodes = (
"205 61 OFFCURVE",
"148 141 OFFCURVE",
"148 273 CURVE SMOOTH",
"148 405 OFFCURVE",
"205 485 OFFCURVE",
"301 485 CURVE SMOOTH",
"396 485 OFFCURVE",
"454 405 OFFCURVE",
"454 273 CURVE SMOOTH",
"454 141 OFFCURVE",
"396 61 OFFCURVE",
"301 61 CURVE SMOOTH"
);
}
);
width = 635;
},
{
layerId = "5297CC84-2E5E-44C2-8BD8-B52BBF62A592";
paths = (
{
closed = 1;
nodes = (
"352 -14 OFFCURVE",
"408 15 OFFCURVE",
"456 79 CURVE",
"456 0 LINE",
"632 0 LINE",
"632 760 LINE",
"456 760 LINE",
"456 467 LINE",
"408 531 OFFCURVE",
"352 560 OFFCURVE",
"276 560 CURVE SMOOTH",
"141 560 OFFCURVE",
"45 441 OFFCURVE",
"45 273 CURVE SMOOTH",
"45 104 OFFCURVE",
"141 -14 OFFCURVE",
"276 -14 CURVE SMOOTH"
);
},
{
closed = 1;
nodes = (
"266 113 OFFCURVE",
"226 169 OFFCURVE",
"226 273 CURVE SMOOTH",
"226 377 OFFCURVE",
"266 433 OFFCURVE",
"341 433 CURVE SMOOTH",
"416 433 OFFCURVE",
"456 377 OFFCURVE",
"456 273 CURVE SMOOTH",
"456 169 OFFCURVE",
"416 113 OFFCURVE",
"341 113 CURVE SMOOTH"
);
}
);
width = 716;
},
{
layerId = "5FB0259D-C3EC-4F0F-ABB4-6EFEC5FB1D78";
paths = (
{
closed = 1;
nodes = (
"317 -14 OFFCURVE",
"367 15 OFFCURVE",
"411 79 CURVE",
"411 0 LINE",
"569 0 LINE",
"569 760 LINE",
"411 760 LINE",
"411 467 LINE",
"367 531 OFFCURVE",
"316 560 OFFCURVE",
"248 560 CURVE SMOOTH",
"127 560 OFFCURVE",
"41 441 OFFCURVE",
"41 273 CURVE SMOOTH",
"41 104 OFFCURVE",
"127 -14 OFFCURVE",
"248 -14 CURVE SMOOTH"
);
},
{
closed = 1;
nodes = (
"240 113 OFFCURVE",
"204 169 OFFCURVE",
"204 273 CURVE SMOOTH",
"204 377 OFFCURVE",
"240 433 OFFCURVE",
"307 433 CURVE SMOOTH",
"374 433 OFFCURVE",
"411 377 OFFCURVE",
"411 273 CURVE SMOOTH",
"411 169 OFFCURVE",
"374 113 OFFCURVE",
"307 113 CURVE SMOOTH"
);
}
);
width = 644;
},
{
layerId = "79D829DC-9C66-44C2-8B43-D291CF08F0E9";
paths = (
{
closed = 1;
nodes = (
"303 -14 OFFCURVE",
"370 19 OFFCURVE",
"418 82 CURVE",
"401 0 LINE",
"491 0 LINE",
"639 760 LINE",
"549 760 LINE",
"490 462 LINE",
"461 525 OFFCURVE",
"406 560 OFFCURVE",
"335 560 CURVE SMOOTH",
"268 560 OFFCURVE",
"206 533 OFFCURVE",
"158 481 CURVE SMOOTH",
"86 404 OFFCURVE",
"46 303 OFFCURVE",
"46 195 CURVE SMOOTH",
"46 66 OFFCURVE",
"114 -14 OFFCURVE",
"223 -14 CURVE SMOOTH"
);
},
{
closed = 1;
nodes = (
"184 61 OFFCURVE",
"139 116 OFFCURVE",
"139 211 CURVE SMOOTH",
"139 276 OFFCURVE",
"164 355 OFFCURVE",
"201 408 CURVE SMOOTH",
"236 459 OFFCURVE",
"286 486 OFFCURVE",
"343 486 CURVE SMOOTH",
"418 486 OFFCURVE",
"463 433 OFFCURVE",
"463 342 CURVE SMOOTH",
"463 273 OFFCURVE",
"440 196 OFFCURVE",
"401 141 CURVE SMOOTH",
"365 89 OFFCURVE",
"316 61 OFFCURVE",
"260 61 CURVE SMOOTH"
);
}
);
width = 635;
},
{
layerId = "217D6A7E-4635-413B-8BF5-4A1DD3DA67ED";
paths = (
{
closed = 1;
nodes = (
"273 -14 OFFCURVE",
"333 19 OFFCURVE",
"376 82 CURVE",
"361 0 LINE",
"442 0 LINE",
"575 760 LINE",
"494 760 LINE",
"441 462 LINE",
"414 525 OFFCURVE",
"365 560 OFFCURVE",
"301 560 CURVE SMOOTH",
"242 560 OFFCURVE",
"186 533 OFFCURVE",
"143 481 CURVE SMOOTH",
"76 404 OFFCURVE",
"42 303 OFFCURVE",
"42 195 CURVE SMOOTH",
"42 66 OFFCURVE",
"102 -14 OFFCURVE",
"201 -14 CURVE SMOOTH"
);
},
{
closed = 1;
nodes = (
"166 61 OFFCURVE",
"125 116 OFFCURVE",
"125 211 CURVE SMOOTH",
"125 276 OFFCURVE",
"148 355 OFFCURVE",
"181 408 CURVE SMOOTH",
"212 459 OFFCURVE",
"258 486 OFFCURVE",
"309 486 CURVE SMOOTH",
"376 486 OFFCURVE",
"417 433 OFFCURVE",
"417 342 CURVE SMOOTH",
"417 273 OFFCURVE",
"396 196 OFFCURVE",
"361 141 CURVE SMOOTH",
"328 89 OFFCURVE",
"283 61 OFFCURVE",
"234 61 CURVE SMOOTH"
);
}
);
width = 571;
},
{
layerId = "BED8EE44-B183-4D86-965C-1BADD1250A61";
paths = (
{
closed = 1;
nodes = (
"275 -14 OFFCURVE",
"326 15 OFFCURVE",
"375 79 CURVE",
"360 0 LINE",
"519 0 LINE",
"652 760 LINE",
"493 760 LINE",
"442 467 LINE",
"409 531 OFFCURVE",
"364 560 OFFCURVE",
"296 560 CURVE SMOOTH",
"220 560 OFFCURVE",
"151 518 OFFCURVE",
"98 435 CURVE SMOOTH",
"55 370 OFFCURVE",
"33 288 OFFCURVE",
"33 204 CURVE SMOOTH",
"33 69 OFFCURVE",
"101 -14 OFFCURVE",
"212 -14 CURVE SMOOTH"
);
},
{
closed = 1;
nodes = (
"224 113 OFFCURVE",
"195 148 OFFCURVE",
"195 215 CURVE SMOOTH",
"195 343 OFFCURVE",
"252 433 OFFCURVE",
"332 433 CURVE SMOOTH",
"384 433 OFFCURVE",
"413 397 OFFCURVE",
"413 337 CURVE SMOOTH",
"413 204 OFFCURVE",
"357 113 OFFCURVE",
"276 113 CURVE SMOOTH"
);
}
);
width = 644;
},
{
layerId = "99D829B7-D749-4014-BBE4-6F1A75B6E575";
paths = (
{
closed = 1;
nodes = (
"338 -14 OFFCURVE",
"373 -1 OFFCURVE",
"410 26 CURVE SMOOTH",
"434 44 OFFCURVE",
"456 77 OFFCURVE",
"477 124 CURVE",
"477 0 LINE",
"521 0 LINE",
"521 760 LINE",
"477 760 LINE",
"477 422 LINE",
"456 469 OFFCURVE",
"434 502 OFFCURVE",
"410 520 CURVE SMOOTH",
"373 547 OFFCURVE",
"338 560 OFFCURVE",
"306 560 CURVE SMOOTH",
"175 560 OFFCURVE",
"80 445 OFFCURVE",
"80 273 CURVE SMOOTH",
"80 101 OFFCURVE",
"175 -14 OFFCURVE",
"306 -14 CURVE SMOOTH"
);
},
{
closed = 1;
nodes = (
"261 25 OFFCURVE",
"221 44 OFFCURVE",
"184 83 CURVE SMOOTH",
"146 121 OFFCURVE",
"127 184 OFFCURVE",
"127 273 CURVE SMOOTH",
"127 362 OFFCURVE",
"146 425 OFFCURVE",
"184 463 CURVE SMOOTH",
"221 502 OFFCURVE",
"261 521 OFFCURVE",
"302 521 CURVE SMOOTH",
"343 521 OFFCURVE",
"382 502 OFFCURVE",
"420 463 CURVE SMOOTH",
"457 425 OFFCURVE",
"476 362 OFFCURVE",
"476 273 CURVE SMOOTH",
"476 184 OFFCURVE",
"457 121 OFFCURVE",
"420 83 CURVE SMOOTH",
"382 44 OFFCURVE",
"343 25 OFFCURVE",
"302 25 CURVE SMOOTH"
);
}
);
width = 635;
},
{
layerId = "D5B43B4B-63DF-4B35-BEE3-B41B34784265";
paths = (
{
closed = 1;
nodes = (
"305 -14 OFFCURVE",
"363 15 OFFCURVE",
"416 79 CURVE",
"400 0 LINE",
"576 0 LINE",
"724 760 LINE",
"548 760 LINE",
"491 467 LINE",
"455 531 OFFCURVE",
"404 560 OFFCURVE",
"329 560 CURVE SMOOTH",
"244 560 OFFCURVE",
"168 518 OFFCURVE",
"109 435 CURVE SMOOTH",
"62 370 OFFCURVE",
"36 288 OFFCURVE",
"36 204 CURVE SMOOTH",
"36 69 OFFCURVE",
"113 -14 OFFCURVE",
"236 -14 CURVE SMOOTH"
);
},
{
closed = 1;
nodes = (
"248 113 OFFCURVE",
"217 148 OFFCURVE",
"217 215 CURVE SMOOTH",
"217 343 OFFCURVE",
"281 433 OFFCURVE",
"369 433 CURVE SMOOTH",
"426 433 OFFCURVE",
"459 397 OFFCURVE",
"459 337 CURVE SMOOTH",
"459 204 OFFCURVE",
"398 113 OFFCURVE",
"307 113 CURVE SMOOTH"
);
}
);
width = 716;
}
);
leftKerningGroup = d;
note = d;
unicode = 0064;
},
{
export = 0;
glyphname = e;
layers = (
{
layerId = "79F6B4AB-4C44-4F2D-9893-C213A8C041F5";
paths = (
{
closed = 1;
nodes = (
"368 -14 OFFCURVE",
"428 0 OFFCURVE",
"487 28 CURVE",
"487 113 LINE",
"430 78 OFFCURVE",
"371 62 OFFCURVE",
"310 62 CURVE SMOOTH",
"202 62 OFFCURVE",
"141 128 OFFCURVE",
"134 252 CURVE",
"506 252 LINE",
"506 296 LINE SMOOTH",
"506 459 OFFCURVE",
"423 560 OFFCURVE",
"291 560 CURVE SMOOTH",
"143 560 OFFCURVE",
"50 447 OFFCURVE",
"50 268 CURVE SMOOTH",
"50 95 OFFCURVE",
"148 -14 OFFCURVE",
"305 -14 CURVE SMOOTH"
);
},
{
closed = 1;
nodes = (
"145 425 OFFCURVE",
"201 484 OFFCURVE",
"292 484 CURVE SMOOTH",
"372 484 OFFCURVE",
"424 421 OFFCURVE",
"425 322 CURVE",
"137 322 LINE"
);
}
);
width = 554;
},
{
layerId = "EB88A49E-561A-4405-9552-C71224CBA53C";
paths = (
{
closed = 1;
nodes = (
"408 -14 OFFCURVE",
"477 0 OFFCURVE",
"541 28 CURVE",
"541 113 LINE",
"477 78 OFFCURVE",
"413 62 OFFCURVE",
"344 62 CURVE SMOOTH",
"225 62 OFFCURVE",
"157 128 OFFCURVE",
"149 252 CURVE",
"562 252 LINE",
"562 296 LINE SMOOTH",
"562 459 OFFCURVE",
"471 560 OFFCURVE",
"323 560 CURVE SMOOTH",
"159 560 OFFCURVE",
"55 447 OFFCURVE",
"55 268 CURVE SMOOTH",
"55 95 OFFCURVE",
"164 -14 OFFCURVE",
"339 -14 CURVE SMOOTH"
);
},
{
closed = 1;
nodes = (
"161 425 OFFCURVE",
"224 484 OFFCURVE",
"324 484 CURVE SMOOTH",
"413 484 OFFCURVE",
"471 421 OFFCURVE",
"472 322 CURVE",
"152 322 LINE"
);
}
);
width = 615;
},
{
layerId = "5297CC84-2E5E-44C2-8BD8-B52BBF62A592";
paths = (
{
closed = 1;
nodes = (
"439 -14 OFFCURVE",
"521 2 OFFCURVE",
"604 33 CURVE",
"604 168 LINE",
"523 124 OFFCURVE",
"445 102 OFFCURVE",
"372 102 CURVE SMOOTH",
"281 102 OFFCURVE",
"230 144 OFFCURVE",
"221 225 CURVE",
"630 225 LINE",
"630 275 LINE SMOOTH",
"630 448 OFFCURVE",
"518 560 OFFCURVE",
"346 560 CURVE SMOOTH",
"158 560 OFFCURVE",
"43 452 OFFCURVE",
"43 273 CURVE SMOOTH",
"43 92 OFFCURVE",
"159 -14 OFFCURVE",
"356 -14 CURVE SMOOTH"
);
},
{
closed = 1;
nodes = (
"234 405 OFFCURVE",
"277 444 OFFCURVE",
"345 444 CURVE SMOOTH",
"408 444 OFFCURVE",
"450 400 OFFCURVE",
"450 333 CURVE",
"223 333 LINE"
);
}
);
width = 678;
},
{
layerId = "5FB0259D-C3EC-4F0F-ABB4-6EFEC5FB1D78";
paths = (
{
closed = 1;
nodes = (
"395 -14 OFFCURVE",
"470 2 OFFCURVE",
"543 33 CURVE",
"543 168 LINE",
"471 124 OFFCURVE",
"402 102 OFFCURVE",
"335 102 CURVE SMOOTH",
"252 102 OFFCURVE",
"207 144 OFFCURVE",
"199 225 CURVE",
"567 225 LINE",
"567 275 LINE SMOOTH",
"567 448 OFFCURVE",
"467 560 OFFCURVE",
"312 560 CURVE SMOOTH",
"141 560 OFFCURVE",
"39 452 OFFCURVE",
"39 273 CURVE SMOOTH",
"39 92 OFFCURVE",
"143 -14 OFFCURVE",
"320 -14 CURVE SMOOTH"
);
},
{
closed = 1;
nodes = (
"210 405 OFFCURVE",
"250 444 OFFCURVE",
"311 444 CURVE SMOOTH",
"367 444 OFFCURVE",
"405 400 OFFCURVE",
"405 333 CURVE",
"201 333 LINE"
);
}
);
width = 610;
},
{
layerId = "79D829DC-9C66-44C2-8B43-D291CF08F0E9";
paths = (
{
closed = 1;
nodes = (
"353 -14 OFFCURVE",
"422 -2 OFFCURVE",
"487 25 CURVE",
"504 114 LINE",
"444 79 OFFCURVE",
"373 62 OFFCURVE",
"296 62 CURVE SMOOTH",
"195 62 OFFCURVE",
"136 113 OFFCURVE",
"136 204 CURVE SMOOTH",
"136 215 OFFCURVE",
"137 227 OFFCURVE",
"141 252 CURVE",
"559 252 LINE",
"567 291 OFFCURVE",
"571 326 OFFCURVE",
"571 355 CURVE SMOOTH",
"571 480 OFFCURVE",
"492 560 OFFCURVE",
"368 560 CURVE SMOOTH",
"289 560 OFFCURVE",
"217 533 OFFCURVE",
"166 485 CURVE SMOOTH",
"87 408 OFFCURVE",
"46 308 OFFCURVE",
"46 195 CURVE SMOOTH",
"46 62 OFFCURVE",
"130 -14 OFFCURVE",
"282 -14 CURVE SMOOTH"
);
},
{
closed = 1;
nodes = (
"194 425 OFFCURVE",
"265 484 OFFCURVE",
"354 484 CURVE SMOOTH",
"434 484 OFFCURVE",
"484 435 OFFCURVE",
"484 355 CURVE SMOOTH",
"484 344 OFFCURVE",
"482 333 OFFCURVE",
"481 322 CURVE",
"158 322 LINE"
);
}
);
width = 615;
},
{
layerId = "217D6A7E-4635-413B-8BF5-4A1DD3DA67ED";
paths = (
{
closed = 1;
nodes = (
"318 -14 OFFCURVE",
"381 -2 OFFCURVE",
"438 25 CURVE",
"454 114 LINE",
"399 79 OFFCURVE",
"337 62 OFFCURVE",
"266 62 CURVE SMOOTH",
"175 62 OFFCURVE",
"123 113 OFFCURVE",
"123 204 CURVE SMOOTH",
"123 215 OFFCURVE",
"124 227 OFFCURVE",
"127 252 CURVE",
"503 252 LINE",
"510 291 OFFCURVE",
"514 326 OFFCURVE",
"514 355 CURVE SMOOTH",
"514 480 OFFCURVE",
"443 560 OFFCURVE",
"332 560 CURVE SMOOTH",
"260 560 OFFCURVE",
"196 533 OFFCURVE",
"149 485 CURVE SMOOTH",
"78 408 OFFCURVE",
"42 308 OFFCURVE",
"42 195 CURVE SMOOTH",
"42 62 OFFCURVE",
"117 -14 OFFCURVE",
"254 -14 CURVE SMOOTH"
);
},
{
closed = 1;
nodes = (
"174 425 OFFCURVE",
"238 484 OFFCURVE",
"318 484 CURVE SMOOTH",
"391 484 OFFCURVE",
"436 435 OFFCURVE",
"436 355 CURVE SMOOTH",
"436 344 OFFCURVE",
"434 333 OFFCURVE",
"433 322 CURVE",
"143 322 LINE"
);
}
);
width = 554;
},
{
layerId = "BED8EE44-B183-4D86-965C-1BADD1250A61";
paths = (
{
closed = 1;
nodes = (
"352 -14 OFFCURVE",
"427 1 OFFCURVE",
"503 32 CURVE",
"527 168 LINE",
"447 124 OFFCURVE",
"372 102 OFFCURVE",
"307 102 CURVE SMOOTH",
"230 102 OFFCURVE",
"191 137 OFFCURVE",
"191 208 CURVE SMOOTH",
"191 210 OFFCURVE",
"191 213 OFFCURVE",
"192 217 CURVE SMOOTH",
"192 220 OFFCURVE",
"192 223 OFFCURVE",
"192 225 CURVE",
"561 225 LINE",
"566 253 LINE SMOOTH",
"573 288 OFFCURVE",
"576 315 OFFCURVE",
"576 342 CURVE SMOOTH",
"576 475 OFFCURVE",
"492 560 OFFCURVE",
"359 560 CURVE SMOOTH",
"256 560 OFFCURVE",
"171 520 OFFCURVE",
"111 441 CURVE SMOOTH",
"59 376 OFFCURVE",
"33 295 OFFCURVE",
"33 212 CURVE SMOOTH",
"33 68 OFFCURVE",
"120 -14 OFFCURVE",
"273 -14 CURVE SMOOTH"
);
},
{
closed = 1;
nodes = (
"237 406 OFFCURVE",
"281 444 OFFCURVE",
"342 444 CURVE SMOOTH",
"390 444 OFFCURVE",
"420 411 OFFCURVE",
"420 359 CURVE SMOOTH",
"420 351 OFFCURVE",
"420 341 OFFCURVE",
"417 333 CURVE",
"214 333 LINE"
);
}
);
width = 610;
},
{
layerId = "99D829B7-D749-4014-BBE4-6F1A75B6E575";
paths = (
{
closed = 1;
nodes = (
"379 -14 OFFCURVE",
"454 0 OFFCURVE",
"519 28 CURVE",
"519 75 LINE",
"487 58 OFFCURVE",
"455 46 OFFCURVE",
"422 37 CURVE SMOOTH",
"390 28 OFFCURVE",
"364 24 OFFCURVE",
"344 24 CURVE SMOOTH",
"269 24 OFFCURVE",
"213 44 OFFCURVE",
"176 83 CURVE SMOOTH",
"142 118 OFFCURVE",
"125 180 OFFCURVE",
"125 268 CURVE",
"540 268 LINE",
"540 296 LINE SMOOTH",
"540 375 OFFCURVE",
"522 440 OFFCURVE",
"485 489 CURVE SMOOTH",
"449 536 OFFCURVE",
"395 560 OFFCURVE",
"323 560 CURVE SMOOTH",
"246 560 OFFCURVE",
"186 535 OFFCURVE",
"143 485 CURVE SMOOTH",
"100 438 OFFCURVE",
"79 365 OFFCURVE",
"79 268 CURVE SMOOTH",
"79 174 OFFCURVE",
"102 103 OFFCURVE",
"148 54 CURVE SMOOTH",
"191 9 OFFCURVE",
"254 -14 OFFCURVE",
"339 -14 CURVE SMOOTH"
);
},
{
closed = 1;
nodes = (
"133 386 OFFCURVE",
"154 441 OFFCURVE",
"188 472 CURVE SMOOTH",
"225 505 OFFCURVE",
"270 521 OFFCURVE",
"324 521 CURVE SMOOTH",
"374 521 OFFCURVE",
"413 505 OFFCURVE",
"442 474 CURVE SMOOTH",
"477 439 OFFCURVE",
"494 383 OFFCURVE",
"494 306 CURVE",
"126 306 LINE"
);
}
);
width = 615;
},
{
layerId = "D5B43B4B-63DF-4B35-BEE3-B41B34784265";
paths = (
{
closed = 1;
nodes = (
"391 -14 OFFCURVE",
"474 1 OFFCURVE",
"559 32 CURVE",
"586 168 LINE",
"497 124 OFFCURVE",
"414 102 OFFCURVE",
"341 102 CURVE SMOOTH",
"256 102 OFFCURVE",
"213 137 OFFCURVE",
"213 208 CURVE SMOOTH",
"213 210 OFFCURVE",
"213 213 OFFCURVE",
"214 217 CURVE SMOOTH",
"214 220 OFFCURVE",
"214 223 OFFCURVE",
"214 225 CURVE",
"623 225 LINE",
"629 253 LINE SMOOTH",
"637 288 OFFCURVE",
"640 315 OFFCURVE",
"640 342 CURVE SMOOTH",
"640 475 OFFCURVE",
"547 560 OFFCURVE",
"399 560 CURVE SMOOTH",
"284 560 OFFCURVE",
"190 520 OFFCURVE",
"123 441 CURVE SMOOTH",
"67 376 OFFCURVE",
"36 295 OFFCURVE",
"36 212 CURVE SMOOTH",
"36 68 OFFCURVE",
"132 -14 OFFCURVE",
"303 -14 CURVE SMOOTH"
);
},
{
closed = 1;
nodes = (
"263 406 OFFCURVE",
"312 444 OFFCURVE",
"380 444 CURVE SMOOTH",
"433 444 OFFCURVE",
"467 411 OFFCURVE",
"467 359 CURVE SMOOTH",
"467 351 OFFCURVE",
"465 341 OFFCURVE",
"464 333 CURVE",
"238 333 LINE"
);
}
);
width = 678;
}
);
leftKerningGroup = e;
note = e;
rightKerningGroup = e;
unicode = 0065;
},
{
export = 0;
glyphname = f;
layers = (
{
layerId = "79F6B4AB-4C44-4F2D-9893-C213A8C041F5";
paths = (
{
closed = 1;
nodes = (
"179 0 LINE",
"179 477 LINE",
"313 477 LINE",
"313 547 LINE",
"179 547 LINE",
"179 595 LINE SMOOTH",
"179 663 OFFCURVE",
"198 685 OFFCURVE",
"257 685 CURVE SMOOTH",
"334 685 LINE",
"334 760 LINE",
"257 760 LINE SMOOTH",
"146 760 OFFCURVE",
"98 706 OFFCURVE",
"98 585 CURVE SMOOTH",
"98 547 LINE",
"21 547 LINE",
"21 477 LINE",
"98 477 LINE",
"98 0 LINE"
);
}
);
width = 316;
},
{
layerId = "EB88A49E-561A-4405-9552-C71224CBA53C";
paths = (
{
closed = 1;
nodes = (
"199 0 LINE",
"199 477 LINE",
"347 477 LINE",
"347 547 LINE",
"199 547 LINE",
"199 595 LINE SMOOTH",
"199 663 OFFCURVE",
"221 685 OFFCURVE",
"285 685 CURVE SMOOTH",
"371 685 LINE",
"371 760 LINE",
"286 760 LINE SMOOTH",
"163 760 OFFCURVE",
"109 706 OFFCURVE",
"109 585 CURVE SMOOTH",
"109 547 LINE",
"23 547 LINE",
"23 477 LINE",
"109 477 LINE",
"109 0 LINE"
);
}
);
width = 352;
},
{
layerId = "5297CC84-2E5E-44C2-8BD8-B52BBF62A592";
paths = (
{
closed = 1;
nodes = (
"281 0 LINE",
"281 422 LINE",
"430 422 LINE",
"430 547 LINE",
"281 547 LINE",
"281 585 LINE SMOOTH",
"281 629 OFFCURVE",
"298 645 OFFCURVE",
"347 645 CURVE SMOOTH",
"444 645 LINE",
"444 760 LINE",
"310 760 LINE SMOOTH",
"171 760 OFFCURVE",
"106 704 OFFCURVE",
"106 585 CURVE SMOOTH",
"106 547 LINE",
"19 547 LINE",
"19 422 LINE",
"106 422 LINE",
"106 0 LINE"
);
}
);
width = 435;
},
{
layerId = "5FB0259D-C3EC-4F0F-ABB4-6EFEC5FB1D78";
paths = (
{
closed = 1;
nodes = (
"253 0 LINE",
"253 422 LINE",
"387 422 LINE",
"387 547 LINE",
"253 547 LINE",
"253 585 LINE SMOOTH",
"253 629 OFFCURVE",
"268 645 OFFCURVE",
"313 645 CURVE SMOOTH",
"399 645 LINE",
"399 760 LINE",
"279 760 LINE SMOOTH",
"154 760 OFFCURVE",
"95 704 OFFCURVE",
"95 585 CURVE SMOOTH",
"95 547 LINE",
"17 547 LINE",
"17 422 LINE",
"95 422 LINE",
"95 0 LINE"
);
}
);
width = 391;
},
{
layerId = "79D829DC-9C66-44C2-8B43-D291CF08F0E9";
paths = (
{
closed = 1;
nodes = (
"158 0 LINE",
"251 477 LINE",
"399 477 LINE",
"412 547 LINE",
"264 547 LINE",
"274 595 LINE SMOOTH",
"289 663 OFFCURVE",
"313 685 OFFCURVE",
"378 685 CURVE SMOOTH",
"464 685 LINE",
"478 760 LINE",
"393 760 LINE SMOOTH",
"260 760 OFFCURVE",
"206 714 OFFCURVE",
"181 585 CURVE SMOOTH",
"174 547 LINE",
"88 547 LINE",
"75 477 LINE",
"161 477 LINE",
"68 0 LINE"
);
}
);
width = 352;
},
{
layerId = "217D6A7E-4635-413B-8BF5-4A1DD3DA67ED";
paths = (
{
closed = 1;
nodes = (
"143 0 LINE",
"226 477 LINE",
"359 477 LINE",
"371 547 LINE",
"238 547 LINE",
"247 595 LINE SMOOTH",
"259 663 OFFCURVE",
"281 685 OFFCURVE",
"340 685 CURVE SMOOTH",
"417 685 LINE",
"430 760 LINE",
"354 760 LINE SMOOTH",
"234 760 OFFCURVE",
"186 714 OFFCURVE",
"163 585 CURVE SMOOTH",
"156 547 LINE",
"79 547 LINE",
"68 477 LINE",
"145 477 LINE",
"61 0 LINE"
);
}
);
width = 316;
},
{
layerId = "BED8EE44-B183-4D86-965C-1BADD1250A61";
paths = (
{
closed = 1;
nodes = (
"207 0 LINE",
"281 422 LINE",
"414 422 LINE",
"436 547 LINE",
"302 547 LINE",
"310 585 LINE",
"317 629 OFFCURVE",
"335 645 OFFCURVE",
"379 645 CURVE SMOOTH",
"465 645 LINE",
"486 760 LINE",
"365 760 LINE SMOOTH",
"240 760 OFFCURVE",
"172 706 OFFCURVE",
"151 585 CURVE SMOOTH",
"144 547 LINE",
"67 547 LINE",
"45 422 LINE",
"123 422 LINE",
"49 0 LINE"
);
}
);
width = 391;
},
{
layerId = "99D829B7-D749-4014-BBE4-6F1A75B6E575";
paths = (
{
closed = 1;
nodes = (
"177 0 LINE",
"177 509 LINE",
"324 509 LINE",
"324 547 LINE",
"177 547 LINE",
"177 595 LINE SMOOTH",
"177 641 OFFCURVE",
"188 675 OFFCURVE",
"209 696 CURVE SMOOTH",
"226 713 OFFCURVE",
"252 722 OFFCURVE",
"285 722 CURVE SMOOTH",
"349 722 LINE",
"349 760 LINE",
"286 760 LINE SMOOTH",
"238 760 OFFCURVE",
"200 746 OFFCURVE",
"173 718 CURVE SMOOTH",
"145 690 OFFCURVE",
"131 646 OFFCURVE",
"131 585 CURVE SMOOTH",
"131 547 LINE",
"45 547 LINE",
"45 509 LINE",
"131 509 LINE",
"131 0 LINE"
);
}
);
width = 352;
},
{
layerId = "D5B43B4B-63DF-4B35-BEE3-B41B34784265";
paths = (
{
closed = 1;
nodes = (
"230 0 LINE",
"312 422 LINE",
"460 422 LINE",
"484 547 LINE",
"336 547 LINE",
"344 585 LINE SMOOTH",
"353 629 OFFCURVE",
"372 645 OFFCURVE",
"421 645 CURVE SMOOTH",
"517 645 LINE",
"540 760 LINE",
"406 760 LINE SMOOTH",
"265 760 OFFCURVE",
"192 706 OFFCURVE",
"168 585 CURVE SMOOTH",
"160 547 LINE",
"74 547 LINE",
"50 422 LINE",
"136 422 LINE",
"54 0 LINE"
);
}
);
width = 435;
}
);
leftKerningGroup = f;
note = f;
rightKerningGroup = f;
unicode = 0066;
},
{
export = 0;
glyphname = g;
layers = (
{
layerId = "79F6B4AB-4C44-4F2D-9893-C213A8C041F5";
paths = (
{
closed = 1;
nodes = (
"416 -208 OFFCURVE",
"490 -119 OFFCURVE",
"490 68 CURVE SMOOTH",
"490 547 LINE",
"409 547 LINE",
"409 464 LINE",
"376 528 OFFCURVE",
"324 560 OFFCURVE",
"251 560 CURVE SMOOTH",
"130 560 OFFCURVE",
"50 449 OFFCURVE",
"50 280 CURVE SMOOTH",
"50 111 OFFCURVE",
"130 0 OFFCURVE",
"251 0 CURVE SMOOTH",
"324 0 OFFCURVE",
"376 32 OFFCURVE",
"409 96 CURVE",
"409 52 LINE SMOOTH",
"409 -73 OFFCURVE",
"357 -134 OFFCURVE",
"250 -134 CURVE SMOOTH",
"202 -134 OFFCURVE",
"157 -120 OFFCURVE",
"109 -92 CURVE",
"109 -179 LINE",
"157 -199 OFFCURVE",
"206 -208 OFFCURVE",
"263 -208 CURVE SMOOTH"
);
},
{
closed = 1;
nodes = (
"184 75 OFFCURVE",
"133 151 OFFCURVE",
"133 280 CURVE SMOOTH",
"133 409 OFFCURVE",
"184 485 OFFCURVE",
"271 485 CURVE SMOOTH",
"358 485 OFFCURVE",
"409 409 OFFCURVE",
"409 280 CURVE SMOOTH",
"409 151 OFFCURVE",
"358 75 OFFCURVE",
"271 75 CURVE SMOOTH"
);
}
);
width = 571;
},
{
layerId = "EB88A49E-561A-4405-9552-C71224CBA53C";
paths = (
{
closed = 1;
nodes = (
"463 -208 OFFCURVE",
"544 -119 OFFCURVE",
"544 68 CURVE SMOOTH",
"544 547 LINE",
"454 547 LINE",
"454 464 LINE",
"417 528 OFFCURVE",
"359 560 OFFCURVE",
"279 560 CURVE SMOOTH",
"144 560 OFFCURVE",
"55 449 OFFCURVE",
"55 280 CURVE SMOOTH",
"55 111 OFFCURVE",
"144 0 OFFCURVE",
"279 0 CURVE SMOOTH",
"359 0 OFFCURVE",
"417 32 OFFCURVE",
"454 96 CURVE",
"454 52 LINE SMOOTH",
"454 -73 OFFCURVE",
"395 -134 OFFCURVE",
"278 -134 CURVE SMOOTH",
"225 -134 OFFCURVE",
"174 -120 OFFCURVE",
"121 -92 CURVE",
"121 -179 LINE",
"174 -199 OFFCURVE",
"229 -208 OFFCURVE",
"292 -208 CURVE SMOOTH"
);
},
{
closed = 1;
nodes = (
"205 75 OFFCURVE",
"148 151 OFFCURVE",
"148 280 CURVE SMOOTH",
"148 409 OFFCURVE",
"205 485 OFFCURVE",
"301 485 CURVE SMOOTH",
"398 485 OFFCURVE",
"454 409 OFFCURVE",
"454 280 CURVE SMOOTH",
"454 151 OFFCURVE",
"398 75 OFFCURVE",
"301 75 CURVE SMOOTH"
);
}
);
width = 635;
},
{
layerId = "5297CC84-2E5E-44C2-8BD8-B52BBF62A592";
paths = (
{
closed = 1;
nodes = (
"518 -216 OFFCURVE",
"632 -121 OFFCURVE",
"632 55 CURVE SMOOTH",
"632 547 LINE",
"456 547 LINE",
"456 466 LINE",
"408 530 OFFCURVE",
"352 559 OFFCURVE",
"276 559 CURVE SMOOTH",
"143 559 OFFCURVE",
"45 443 OFFCURVE",
"45 280 CURVE SMOOTH",
"45 117 OFFCURVE",
"143 0 OFFCURVE",
"276 0 CURVE SMOOTH",
"352 0 OFFCURVE",
"408 29 OFFCURVE",
"456 93 CURVE",
"456 55 LINE SMOOTH",
"456 -52 OFFCURVE",
"405 -100 OFFCURVE",
"290 -100 CURVE SMOOTH",
"231 -100 OFFCURVE",
"173 -83 OFFCURVE",
"112 -48 CURVE",
"112 -184 LINE",
"176 -205 OFFCURVE",
"239 -216 OFFCURVE",
"307 -216 CURVE SMOOTH"
);
},
{
closed = 1;
nodes = (
"266 127 OFFCURVE",
"226 180 OFFCURVE",
"226 280 CURVE SMOOTH",
"226 377 OFFCURVE",
"269 433 OFFCURVE",
"341 433 CURVE SMOOTH",
"414 433 OFFCURVE",
"456 377 OFFCURVE",
"456 280 CURVE SMOOTH",
"456 183 OFFCURVE",
"414 127 OFFCURVE",
"341 127 CURVE SMOOTH"
);
}
);
width = 716;
},
{
layerId = "5FB0259D-C3EC-4F0F-ABB4-6EFEC5FB1D78";
paths = (
{
closed = 1;
nodes = (
"467 -216 OFFCURVE",
"569 -121 OFFCURVE",
"569 55 CURVE SMOOTH",
"569 547 LINE",
"411 547 LINE",
"411 466 LINE",
"367 530 OFFCURVE",
"317 559 OFFCURVE",
"248 559 CURVE SMOOTH",
"128 559 OFFCURVE",
"41 443 OFFCURVE",
"41 280 CURVE SMOOTH",
"41 117 OFFCURVE",
"128 0 OFFCURVE",
"248 0 CURVE SMOOTH",
"317 0 OFFCURVE",
"367 29 OFFCURVE",
"411 93 CURVE",
"411 55 LINE SMOOTH",
"411 -52 OFFCURVE",
"364 -100 OFFCURVE",
"261 -100 CURVE SMOOTH",
"208 -100 OFFCURVE",
"156 -83 OFFCURVE",
"101 -48 CURVE",
"101 -184 LINE",
"158 -205 OFFCURVE",
"215 -216 OFFCURVE",
"276 -216 CURVE SMOOTH"
);
},
{
closed = 1;
nodes = (
"239 127 OFFCURVE",
"204 180 OFFCURVE",
"204 280 CURVE SMOOTH",
"204 377 OFFCURVE",
"242 433 OFFCURVE",
"307 433 CURVE SMOOTH",
"372 433 OFFCURVE",
"411 377 OFFCURVE",
"411 280 CURVE SMOOTH",
"411 183 OFFCURVE",
"372 127 OFFCURVE",
"307 127 CURVE SMOOTH"
);
}
);
width = 644;
},
{
layerId = "79D829DC-9C66-44C2-8B43-D291CF08F0E9";
paths = (
{
closed = 1;
nodes = (
"367 -208 OFFCURVE",
"467 -117 OFFCURVE",
"503 68 CURVE SMOOTH",
"596 547 LINE",
"506 547 LINE",
"490 462 LINE",
"463 525 OFFCURVE",
"406 560 OFFCURVE",
"333 560 CURVE SMOOTH",
"266 560 OFFCURVE",
"201 532 OFFCURVE",
"156 483 CURVE SMOOTH",
"87 408 OFFCURVE",
"46 307 OFFCURVE",
"46 206 CURVE SMOOTH",
"46 78 OFFCURVE",
"113 0 OFFCURVE",
"224 0 CURVE SMOOTH",
"301 0 OFFCURVE",
"368 31 OFFCURVE",
"419 88 CURVE",
"411 47 LINE SMOOTH",
"388 -70 OFFCURVE",
"313 -134 OFFCURVE",
"198 -134 CURVE SMOOTH",
"142 -134 OFFCURVE",
"93 -120 OFFCURVE",
"49 -92 CURVE",
"32 -179 LINE",
"79 -199 OFFCURVE",
"132 -208 OFFCURVE",
"196 -208 CURVE SMOOTH"
);
},
{
closed = 1;
nodes = (
"182 75 OFFCURVE",
"139 124 OFFCURVE",
"139 215 CURVE SMOOTH",
"139 295 OFFCURVE",
"169 375 OFFCURVE",
"218 431 CURVE SMOOTH",
"249 466 OFFCURVE",
"293 485 OFFCURVE",
"341 485 CURVE SMOOTH",
"417 485 OFFCURVE",
"461 435 OFFCURVE",
"461 346 CURVE SMOOTH",
"461 191 OFFCURVE",
"376 75 OFFCURVE",
"261 75 CURVE SMOOTH"
);
}
);
width = 635;
},
{
layerId = "217D6A7E-4635-413B-8BF5-4A1DD3DA67ED";
paths = (
{
closed = 1;
nodes = (
"331 -208 OFFCURVE",
"421 -117 OFFCURVE",
"453 68 CURVE SMOOTH",
"537 547 LINE",
"455 547 LINE",
"441 462 LINE",
"417 525 OFFCURVE",
"367 560 OFFCURVE",
"300 560 CURVE SMOOTH",
"239 560 OFFCURVE",
"181 532 OFFCURVE",
"140 483 CURVE SMOOTH",
"77 408 OFFCURVE",
"42 307 OFFCURVE",
"42 206 CURVE SMOOTH",
"42 78 OFFCURVE",
"102 0 OFFCURVE",
"202 0 CURVE SMOOTH",
"270 0 OFFCURVE",
"332 31 OFFCURVE",
"377 88 CURVE",
"370 47 LINE SMOOTH",
"349 -70 OFFCURVE",
"281 -134 OFFCURVE",
"178 -134 CURVE SMOOTH",
"129 -134 OFFCURVE",
"84 -120 OFFCURVE",
"44 -92 CURVE",
"29 -179 LINE",
"72 -199 OFFCURVE",
"120 -208 OFFCURVE",
"176 -208 CURVE SMOOTH"
);
},
{
closed = 1;
nodes = (
"164 75 OFFCURVE",
"125 124 OFFCURVE",
"125 215 CURVE SMOOTH",
"125 295 OFFCURVE",
"152 375 OFFCURVE",
"196 431 CURVE SMOOTH",
"224 466 OFFCURVE",
"263 485 OFFCURVE",
"307 485 CURVE SMOOTH",
"375 485 OFFCURVE",
"415 435 OFFCURVE",
"415 346 CURVE SMOOTH",
"415 191 OFFCURVE",
"338 75 OFFCURVE",
"235 75 CURVE SMOOTH"
);
}
);
width = 571;
},
{
layerId = "BED8EE44-B183-4D86-965C-1BADD1250A61";
paths = (
{
closed = 1;
nodes = (
"387 -216 OFFCURVE",
"496 -124 OFFCURVE",
"531 72 CURVE SMOOTH",
"614 547 LINE",
"455 547 LINE",
"442 466 LINE",
"410 530 OFFCURVE",
"364 559 OFFCURVE",
"295 559 CURVE SMOOTH",
"219 559 OFFCURVE",
"151 517 OFFCURVE",
"99 438 CURVE SMOOTH",
"56 373 OFFCURVE",
"33 296 OFFCURVE",
"33 223 CURVE SMOOTH",
"33 86 OFFCURVE",
"102 0 OFFCURVE",
"214 0 CURVE SMOOTH",
"275 0 OFFCURVE",
"325 29 OFFCURVE",
"376 93 CURVE",
"369 55 LINE SMOOTH",
"349 -53 OFFCURVE",
"297 -100 OFFCURVE",
"192 -100 CURVE SMOOTH",
"140 -100 OFFCURVE",
"91 -83 OFFCURVE",
"42 -48 CURVE",
"18 -184 LINE",
"74 -205 OFFCURVE",
"129 -216 OFFCURVE",
"190 -216 CURVE SMOOTH"
);
},
{
closed = 1;
nodes = (
"226 127 OFFCURVE",
"197 162 OFFCURVE",
"197 229 CURVE SMOOTH",
"197 346 OFFCURVE",
"255 433 OFFCURVE",
"332 433 CURVE SMOOTH",
"385 433 OFFCURVE",
"413 397 OFFCURVE",
"413 329 CURVE SMOOTH",
"413 214 OFFCURVE",
"355 127 OFFCURVE",
"278 127 CURVE SMOOTH"
);
}
);
width = 644;
},
{
layerId = "99D829B7-D749-4014-BBE4-6F1A75B6E575";
paths = (
{
closed = 1;
nodes = (
"425 -208 OFFCURVE",
"521 -160 OFFCURVE",
"521 68 CURVE SMOOTH",
"521 547 LINE",
"477 547 LINE",
"477 431 LINE",
"460 467 OFFCURVE",
"440 496 OFFCURVE",
"415 518 CURVE SMOOTH",
"383 546 OFFCURVE",
"345 560 OFFCURVE",
"301 560 CURVE SMOOTH",
"162 560 OFFCURVE",
"81 457 OFFCURVE",
"81 280 CURVE SMOOTH",
"81 103 OFFCURVE",
"162 0 OFFCURVE",
"301 0 CURVE SMOOTH",
"346 0 OFFCURVE",
"386 16 OFFCURVE",
"421 49 CURVE SMOOTH",
"445 70 OFFCURVE",
"464 100 OFFCURVE",
"477 137 CURVE",
"477 52 LINE SMOOTH",
"477 -152 OFFCURVE",
"386 -170 OFFCURVE",
"278 -170 CURVE SMOOTH",
"225 -170 OFFCURVE",
"174 -156 OFFCURVE",
"121 -128 CURVE",
"121 -179 LINE",
"148 -189 OFFCURVE",
"175 -196 OFFCURVE",
"203 -201 CURVE SMOOTH",
"231 -206 OFFCURVE",
"261 -208 OFFCURVE",
"292 -208 CURVE SMOOTH"
);
},
{
closed = 1;
nodes = (
"190 41 OFFCURVE",
"126 129 OFFCURVE",
"126 280 CURVE SMOOTH",
"126 432 OFFCURVE",
"190 519 OFFCURVE",
"301 519 CURVE SMOOTH",
"412 519 OFFCURVE",
"477 432 OFFCURVE",
"477 280 CURVE SMOOTH",
"477 129 OFFCURVE",
"412 41 OFFCURVE",
"301 41 CURVE SMOOTH"
);
}
);
width = 600;
},
{
layerId = "D5B43B4B-63DF-4B35-BEE3-B41B34784265";
paths = (
{
closed = 1;
nodes = (
"431 -216 OFFCURVE",
"553 -124 OFFCURVE",
"590 72 CURVE SMOOTH",
"682 547 LINE",
"506 547 LINE",
"491 466 LINE",
"455 530 OFFCURVE",
"405 559 OFFCURVE",
"328 559 CURVE SMOOTH",
"243 559 OFFCURVE",
"167 517 OFFCURVE",
"110 438 CURVE SMOOTH",
"63 373 OFFCURVE",
"37 296 OFFCURVE",
"37 223 CURVE SMOOTH",
"37 86 OFFCURVE",
"114 0 OFFCURVE",
"238 0 CURVE SMOOTH",
"306 0 OFFCURVE",
"362 29 OFFCURVE",
"418 93 CURVE",
"410 55 LINE SMOOTH",
"389 -53 OFFCURVE",
"330 -100 OFFCURVE",
"214 -100 CURVE SMOOTH",
"155 -100 OFFCURVE",
"101 -83 OFFCURVE",
"46 -48 CURVE",
"20 -184 LINE",
"81 -205 OFFCURVE",
"143 -216 OFFCURVE",
"211 -216 CURVE SMOOTH"
);
},
{
closed = 1;
nodes = (
"250 127 OFFCURVE",
"219 162 OFFCURVE",
"219 229 CURVE SMOOTH",
"219 346 OFFCURVE",
"284 433 OFFCURVE",
"369 433 CURVE SMOOTH",
"428 433 OFFCURVE",
"459 397 OFFCURVE",
"459 329 CURVE SMOOTH",
"459 214 OFFCURVE",
"394 127 OFFCURVE",
"309 127 CURVE SMOOTH"
);
}
);
width = 716;
}
);
leftKerningGroup = g;
note = g;
unicode = 0067;
},
{
export = 0;
glyphname = h;
layers = (
{
layerId = "79F6B4AB-4C44-4F2D-9893-C213A8C041F5";
paths = (
{
closed = 1;
nodes = (
"163 0 LINE",
"163 309 LINE SMOOTH",
"163 416 OFFCURVE",
"217 482 OFFCURVE",
"304 482 CURVE SMOOTH",
"376 482 OFFCURVE",
"413 431 OFFCURVE",
"413 327 CURVE SMOOTH",
"413 0 LINE",
"494 0 LINE",
"494 330 LINE SMOOTH",
"494 481 OFFCURVE",
"435 560 OFFCURVE",
"322 560 CURVE SMOOTH",
"254 560 OFFCURVE",
"202 527 OFFCURVE",
"163 462 CURVE",
"163 760 LINE",
"82 760 LINE",
"82 0 LINE"
);
}
);
width = 570;
},
{
layerId = "EB88A49E-561A-4405-9552-C71224CBA53C";
paths = (
{
closed = 1;
nodes = (
"181 0 LINE",
"181 309 LINE SMOOTH",
"181 416 OFFCURVE",
"241 482 OFFCURVE",
"338 482 CURVE SMOOTH",
"418 482 OFFCURVE",
"459 431 OFFCURVE",
"459 327 CURVE SMOOTH",
"459 0 LINE",
"549 0 LINE",
"549 330 LINE SMOOTH",
"549 481 OFFCURVE",
"483 560 OFFCURVE",
"358 560 CURVE SMOOTH",
"282 560 OFFCURVE",
"224 527 OFFCURVE",
"181 462 CURVE",
"181 760 LINE",
"91 760 LINE",
"91 0 LINE"
);
}
);
width = 634;
},
{
layerId = "5297CC84-2E5E-44C2-8BD8-B52BBF62A592";
paths = (
{
closed = 1;
nodes = (
"259 0 LINE",
"259 269 LINE SMOOTH",
"259 369 OFFCURVE",
"303 428 OFFCURVE",
"376 428 CURVE SMOOTH",
"405 428 OFFCURVE",
"431 415 OFFCURVE",
"444 392 CURVE SMOOTH",
"449 383 OFFCURVE",
"453 370 OFFCURVE",
"455 353 CURVE SMOOTH",
"457 335 OFFCURVE",
"458 302 OFFCURVE",
"458 254 CURVE SMOOTH",
"458 0 LINE",
"634 0 LINE",
"634 333 LINE SMOOTH",
"634 481 OFFCURVE",
"568 560 OFFCURVE",
"441 560 CURVE SMOOTH",
"369 560 OFFCURVE",
"311 531 OFFCURVE",
"259 467 CURVE",
"259 760 LINE",
"84 760 LINE",
"84 0 LINE"
);
}
);
width = 712;
},
{
layerId = "5FB0259D-C3EC-4F0F-ABB4-6EFEC5FB1D78";
paths = (
{
closed = 1;
nodes = (
"233 0 LINE",
"233 269 LINE SMOOTH",
"233 369 OFFCURVE",
"273 428 OFFCURVE",
"338 428 CURVE SMOOTH",
"365 428 OFFCURVE",
"387 415 OFFCURVE",
"399 392 CURVE SMOOTH",
"404 383 OFFCURVE",
"407 370 OFFCURVE",
"409 353 CURVE SMOOTH",
"411 335 OFFCURVE",
"412 302 OFFCURVE",
"412 254 CURVE SMOOTH",
"412 0 LINE",
"570 0 LINE",
"570 333 LINE SMOOTH",
"570 481 OFFCURVE",
"510 560 OFFCURVE",
"397 560 CURVE SMOOTH",
"333 560 OFFCURVE",
"281 531 OFFCURVE",
"233 467 CURVE",
"233 760 LINE",
"76 760 LINE",
"76 0 LINE"
);
}
);
width = 641;
},
{
layerId = "79D829DC-9C66-44C2-8B43-D291CF08F0E9";
paths = (
{
closed = 1;
nodes = (
"125 0 LINE",
"184 303 LINE SMOOTH",
"205 411 OFFCURVE",
"282 482 OFFCURVE",
"378 482 CURVE SMOOTH",
"439 482 OFFCURVE",
"476 450 OFFCURVE",
"476 395 CURVE SMOOTH",
"476 382 OFFCURVE",
"472 358 OFFCURVE",
"467 327 CURVE SMOOTH",
"403 0 LINE",
"493 0 LINE",
"557 330 LINE SMOOTH",
"564 362 OFFCURVE",
"566 388 OFFCURVE",
"566 411 CURVE SMOOTH",
"566 506 OFFCURVE",
"510 560 OFFCURVE",
"414 560 CURVE SMOOTH",
"335 560 OFFCURVE",
"260 522 OFFCURVE",
"215 461 CURVE",
"273 760 LINE",
"183 760 LINE",
"35 0 LINE"
);
}
);
width = 634;
},
{
layerId = "217D6A7E-4635-413B-8BF5-4A1DD3DA67ED";
paths = (
{
closed = 1;
nodes = (
"112 0 LINE",
"166 303 LINE SMOOTH",
"185 411 OFFCURVE",
"253 482 OFFCURVE",
"340 482 CURVE SMOOTH",
"396 482 OFFCURVE",
"429 450 OFFCURVE",
"429 395 CURVE SMOOTH",
"429 382 OFFCURVE",
"425 358 OFFCURVE",
"420 327 CURVE SMOOTH",
"362 0 LINE",
"444 0 LINE",
"501 330 LINE SMOOTH",
"506 362 OFFCURVE",
"509 388 OFFCURVE",
"509 411 CURVE SMOOTH",
"509 506 OFFCURVE",
"460 560 OFFCURVE",
"373 560 CURVE SMOOTH",
"302 560 OFFCURVE",
"234 522 OFFCURVE",
"193 461 CURVE",
"246 760 LINE",
"165 760 LINE",
"32 0 LINE"
);
}
);
width = 570;
},
{
layerId = "BED8EE44-B183-4D86-965C-1BADD1250A61";
paths = (
{
closed = 1;
nodes = (
"186 0 LINE",
"233 269 LINE SMOOTH",
"252 369 OFFCURVE",
"300 428 OFFCURVE",
"365 428 CURVE SMOOTH",
"404 428 OFFCURVE",
"425 404 OFFCURVE",
"425 363 CURVE SMOOTH",
"425 348 OFFCURVE",
"421 322 OFFCURVE",
"414 285 CURVE SMOOTH",
"364 0 LINE",
"522 0 LINE",
"581 333 LINE",
"585 362 OFFCURVE",
"588 389 OFFCURVE",
"588 409 CURVE SMOOTH",
"588 505 OFFCURVE",
"538 560 OFFCURVE",
"446 560 CURVE SMOOTH",
"382 560 OFFCURVE",
"326 530 OFFCURVE",
"267 467 CURVE",
"318 760 LINE",
"160 760 LINE",
"28 0 LINE"
);
}
);
width = 641;
},
{
layerId = "99D829B7-D749-4014-BBE4-6F1A75B6E575";
paths = (
{
closed = 1;
nodes = (
"158 0 LINE",
"158 309 LINE SMOOTH",
"158 461 OFFCURVE",
"227 521 OFFCURVE",
"338 521 CURVE SMOOTH",
"434 521 OFFCURVE",
"481 468 OFFCURVE",
"481 327 CURVE SMOOTH",
"481 0 LINE",
"526 0 LINE",
"526 330 LINE SMOOTH",
"526 405 OFFCURVE",
"510 463 OFFCURVE",
"478 502 CURVE SMOOTH",
"446 541 OFFCURVE",
"403 560 OFFCURVE",
"349 560 CURVE SMOOTH",
"291 560 OFFCURVE",
"246 547 OFFCURVE",
"214 521 CURVE SMOOTH",
"187 499 OFFCURVE",
"169 474 OFFCURVE",
"158 446 CURVE",
"158 760 LINE",
"113 760 LINE",
"113 0 LINE"
);
}
);
width = 634;
},
{
layerId = "D5B43B4B-63DF-4B35-BEE3-B41B34784265";
paths = (
{
closed = 1;
nodes = (
"206 0 LINE",
"259 269 LINE SMOOTH",
"279 369 OFFCURVE",
"334 428 OFFCURVE",
"406 428 CURVE SMOOTH",
"449 428 OFFCURVE",
"472 404 OFFCURVE",
"472 363 CURVE SMOOTH",
"472 348 OFFCURVE",
"468 322 OFFCURVE",
"460 285 CURVE SMOOTH",
"405 0 LINE",
"580 0 LINE",
"645 333 LINE SMOOTH",
"650 362 OFFCURVE",
"654 389 OFFCURVE",
"654 409 CURVE SMOOTH",
"654 505 OFFCURVE",
"597 560 OFFCURVE",
"496 560 CURVE SMOOTH",
"425 560 OFFCURVE",
"361 530 OFFCURVE",
"297 467 CURVE",
"354 760 LINE",
"178 760 LINE",
"31 0 LINE"
);
}
);
width = 712;
}
);
leftKerningGroup = g;
note = h;
unicode = 0068;
},
{
export = 0;
glyphname = i;
layers = (
{
layerId = "79F6B4AB-4C44-4F2D-9893-C213A8C041F5";
paths = (
{
closed = 1;
nodes = (
"166 0 LINE",
"166 547 LINE",
"85 547 LINE",
"85 0 LINE"
);
},
{
closed = 1;
nodes = (
"166 646 LINE",
"166 760 LINE",
"85 760 LINE",
"85 646 LINE"
);
}
);
width = 250;
},
{
layerId = "EB88A49E-561A-4405-9552-C71224CBA53C";
paths = (
{
closed = 1;
nodes = (
"184 0 LINE",
"184 547 LINE",
"94 547 LINE",
"94 0 LINE"
);
},
{
closed = 1;
nodes = (
"184 646 LINE",
"184 760 LINE",
"94 760 LINE",
"94 646 LINE"
);
}
);
width = 278;
},
{
layerId = "5297CC84-2E5E-44C2-8BD8-B52BBF62A592";
paths = (
{
closed = 1;
nodes = (
"259 0 LINE",
"259 547 LINE",
"84 547 LINE",
"84 0 LINE"
);
},
{
closed = 1;
nodes = (
"259 617 LINE",
"259 760 LINE",
"84 760 LINE",
"84 617 LINE"
);
}
);
width = 343;
},
{
layerId = "5FB0259D-C3EC-4F0F-ABB4-6EFEC5FB1D78";
paths = (
{
closed = 1;
nodes = (
"233 0 LINE",
"233 547 LINE",
"76 547 LINE",
"76 0 LINE"
);
},
{
closed = 1;
nodes = (
"233 617 LINE",
"233 760 LINE",
"76 760 LINE",
"76 617 LINE"
);
}
);
width = 308;
},
{
layerId = "79D829DC-9C66-44C2-8B43-D291CF08F0E9";
paths = (
{
closed = 1;
nodes = (
"125 0 LINE",
"232 547 LINE",
"142 547 LINE",
"35 0 LINE"
);
},
{
closed = 1;
nodes = (
"251 646 LINE",
"273 760 LINE",
"183 760 LINE",
"161 646 LINE"
);
}
);
width = 278;
},
{
layerId = "217D6A7E-4635-413B-8BF5-4A1DD3DA67ED";
paths = (
{
closed = 1;
nodes = (
"112 0 LINE",
"209 547 LINE",
"128 547 LINE",
"32 0 LINE"
);
},
{
closed = 1;
nodes = (
"226 646 LINE",
"246 760 LINE",
"165 760 LINE",
"145 646 LINE"
);
}
);
width = 250;
},
{
layerId = "BED8EE44-B183-4D86-965C-1BADD1250A61";
paths = (
{
closed = 1;
nodes = (
"186 0 LINE",
"282 547 LINE",
"124 547 LINE",
"28 0 LINE"
);
},
{
closed = 1;
nodes = (
"293 617 LINE",
"318 760 LINE",
"160 760 LINE",
"135 617 LINE"
);
}
);
width = 308;
},
{
layerId = "99D829B7-D749-4014-BBE4-6F1A75B6E575";
paths = (
{
closed = 1;
nodes = (
"157 0 LINE",
"157 547 LINE",
"112 547 LINE",
"112 0 LINE"
);
},
{
closed = 1;
nodes = (
"157 698 LINE",
"157 760 LINE",
"112 760 LINE",
"112 698 LINE"
);
}
);
width = 278;
},
{
layerId = "D5B43B4B-63DF-4B35-BEE3-B41B34784265";
paths = (
{
closed = 1;
nodes = (
"206 0 LINE",
"313 547 LINE",
"137 547 LINE",
"31 0 LINE"
);
},
{
closed = 1;
nodes = (
"326 617 LINE",
"354 760 LINE",
"178 760 LINE",
"150 617 LINE"
);
}
);
width = 343;
}
);
leftKerningGroup = i;
note = i;
unicode = 0069;
},
{
export = 0;
glyphname = j;
layers = (
{
layerId = "79F6B4AB-4C44-4F2D-9893-C213A8C041F5";
paths = (
{
closed = 1;
nodes = (
"15 -208 LINE SMOOTH",
"122 -208 OFFCURVE",
"166 -149 OFFCURVE",
"166 -10 CURVE SMOOTH",
"166 547 LINE",
"85 547 LINE",
"85 -10 LINE SMOOTH",
"85 -109 OFFCURVE",
"67 -132 OFFCURVE",
"6 -132 CURVE SMOOTH",
"-16 -132 LINE",
"-16 -208 LINE"
);
},
{
closed = 1;
nodes = (
"166 646 LINE",
"166 760 LINE",
"85 760 LINE",
"85 646 LINE"
);
}
);
width = 250;
},
{
layerId = "EB88A49E-561A-4405-9552-C71224CBA53C";
paths = (
{
closed = 1;
nodes = (
"16 -208 LINE SMOOTH",
"133 -208 OFFCURVE",
"184 -149 OFFCURVE",
"184 -10 CURVE SMOOTH",
"184 547 LINE",
"94 547 LINE",
"94 -10 LINE SMOOTH",
"94 -109 OFFCURVE",
"74 -132 OFFCURVE",
"6 -132 CURVE SMOOTH",
"-18 -132 LINE",
"-18 -208 LINE"
);
},
{
closed = 1;
nodes = (
"184 646 LINE",
"184 760 LINE",
"94 760 LINE",
"94 646 LINE"
);
}
);
width = 278;
},
{
layerId = "5297CC84-2E5E-44C2-8BD8-B52BBF62A592";
paths = (
{
closed = 1;
nodes = (
"53 -216 LINE SMOOTH",
"186 -216 OFFCURVE",
"259 -137 OFFCURVE",
"259 10 CURVE SMOOTH",
"259 547 LINE",
"84 547 LINE",
"84 10 LINE SMOOTH",
"84 -78 OFFCURVE",
"64 -101 OFFCURVE",
"-3 -101 CURVE SMOOTH",
"-33 -101 LINE",
"-33 -216 LINE"
);
},
{
closed = 1;
nodes = (
"259 617 LINE",
"259 760 LINE",
"84 760 LINE",
"84 617 LINE"
);
}
);
width = 343;
},
{
layerId = "5FB0259D-C3EC-4F0F-ABB4-6EFEC5FB1D78";
paths = (
{
closed = 1;
nodes = (
"48 -216 LINE SMOOTH",
"169 -216 OFFCURVE",
"233 -137 OFFCURVE",
"233 10 CURVE SMOOTH",
"233 547 LINE",
"76 547 LINE",
"76 10 LINE SMOOTH",
"76 -78 OFFCURVE",
"57 -101 OFFCURVE",
"-2 -101 CURVE SMOOTH",
"-29 -101 LINE",
"-29 -216 LINE"
);
},
{
closed = 1;
nodes = (
"233 617 LINE",
"233 760 LINE",
"76 760 LINE",
"76 617 LINE"
);
}
);
width = 308;
},
{
layerId = "79D829DC-9C66-44C2-8B43-D291CF08F0E9";
paths = (
{
closed = 1;
nodes = (
"-79 -208 LINE SMOOTH",
"-2 -208 OFFCURVE",
"56 -184 OFFCURVE",
"85 -140 CURVE SMOOTH",
"100 -117 OFFCURVE",
"114 -74 OFFCURVE",
"126 -12 CURVE",
"127 -10 LINE",
"235 547 LINE",
"145 547 LINE",
"37 -10 LINE SMOOTH",
"17 -114 OFFCURVE",
"-4 -132 OFFCURVE",
"-75 -132 CURVE SMOOTH",
"-98 -132 LINE",
"-113 -208 LINE"
);
},
{
closed = 1;
nodes = (
"255 646 LINE",
"277 760 LINE",
"187 760 LINE",
"165 646 LINE"
);
}
);
width = 278;
},
{
layerId = "217D6A7E-4635-413B-8BF5-4A1DD3DA67ED";
paths = (
{
closed = 1;
nodes = (
"-71 -208 LINE SMOOTH",
"-2 -208 OFFCURVE",
"50 -184 OFFCURVE",
"77 -140 CURVE SMOOTH",
"91 -117 OFFCURVE",
"103 -74 OFFCURVE",
"114 -12 CURVE",
"115 -10 LINE",
"212 547 LINE",
"131 547 LINE",
"34 -10 LINE SMOOTH",
"15 -114 OFFCURVE",
"-4 -132 OFFCURVE",
"-67 -132 CURVE SMOOTH",
"-88 -132 LINE",
"-101 -208 LINE"
);
},
{
closed = 1;
nodes = (
"230 646 LINE",
"250 760 LINE",
"169 760 LINE",
"149 646 LINE"
);
}
);
width = 250;
},
{
layerId = "BED8EE44-B183-4D86-965C-1BADD1250A61";
paths = (
{
closed = 1;
nodes = (
"-37 -216 LINE SMOOTH",
"88 -216 OFFCURVE",
"160 -143 OFFCURVE",
"188 10 CURVE SMOOTH",
"282 547 LINE",
"124 547 LINE",
"29 10 LINE SMOOTH",
"14 -79 OFFCURVE",
"-8 -101 OFFCURVE",
"-67 -101 CURVE SMOOTH",
"-95 -101 LINE",
"-115 -216 LINE"
);
},
{
closed = 1;
nodes = (
"294 617 LINE",
"319 760 LINE",
"161 760 LINE",
"135 617 LINE"
);
}
);
width = 308;
},
{
layerId = "99D829B7-D749-4014-BBE4-6F1A75B6E575";
paths = (
{
closed = 1;
nodes = (
"16 -208 LINE SMOOTH",
"68 -208 OFFCURVE",
"105 -194 OFFCURVE",
"128 -165 CURVE SMOOTH",
"151 -136 OFFCURVE",
"162 -84 OFFCURVE",
"162 -10 CURVE SMOOTH",
"162 547 LINE",
"117 547 LINE",
"117 -10 LINE SMOOTH",
"117 -84 OFFCURVE",
"108 -129 OFFCURVE",
"89 -146 CURVE SMOOTH",
"70 -162 OFFCURVE",
"43 -170 OFFCURVE",
"6 -170 CURVE SMOOTH",
"-18 -170 LINE",
"-18 -208 LINE"
);
},
{
closed = 1;
nodes = (
"162 698 LINE",
"162 760 LINE",
"117 760 LINE",
"117 698 LINE"
);
}
);
width = 278;
},
{
layerId = "D5B43B4B-63DF-4B35-BEE3-B41B34784265";
paths = (
{
closed = 1;
nodes = (
"-41 -216 LINE SMOOTH",
"98 -216 OFFCURVE",
"179 -143 OFFCURVE",
"208 10 CURVE SMOOTH",
"313 547 LINE",
"137 547 LINE",
"32 10 LINE SMOOTH",
"16 -79 OFFCURVE",
"-10 -101 OFFCURVE",
"-75 -101 CURVE SMOOTH",
"-106 -101 LINE",
"-128 -216 LINE"
);
},
{
closed = 1;
nodes = (
"326 617 LINE",
"354 760 LINE",
"178 760 LINE",
"150 617 LINE"
);
}
);
width = 343;
}
);
note = j;
unicode = 006A;
},
{
export = 0;
glyphname = k;
layers = (
{
layerId = "79F6B4AB-4C44-4F2D-9893-C213A8C041F5";
paths = (
{
closed = 1;
nodes = (
"163 0 LINE",
"163 267 LINE",
"413 0 LINE",
"519 0 LINE",
"247 291 LINE",
"508 547 LINE",
"404 547 LINE",
"163 311 LINE",
"163 760 LINE",
"82 760 LINE",
"82 0 LINE"
);
}
);
width = 521;
},
{
layerId = "EB88A49E-561A-4405-9552-C71224CBA53C";
paths = (
{
closed = 1;
nodes = (
"181 0 LINE",
"181 267 LINE",
"459 0 LINE",
"576 0 LINE",
"274 291 LINE",
"564 547 LINE",
"449 547 LINE",
"181 311 LINE",
"181 760 LINE",
"91 760 LINE",
"91 0 LINE"
);
}
);
width = 579;
},
{
layerId = "5297CC84-2E5E-44C2-8BD8-B52BBF62A592";
paths = (
{
closed = 1;
nodes = (
"259 0 LINE",
"259 228 LINE",
"472 0 LINE",
"684 0 LINE",
"396 296 LINE",
"663 547 LINE",
"460 547 LINE",
"259 346 LINE",
"259 760 LINE",
"84 760 LINE",
"84 0 LINE"
);
}
);
width = 665;
},
{
layerId = "5FB0259D-C3EC-4F0F-ABB4-6EFEC5FB1D78";
paths = (
{
closed = 1;
nodes = (
"233 0 LINE",
"233 228 LINE",
"425 0 LINE",
"616 0 LINE",
"356 296 LINE",
"597 547 LINE",
"414 547 LINE",
"233 346 LINE",
"233 760 LINE",
"76 760 LINE",
"76 0 LINE"
);
}
);
width = 598;
},
{
layerId = "79D829DC-9C66-44C2-8B43-D291CF08F0E9";
paths = (
{
closed = 1;
nodes = (
"125 0 LINE",
"177 267 LINE",
"410 0 LINE",
"519 0 LINE",
"268 285 LINE",
"612 547 LINE",
"495 547 LINE",
"187 317 LINE",
"273 760 LINE",
"183 760 LINE",
"35 0 LINE"
);
}
);
width = 579;
},
{
layerId = "217D6A7E-4635-413B-8BF5-4A1DD3DA67ED";
paths = (
{
closed = 1;
nodes = (
"112 0 LINE",
"159 267 LINE",
"369 0 LINE",
"467 0 LINE",
"241 285 LINE",
"551 547 LINE",
"446 547 LINE",
"168 317 LINE",
"246 760 LINE",
"165 760 LINE",
"32 0 LINE"
);
}
);
width = 521;
},
{
layerId = "BED8EE44-B183-4D86-965C-1BADD1250A61";
paths = (
{
closed = 1;
nodes = (
"186 0 LINE",
"227 236 LINE",
"386 0 LINE",
"566 0 LINE",
"358 294 LINE",
"644 547 LINE",
"459 547 LINE",
"247 348 LINE",
"318 760 LINE",
"160 760 LINE",
"28 0 LINE"
);
}
);
width = 598;
},
{
layerId = "99D829B7-D749-4014-BBE4-6F1A75B6E575";
paths = (
{
closed = 1;
nodes = (
"204 0 LINE",
"204 280 LINE",
"489 0 LINE",
"547 0 LINE",
"255 289 LINE",
"538 547 LINE",
"476 547 LINE",
"204 298 LINE",
"204 760 LINE",
"159 760 LINE",
"159 0 LINE"
);
}
);
width = 579;
},
{
layerId = "D5B43B4B-63DF-4B35-BEE3-B41B34784265";
paths = (
{
closed = 1;
nodes = (
"206 0 LINE",
"252 236 LINE",
"429 0 LINE",
"629 0 LINE",
"398 294 LINE",
"716 547 LINE",
"510 547 LINE",
"274 348 LINE",
"354 760 LINE",
"178 760 LINE",
"31 0 LINE"
);
}
);
width = 665;
}
);
note = k;
rightKerningGroup = k;
unicode = 006B;
},
{
export = 0;
glyphname = l;
layers = (
{
layerId = "79F6B4AB-4C44-4F2D-9893-C213A8C041F5";
paths = (
{
closed = 1;
nodes = (
"166 0 LINE",
"166 760 LINE",
"85 760 LINE",
"85 0 LINE"
);
}
);
width = 250;
},
{
layerId = "EB88A49E-561A-4405-9552-C71224CBA53C";
paths = (
{
closed = 1;
nodes = (
"184 0 LINE",
"184 760 LINE",
"94 760 LINE",
"94 0 LINE"
);
}
);
width = 278;
},
{
layerId = "5297CC84-2E5E-44C2-8BD8-B52BBF62A592";
paths = (
{
closed = 1;
nodes = (
"259 0 LINE",
"259 760 LINE",
"84 760 LINE",
"84 0 LINE"
);
}
);
width = 343;
},
{
layerId = "5FB0259D-C3EC-4F0F-ABB4-6EFEC5FB1D78";
paths = (
{
closed = 1;
nodes = (
"233 0 LINE",
"233 760 LINE",
"76 760 LINE",
"76 0 LINE"
);
}
);
width = 308;
},
{
layerId = "79D829DC-9C66-44C2-8B43-D291CF08F0E9";
paths = (
{
closed = 1;
nodes = (
"125 0 LINE",
"273 760 LINE",
"183 760 LINE",
"35 0 LINE"
);
}
);
width = 278;
},
{
layerId = "217D6A7E-4635-413B-8BF5-4A1DD3DA67ED";
paths = (
{
closed = 1;
nodes = (
"112 0 LINE",
"246 760 LINE",
"165 760 LINE",
"32 0 LINE"
);
}
);
width = 250;
},
{
layerId = "BED8EE44-B183-4D86-965C-1BADD1250A61";
paths = (
{
closed = 1;
nodes = (
"186 0 LINE",
"318 760 LINE",
"160 760 LINE",
"28 0 LINE"
);
}
);
width = 308;
},
{
layerId = "99D829B7-D749-4014-BBE4-6F1A75B6E575";
paths = (
{
closed = 1;
nodes = (
"158 0 LINE",
"158 760 LINE",
"113 760 LINE",
"113 0 LINE"
);
}
);
width = 278;
},
{
layerId = "D5B43B4B-63DF-4B35-BEE3-B41B34784265";
paths = (
{
closed = 1;
nodes = (
"206 0 LINE",
"354 760 LINE",
"178 760 LINE",
"31 0 LINE"
);
}
);
width = 343;
}
);
leftKerningGroup = l;
note = l;
unicode = 006C;
},
